<svg width="118" height="160" viewBox="0 0 118 160" fill="none" xmlns="http://www.w3.org/2000/svg">
<g id="Group" opacity="0.16">
<path id="Vector" d="M115.526 100.118C114.534 100.608 113.513 101.039 112.469 101.407C108.313 102.785 104.163 104.103 99.9576 105.436C98.8181 105.773 97.6408 105.966 96.4537 106.012C94.491 106.156 92.5544 106.548 90.6908 107.179C87.9563 108.03 85.2391 108.926 82.498 109.765C80.8278 110.211 79.0851 110.316 77.3733 110.074C74.8388 109.914 72.2954 109.943 69.765 110.162C68.2976 110.246 66.8212 110.256 65.35 110.319C62.7861 110.387 60.2604 110.954 57.9151 111.991C55.2338 113.256 53.1525 115.166 50.881 116.888C50.7997 116.957 50.8174 117.105 50.6189 117.436C51.2463 117.178 51.6845 117.009 52.1106 116.847C54.4564 115.679 56.9354 114.8 59.4937 114.23C61.3093 113.899 63.1388 113.695 64.9553 113.395C66.4045 113.162 67.8449 112.855 69.2782 112.607C71.5091 112.074 73.8208 111.969 76.0909 112.298C77.6387 112.461 79.1963 112.504 80.7507 112.426C84.0145 112.568 87.284 112.691 90.5487 112.935C91.5294 113.06 92.4839 113.338 93.3786 113.758C93.7939 113.879 94.0504 114.403 94.4545 114.807C94.1209 115.109 93.9308 115.411 93.6547 115.515C91.1309 116.662 88.48 117.507 85.7581 118.035C83.8604 118.331 82.0177 118.93 80.1345 119.354C78.9413 119.62 77.7233 119.798 76.5329 120.055C74.9752 120.379 73.4227 120.755 71.8688 121.101C71.0274 121.16 70.2019 121.359 69.4259 121.689C68.7237 122.093 67.9514 122.361 67.1492 122.479C66.2872 122.676 65.4738 123.046 64.7581 123.565C64.0423 124.084 63.4392 124.743 62.9846 125.501C62.6964 125.943 62.3609 126.353 61.9839 126.723C60.4968 128.19 58.8551 129.492 57.0872 130.606C55.8332 131.396 54.7302 132.374 53.5248 133.21C52.6904 133.802 51.8163 134.337 50.9095 134.811C48.7164 135.911 46.4856 136.929 44.3103 138.004C42.7858 138.788 41.2852 139.619 39.8079 140.498C38.0807 141.596 36.246 142.515 34.3324 143.241C31.9829 144.071 29.6623 145.011 27.2749 145.759C25.9513 146.178 24.5797 146.425 23.193 146.494C21.7087 146.582 20.3146 147.234 19.2957 148.315C17.5709 149.951 15.7911 151.529 14.1308 153.224C12.6382 154.835 11.2495 156.476 9.74752 158.084C9.13596 158.683 8.47945 159.233 7.7838 159.732C7.5936 159.894 7.35463 159.988 7.10487 159.999C6.8551 160.01 6.60894 159.936 6.40557 159.791C6.0584 159.578 5.69907 159.371 5.3547 159.148C3.86547 158.183 4.01716 156.714 5.11769 155.5C7.36594 153.087 9.75892 150.879 12.0473 148.538C12.7917 147.726 13.4936 146.876 14.1504 145.99C14.2576 145.868 14.3098 145.689 14.4277 145.601C15.9385 144.384 16.7499 142.687 17.7834 141.106C18.3961 140.006 18.7528 138.781 18.8271 137.524C19.063 135.661 19.2989 133.797 19.6414 131.953C20.0077 129.581 20.5141 127.233 21.1579 124.92C22.5483 120.285 24.6684 115.9 27.4384 111.931C28.7349 110.151 30.2841 108.556 31.6824 106.846C32.7458 105.55 33.7605 104.209 34.7753 102.868C35.79 101.527 36.7889 100.172 37.8265 98.8581C38.0489 98.5854 38.4451 98.4552 38.9502 98.162C39.0095 98.5555 39.024 98.9542 38.9927 99.3506C38.6979 100.574 38.3718 101.798 38.0204 103.005C37.2682 105.587 36.5698 108.196 35.669 110.726C34.4688 114.108 33.0728 117.424 31.7969 120.786C31.461 121.659 31.2727 122.586 31.0092 123.491C30.7812 124.188 30.4729 124.857 30.0907 125.483C29.0881 127.031 28.2313 128.668 27.5309 130.373C26.8367 131.892 26.0635 133.374 25.2146 134.812C25.1594 135 25.0483 135.172 24.8992 135.507C25.5159 135.347 26.0471 134.956 26.384 134.416C27.5029 132.545 29.04 130.959 30.8751 129.781C31.6553 129.193 32.28 128.424 32.6949 127.539C33.3737 126.366 34.132 125.241 34.9654 124.171C36.3334 122.391 37.778 120.664 39.2034 118.931C39.7738 118.239 40.4083 117.605 40.9881 116.915C42.0668 115.728 42.8639 114.314 43.3194 112.776C43.7525 111.359 44.4603 110.039 45.4021 108.894C47.9343 105.54 50.4124 102.232 53.102 99.0065C54.4078 97.4025 56.0211 96.0108 57.4077 94.4814C58.7948 92.9525 60.2548 91.3116 61.7671 89.8088C63.5074 88.0857 65.3281 86.4377 67.1553 84.8014C68.5573 83.5013 70.0561 82.2912 71.5315 81.0536C71.7217 80.9313 71.9254 80.8328 72.1393 80.76C72.2393 80.8557 72.3192 80.9705 72.3748 81.0975C72.4304 81.2245 72.4603 81.3613 72.4626 81.4995C72.465 81.6381 72.4402 81.7758 72.3893 81.9047C72.3379 82.0335 72.2622 82.1512 72.1655 82.2502C71.51 83.2357 70.8709 84.2356 70.2196 85.2426C68.3756 88.06 66.6133 90.9115 64.7819 93.7223C62.2007 97.6648 59.5778 101.575 56.9807 105.503C56.1748 106.702 55.4338 107.944 54.761 109.223C55.3796 108.82 56.0122 108.442 56.6135 107.993C58.6822 106.406 60.6986 104.754 62.7898 103.195C64.5455 101.875 66.3923 100.663 68.1803 99.3735C68.7311 98.9192 69.2259 98.4006 69.6539 97.8287C71.225 95.8311 72.6 93.6869 73.7596 91.4259C74.5632 89.8097 75.0715 88.0637 75.2616 86.2697C75.5377 84.5503 75.6218 82.7851 76.0133 81.0896C76.4034 79.0364 77.0725 77.0467 78.0027 75.1752C78.0685 74.9487 78.2218 74.7377 78.3189 74.5104C78.917 73.0893 79.4262 71.6216 80.1256 70.2402C80.9609 68.5866 81.4015 66.7617 81.4123 64.9088C81.5188 62.943 82.0967 61.0317 83.0974 59.3357C83.1474 59.2222 83.2161 59.1177 83.3002 59.0266C84.7597 57.5285 85.8656 55.734 87.4933 54.3974C87.8399 54.1201 88.1254 53.7733 88.4492 53.4689C88.7734 53.1645 89.1948 53.1234 89.4284 53.6206C89.5873 53.9787 89.6625 54.3675 89.6494 54.7588C89.5812 55.9763 89.5008 57.2003 89.3331 58.409C89.1649 59.6176 88.8472 60.8851 88.6118 62.1153C88.4524 62.6619 88.4749 63.2515 88.3347 63.8038C88.1717 64.7753 87.8951 65.7244 87.511 66.6315C86.8415 67.9937 86.38 69.4484 86.1412 70.947C85.8829 72.3956 85.6287 73.8657 85.4568 75.2979C85.3559 76.0664 85.4451 76.8488 85.382 77.628C85.2998 78.7185 85.1554 79.8118 85.0391 80.9127C84.998 81.0541 85.0134 81.2124 84.9765 81.549C85.8319 80.929 86.6 80.196 87.2587 79.3702C88.6561 77.8749 90.0283 76.3619 91.4673 74.8993C92.76 73.5879 94.1172 72.3363 95.4394 71.0646C95.6258 70.8461 95.8374 70.6501 96.0696 70.4811C97.3904 69.5189 98.6126 68.4293 99.7189 67.2276C101.5 65.6086 103.305 64.0167 105.102 62.4126C106.9 60.8086 108.578 59.3338 110.315 57.7942C111.768 58.2167 111.971 58.7152 111.211 59.9561C110.719 60.7642 110.142 61.5168 109.67 62.33C108.857 63.7501 108.019 65.1525 107.311 66.6338C106.334 68.7589 105.004 70.7019 103.375 72.3811C101.642 74.1159 100.09 76.037 98.4275 77.8436C97.1736 79.197 95.8556 80.4902 94.583 81.8379C93.9439 82.5214 93.3342 83.2436 92.7273 83.9569C91.677 85.1324 90.7141 86.3836 89.8466 87.6996C90.2082 87.5974 90.5628 87.4718 90.9076 87.3233C93.1375 86.2029 95.3445 85.0554 97.5646 83.9322C98.3696 83.5223 99.212 83.1946 99.9567 82.7464C101.936 81.6764 103.893 80.5789 105.843 79.4692C109.343 77.5014 112.82 75.5066 116.333 73.5632C116.829 73.3858 117.348 73.2849 117.874 73.2644C118.014 73.7751 118.038 74.311 117.943 74.832C117.848 75.353 117.636 75.846 117.324 76.2746C115.886 78.8086 113.855 80.9579 111.406 82.5391C109.348 83.9854 107.373 85.5993 105.375 87.1548C102.6 89.3027 100.067 91.7462 96.9423 93.4446C96.5695 93.6738 96.1724 93.86 95.7575 93.9996C93.1646 94.8848 90.6665 96.0248 88.2992 97.4029C87.7484 97.6676 87.1588 97.8413 86.5528 97.9178C84.7004 98.1755 82.8905 98.6811 81.1726 99.4201C79.7303 99.9883 78.2591 100.478 76.7641 100.889C74.5262 101.41 72.4313 102.421 70.6317 103.85C70.4518 104.012 70.1813 104.097 70.0323 104.432C70.8391 104.227 71.6595 104.046 72.4608 103.788C75.3723 102.856 78.2816 101.909 81.188 100.949C82.6087 100.568 83.9893 100.052 85.3105 99.4071C86.1856 98.9412 87.1662 98.7087 88.1576 98.732C89.7853 98.6942 91.3719 98.2358 93.0109 98.1601C95.4982 97.979 97.9945 97.9505 100.485 98.0742C102.685 98.2689 104.902 98.1564 107.07 97.74C108.604 97.486 110.164 97.4309 111.712 97.577C112.719 97.6345 113.736 97.6545 114.718 97.7969C115.191 97.888 115.626 98.1177 115.968 98.457C116.095 98.5784 116.187 98.732 116.234 98.901C116.281 99.07 116.282 99.2483 116.237 99.4178C116.192 99.5873 116.102 99.7418 115.977 99.865C115.852 99.9878 115.696 100.075 115.526 100.118ZM44.4215 93.5365C46.2216 92.6551 47.925 91.5879 49.5037 90.3522C50.1932 89.7756 50.8725 89.1655 51.5864 88.6473C53.5113 87.2738 55.324 85.7496 57.0073 84.089C59.9049 81.4182 62.4282 78.3688 64.5086 75.0234C64.7413 74.6448 64.8955 74.2237 64.9613 73.7849C64.9538 73.4408 64.8828 73.101 64.752 72.7831C64.4194 72.8704 64.0241 72.8578 63.7732 73.0506C62.0353 74.3447 60.2655 75.6089 58.6416 77.0388C57.8655 77.7666 57.0022 78.3945 56.0706 78.9085C54.4256 79.7082 53.0768 80.9313 51.2454 81.421C51.1346 81.4505 51.0426 81.5564 50.9422 81.6195C49.5541 82.555 48.1932 83.5396 46.7556 84.3995C44.7887 85.5657 42.7522 86.6198 40.7507 87.7654C39.786 88.3028 38.8049 88.8252 37.899 89.4414C36.7506 90.2952 35.5102 91.0179 34.2011 91.5968C33.2555 91.9885 32.3356 92.438 31.4451 92.9427C29.9403 93.7522 28.4462 94.5958 26.9493 95.4487C26.0191 95.9571 25.1155 96.5131 24.2433 97.1158C22.8211 98.1335 21.4607 99.2208 20.0614 100.266C20.0614 100.266 19.9198 100.225 19.7596 100.178C19.8367 99.9519 19.9343 99.7339 20.0516 99.5266C21.3854 97.5117 22.7384 95.5024 24.0681 93.537C25.6038 91.101 27.8243 89.1716 30.4523 87.9909C32.2468 87.2043 33.9764 86.2552 35.7956 85.455C37.6149 84.6553 39.6869 84.041 41.5725 83.1885C43.4577 82.3361 45.5068 81.204 47.4606 80.1876C48.4361 79.6839 49.3836 79.1008 50.3899 78.6671C52.7675 77.6368 55.0516 76.4025 57.2157 74.9777C57.8562 74.522 58.4565 74.0127 59.0102 73.4544C59.7245 72.7933 60.3613 72.0478 61.0785 71.3774C62.8968 69.6669 64.731 67.9713 66.5629 66.2851C67.1067 65.7888 67.6823 65.3225 68.1939 64.7963C69.3833 63.5573 70.5504 62.2917 71.7147 61.035C72.8789 59.7787 74.0077 58.5733 75.1219 57.3124C75.506 56.8722 75.954 56.3885 75.7101 55.7144C74.6015 55.2695 74.5949 55.2573 73.7867 55.8199C73.3139 56.1425 72.8775 56.5164 72.4612 56.8553C71.1774 57.7503 69.9543 58.6826 68.669 59.5462C67.6337 60.2759 66.5498 60.9346 65.4243 61.5163C62.8851 62.7511 60.2777 63.8332 57.7413 65.0587C54.7624 66.5031 51.8205 68.0301 48.8753 69.5352C47.4573 70.2579 46.0324 70.9684 44.6654 71.7976C42.5284 73.0916 40.4307 74.438 38.3722 75.8367C36.8151 76.8969 35.3509 78.0252 33.8414 79.2017C33.1345 79.732 32.4444 80.3086 31.7507 80.8636L31.5357 80.6886C31.8067 80.2152 32.1029 79.7596 32.3482 79.2684C33.818 76.3315 35.7125 73.6266 37.9714 71.2411C38.3036 70.8788 38.6156 70.4983 38.9072 70.1025C40.3578 68.2136 41.7706 66.3136 43.2283 64.4369C44.5944 62.6974 45.9931 60.9874 47.4008 59.2801C47.9058 58.6704 48.2609 57.874 49.2238 57.7657C49.3845 57.7405 49.5247 57.5052 49.6681 57.3633C50.289 56.6028 50.9795 55.8834 51.7294 55.171C52.262 54.5996 52.8539 54.086 53.4954 53.6397C55.9902 52.0637 58.8088 51.0698 61.7409 50.7313C63.1888 50.539 64.6235 50.179 66.0634 49.9433C66.8091 49.7262 67.5907 49.658 68.363 49.743C69.687 49.975 71.0349 50.0908 72.3823 50.2066C73.9834 50.1996 75.5732 50.4717 77.0804 51.0109C77.2229 51.0884 77.3808 51.1342 77.5425 51.1454C79.4683 51.1739 81.402 51.2453 83.3119 51.1874C86.1211 51.0637 88.9388 50.8401 91.7508 50.6356C93.9892 50.4689 96.2322 50.2519 98.4668 50.0633C98.9162 50.0306 99.3671 50.0287 99.8156 49.9648C101.764 49.7033 103.693 49.334 105.647 49.1968C106.754 49.1198 107.919 48.7024 109.014 49.3686C109.175 49.4153 109.422 49.3747 109.623 49.3513C110.632 49.2253 111.65 49.1025 112.661 48.9363C113.021 48.9251 113.372 48.8149 113.674 48.6174C114.041 48.2935 114.511 48.1114 115.001 48.1035C115.27 48.0591 115.505 47.8107 115.764 47.6609C115.622 47.3841 115.441 47.1282 115.228 46.9018C115.01 46.7912 114.773 46.7225 114.53 46.6987C112.955 46.2403 111.389 45.7851 109.813 45.3267C109.038 44.963 108.243 44.6432 107.432 44.3682C105.836 44.0265 104.203 43.8949 102.573 43.9775C98.97 44.1292 95.3646 43.7688 91.8634 42.9075C91.6653 42.8501 91.4673 42.7922 91.2855 42.6783C89.5877 42.1129 87.9044 41.429 86.1683 40.9953C81.8108 40.014 77.307 39.8628 72.8929 40.5495L72.5243 40.5854C69.7954 40.8856 67.1062 41.4743 64.5021 42.3422C64.2437 42.4201 63.991 42.4799 63.5382 42.5933C63.6527 42.3599 63.7831 42.1349 63.9293 41.9197C65.2075 40.4818 66.4792 39.0318 67.7804 37.6205C69.082 36.2097 70.6751 34.7098 71.9501 33.1076C73.4129 31.1944 74.5594 29.0596 75.3476 26.7846C75.5027 26.3207 75.7143 25.8774 75.9774 25.4648C77.178 23.6974 78.3624 21.9151 79.6462 20.2128C81.0474 18.3011 82.1495 16.1875 82.9148 13.9446C83.0484 13.4721 83.2296 13.0143 83.4562 12.5785C84.8644 10.1775 86.4935 7.91288 88.3226 5.81387C89.5223 4.43486 90.538 2.87958 91.6565 1.39493C91.7322 1.30399 91.7882 1.19848 91.8214 1.0849C91.8546 0.971362 91.8644 0.852178 91.8494 0.734767C91.8349 0.617356 91.7962 0.504239 91.7359 0.402375C91.6756 0.30051 91.5948 0.212137 91.499 0.142718C91.1038 -0.186966 90.7464 0.128198 90.4156 0.349061C89.7237 0.792001 89.0416 1.2377 88.3258 1.62256C86.6355 2.54201 84.8555 3.31267 83.2539 4.3499C81.373 5.57181 79.6346 7.00889 77.8438 8.37959C76.282 9.50117 74.821 10.756 73.4765 12.1299C72.1982 13.5674 71.0755 15.1364 70.1281 16.8104C68.1411 20.118 66.0686 23.37 64.005 26.6245C63.3018 27.7393 62.5057 28.7855 61.7078 29.9442C61.7475 29.2808 61.7895 28.6796 61.8288 28.0881C61.839 25.7959 62.1591 23.5157 62.78 21.3093C63.1271 20.1694 63.3649 18.9993 63.4911 17.8146C63.5097 17.6223 63.4864 17.4283 63.4228 17.2458C63.3598 17.0632 63.2575 16.8965 63.1238 16.7569C62.7487 16.4637 62.3614 16.8111 62.0778 17.1171C61.8428 17.3506 61.634 17.6087 61.4541 17.8868C60.3361 19.9338 59.183 21.9604 58.1267 24.0765C57.5404 25.2455 57.2049 26.5386 56.6695 27.7426C55.8659 29.554 54.9937 31.2841 54.1037 33.0394C54.0626 33.1808 53.9579 33.2934 53.7893 33.5921L53.5659 32.883C53.2978 31.5184 52.8866 30.1856 52.34 28.9069C52.2162 28.6077 52.1531 28.2869 52.1541 27.963C52.1045 27.3967 52.1625 26.8103 52.0667 26.2608C51.7845 24.0645 51.728 21.845 51.8985 19.6372C51.9541 18.0174 51.9775 16.3915 51.9686 14.7597C51.9999 11.8082 52.4643 8.87715 53.3463 6.06017C53.6211 5.11757 53.807 4.05714 54.7587 3.49548C54.4508 2.44476 54.1957 2.19668 53.7094 2.56651C52.3765 3.52629 51.2351 4.72734 50.3446 6.10737C49.3205 7.92983 48.6151 9.91335 48.2576 11.9728C47.9825 13.2586 47.4307 14.4693 46.6407 15.5209C45.3545 17.1756 44.5486 19.1522 44.3112 21.2341C44.1239 23.6336 43.9365 26.0331 43.9393 28.4471C43.9066 30.4213 44.079 32.3938 44.1538 34.4913C43.0073 33.0534 41.9393 31.8018 40.9306 30.4862C38.9852 27.9261 36.2474 26.4345 33.4868 24.9875C31.147 23.8917 28.926 22.5604 26.8568 21.0142C25.5449 19.968 24.1377 19.0372 22.7553 18.0931C22.4833 17.9016 21.9134 17.7154 21.8115 17.8187C21.549 18.1503 21.3864 18.55 21.3429 18.9708C21.3242 19.2978 21.3794 19.6249 21.5046 19.9277C21.8082 20.8212 22.325 21.6276 23.0099 22.2776C24.2596 23.5717 25.5598 24.87 26.7661 26.2435C28.8391 28.6679 31.1559 30.8732 33.6797 32.8251C36.0456 34.6122 38.0746 36.8054 39.6724 39.3021C41.1338 41.7161 42.3285 44.2819 43.2353 46.9541C43.8034 48.2253 44.1902 49.5698 44.3841 50.9489C44.4229 51.553 44.6509 52.1407 44.7397 52.7495C44.7976 53.1052 44.7784 53.4693 44.6845 53.8171C43.5273 57.438 41.1338 60.2796 38.6395 63.3986C38.6325 62.8239 38.6208 62.5139 38.6371 62.2119C38.7404 60.3809 38.8656 58.5462 38.9506 56.7102C39.0469 54.6929 39.1053 52.665 39.173 50.7112C39.1931 50.257 39.2721 49.8098 39.2487 49.363C39.2137 48.5348 38.8581 48.3495 38.1517 48.7374C37.9205 48.8644 37.6518 48.9088 37.4173 49.0451C37.1832 49.1814 36.8071 49.3481 36.6955 49.5918C36.2698 50.4904 35.9036 51.468 35.5518 52.4287C35.2 53.39 35.0519 54.1444 34.6823 54.9572C33.1237 58.4814 31.5325 61.9757 29.9482 65.4821C29.8524 65.8122 29.5824 66.0713 29.2638 66.6021L29.2203 65.8738C29.1077 63.2744 29.7665 60.767 29.9912 58.2045C30.2024 56.536 30.2958 54.8545 30.2696 53.1729C30.1851 51.7887 30.2066 50.4003 30.3336 49.0194C30.5434 47.5969 30.4682 46.1465 30.1131 44.7529C29.6997 43.4672 29.3082 42.1774 28.8797 40.9076C28.1831 38.803 27.4838 36.7078 26.7503 34.6234C26.1387 32.7042 25.0146 30.9881 23.4995 29.6595C23.1771 29.4134 22.9192 29.0927 22.7482 28.7253C22.5623 28.3117 22.2698 27.955 21.9008 27.6913C21.5317 27.428 21.0995 27.2669 20.6477 27.2244C19.8456 26.9915 19.2882 27.6063 19.5255 28.4424C19.7203 29.0624 19.982 29.6599 20.3062 30.2234C20.8935 31.1067 21.3004 32.0973 21.5036 33.1384C21.6218 34.0314 21.7405 34.925 21.7466 35.8162C21.8209 36.7246 21.8321 37.6364 21.7807 38.5463C21.5485 40.9939 21.2285 43.4266 21.0089 45.8677C20.7888 48.3089 20.6809 50.5063 20.4735 52.8694C20.1184 56.585 20.4113 60.3338 21.3387 63.9495C21.6443 65.1838 21.8853 66.4293 22.203 67.6571C22.3857 68.3644 22.7011 69.039 22.9295 69.7294C23.4967 71.045 23.7803 72.4651 23.7621 73.8979C23.6668 74.8367 23.6583 75.7825 23.7373 76.7227C23.8891 77.9001 23.8522 79.0938 23.628 80.2595C23.5028 81.3445 23.2762 82.4149 22.9519 83.4579C22.1147 85.5937 21.4069 87.778 20.8318 89.9988C20.6043 90.6024 20.3095 91.1785 19.953 91.7163C19.7582 92.0688 19.4653 92.3722 19.2419 92.7163C18.1362 94.4399 17.0493 96.1686 15.953 97.8945C15.8508 98.0098 15.7407 98.1181 15.6234 98.218C15.5376 97.93 15.4763 97.6349 15.4402 97.3366C15.345 95.5911 15.2119 93.8344 15.2004 92.0828C15.1799 89.1319 15.2499 86.187 15.2671 83.2473C15.2726 82.6339 15.2251 82.0214 15.125 81.4164C14.7362 78.9925 14.1867 76.5934 13.9559 74.1542C13.8501 72.4273 13.4869 70.7262 12.8782 69.1062C11.5513 65.8985 10.1081 62.738 8.71081 59.5607C8.43456 58.9281 8.22198 58.2531 7.88485 57.6541C6.89748 55.9147 5.82638 54.1817 4.83747 52.4834C4.20297 51.4297 3.54142 50.3989 2.87706 49.3775C2.57301 48.9106 2.09703 48.8233 1.89801 49.2253C1.41002 50.1982 0.516788 50.9811 0.579533 52.2061C0.538886 52.7775 0.462125 53.3461 0.349764 53.9082C0.110513 55.7148 -0.00628612 57.536 0.000207916 59.3585C0.201149 61.4267 0.539961 63.4794 1.01431 65.5022C1.39773 67.3826 1.98117 69.2089 2.34965 71.1057C2.90318 74.3339 3.39065 77.5434 3.77796 80.8156C3.92854 82.9075 4.19666 84.9891 4.58112 87.0512C4.90372 88.4027 5.05065 89.7952 5.35438 91.1412C5.59274 92.5954 5.98747 94.0197 6.53176 95.3894C7.63813 97.8576 8.50749 100.425 9.12816 103.057C9.93786 106.046 9.63983 109.228 8.28884 112.016C8.07168 112.456 7.88149 112.91 7.71932 113.373C6.74475 116.403 5.79573 119.45 4.81173 122.477C4.14831 124.543 3.42158 126.581 2.73924 128.643C2.58203 129.131 2.60296 129.659 2.79825 130.133C2.99354 130.607 3.35057 130.997 3.80609 131.233C5.86259 131.832 8.33411 130.935 8.6504 128.654C8.7835 127.671 8.98295 126.635 9.18366 125.63C9.32919 124.656 9.55746 123.696 9.8659 122.76C10.5072 121.086 11.306 119.468 12.02 117.824C12.3313 117.107 12.6115 116.391 12.9133 115.671C13.9621 113.195 14.7282 110.565 16.9748 108.754C17.9555 107.719 19.0284 106.775 20.1805 105.934C22.5992 104.576 25.1025 103.375 27.6753 102.337C30.2827 101.255 32.85 100.076 35.377 98.8002C37.8051 97.7106 40.134 96.4141 42.3387 94.9249C42.9951 94.4077 43.6913 93.9436 44.4215 93.5365Z" fill="white"/>
<path id="Vector_2" d="M115.968 98.457C115.626 98.1177 115.191 97.888 114.718 97.7969C113.736 97.6545 112.719 97.6345 111.712 97.577C110.164 97.4309 108.604 97.486 107.07 97.74C104.901 98.1564 102.685 98.2689 100.485 98.0742C97.9945 97.9505 95.4982 97.979 93.0109 98.1601C91.3906 98.2409 89.7853 98.6942 88.1576 98.732C87.169 98.7115 86.1921 98.9449 85.3199 99.4099C83.9986 100.055 82.6181 100.571 81.1973 100.951C78.2848 101.91 75.3756 102.857 72.4706 103.791C71.6689 104.049 70.8485 104.23 70.0421 104.434C70.1435 104.086 70.4612 104.014 70.6415 103.852C72.4411 102.424 74.5356 101.413 76.7739 100.892C78.2685 100.481 79.7401 99.9911 81.1819 99.4229C82.8998 98.6839 84.7097 98.1783 86.5622 97.9206C87.1681 97.8441 87.7577 97.6704 88.3085 97.4057C90.6497 96.0108 93.1235 94.8498 95.693 93.9404C96.1079 93.8003 96.505 93.614 96.8779 93.3853C99.9973 91.7051 102.536 89.2435 105.31 87.095C107.309 85.5395 109.296 83.9499 111.342 82.4794C113.791 80.8982 115.821 78.7488 117.26 76.2148C117.572 75.7867 117.783 75.2937 117.878 74.7723C117.973 74.2513 117.95 73.7153 117.809 73.2046C117.284 73.2256 116.764 73.326 116.269 73.5034C112.756 75.4469 109.279 77.4417 105.779 79.4094C103.829 80.5191 101.872 81.6167 99.8922 82.6871C99.1097 83.1241 98.2673 83.4518 97.5002 83.8724C95.28 84.9957 93.073 86.1432 90.8431 87.2636C90.4983 87.412 90.1437 87.5381 89.7821 87.6403C90.6497 86.3238 91.6125 85.0727 92.6628 83.8972C93.2697 83.1843 93.8794 82.4616 94.5185 81.7782C95.7855 80.4495 97.1035 79.1559 98.3631 77.7839C100.025 75.9772 101.577 74.0561 103.311 72.3214C104.939 70.6426 106.27 68.6991 107.246 66.5741C107.954 65.0928 108.792 63.6904 109.605 62.2707C110.078 61.457 110.655 60.7045 111.146 59.8964C111.907 58.6555 111.645 58.1807 110.251 57.7344C108.513 59.2741 106.775 60.8137 105.037 62.3529C103.3 63.8925 101.436 65.5489 99.6544 67.1679C98.5481 68.3695 97.3259 69.4596 96.0051 70.4213C95.7729 70.5903 95.5613 70.7864 95.3749 71.0049C94.0527 72.2765 92.6955 73.5281 91.4028 74.8395C89.9545 76.2993 88.5917 77.8152 87.1943 79.3105C86.5589 80.1568 85.8123 80.9127 84.9737 81.5588C85.0106 81.2217 85.0237 81.0719 85.0363 80.9225C85.1526 79.8212 85.297 78.7283 85.3792 77.6378C85.4423 76.8586 85.353 76.0757 85.4544 75.3077C85.6343 73.8465 85.8913 72.3671 86.1384 70.9563C86.3771 69.4577 86.8387 68.0035 87.5082 66.6413C87.8923 65.7338 88.1688 64.7847 88.3319 63.8132C88.4912 63.2665 88.4968 62.6853 88.6089 62.1246C88.8444 60.8949 89.1514 59.6648 89.3303 58.4183C89.5092 57.1719 89.5784 55.9856 89.6466 54.7681C89.6457 54.3853 89.5602 54.0081 89.3957 53.6621C89.1715 53.1678 88.822 53.1374 88.4165 53.5104C88.0114 53.8834 87.8077 54.1617 87.4606 54.439C85.8646 55.7027 84.7312 57.5206 83.2852 59.0425C83.2011 59.134 83.1325 59.2381 83.0825 59.3516C82.0817 61.0476 81.5038 62.9593 81.3978 64.9252C81.3753 66.7701 80.9273 68.5857 80.0877 70.2294C79.3888 71.6108 78.8791 73.0781 78.2811 74.4992C78.2124 74.7349 78.0779 74.9515 77.9648 75.164C77.0346 77.0355 76.3656 79.0257 75.9759 81.0784C75.584 82.7744 75.4999 84.5391 75.2242 86.2585C75.0336 88.053 74.5253 89.799 73.7222 91.4147C72.5621 93.6757 71.1872 95.8199 69.616 97.8179C69.188 98.3894 68.6933 98.908 68.1425 99.3627C66.3545 100.653 64.5077 101.864 62.7524 103.183C60.6608 104.743 58.6444 106.396 56.5756 107.982C55.993 108.436 55.3137 108.801 54.7232 109.212C55.3959 107.933 56.1369 106.691 56.9428 105.492C59.54 101.564 62.1628 97.6541 64.7441 93.7116C66.5853 90.9035 68.3658 88.0572 70.1818 85.2314C70.833 84.2249 71.4722 83.2245 72.1277 82.2394C72.2244 82.14 72.3005 82.0223 72.3514 81.8935C72.4024 81.7651 72.4276 81.6274 72.4248 81.4887C72.4225 81.3501 72.3926 81.2138 72.337 81.0868C72.2814 80.9598 72.2015 80.845 72.1015 80.7493C71.8875 80.8221 71.6838 80.9206 71.4941 81.0429C70.0183 82.28 68.5382 83.4962 67.1174 84.7902C65.2902 86.4265 63.4696 88.0749 61.7293 89.7981C60.2646 91.3144 58.834 92.9231 57.3698 94.4707C55.9061 96.0183 54.3704 97.3917 53.0642 98.9953C50.4217 102.235 47.8881 105.558 45.3643 108.883C44.4224 110.029 43.7151 111.348 43.2815 112.766C42.826 114.303 42.029 115.717 40.9502 116.904C40.3709 117.594 39.736 118.227 39.1655 118.921C37.7401 120.653 36.2955 122.38 34.9276 124.16C34.1067 125.234 33.3611 126.363 32.6949 127.539C32.251 128.413 31.6002 129.165 30.7985 129.728C28.9634 130.906 27.4258 132.492 26.3073 134.363C25.9705 134.903 25.4393 135.294 24.8226 135.454C24.924 135.106 25.045 134.936 25.138 134.759C25.9869 133.32 26.7601 131.839 27.4543 130.32C28.1546 128.615 29.0115 126.978 30.0141 125.431C30.3963 124.804 30.7041 124.135 30.9326 123.438C31.2634 122.512 31.4031 121.611 31.7203 120.732C32.9962 117.372 34.3922 114.056 35.5924 110.672C36.4927 108.143 37.1818 105.532 37.9438 102.951C38.2951 101.745 38.6497 100.529 38.916 99.2974C38.9474 98.901 38.9329 98.5023 38.8735 98.1092C38.3606 98.4304 37.9644 98.5607 37.7499 98.8048C36.7123 100.119 35.7228 101.477 34.6987 102.815C33.6746 104.153 32.6692 105.497 31.6058 106.793C30.2075 108.503 28.6583 110.097 27.3618 111.878C24.625 115.863 22.5403 120.258 21.185 124.898C20.5412 127.21 20.0348 129.559 19.6685 131.931C19.326 133.774 19.0901 135.638 18.8542 137.502C18.7799 138.759 18.4232 139.983 17.8105 141.083C16.8053 142.673 15.9939 144.369 14.4548 145.578C14.3369 145.666 14.2847 145.846 14.1775 145.968C13.5207 146.853 12.8188 147.703 12.0744 148.516C9.78602 150.856 7.38481 153.093 5.14479 155.478C4.0038 156.69 3.8871 158.179 5.3818 159.126C5.72622 159.348 6.08549 159.555 6.43267 159.768C6.63604 159.914 6.8822 159.987 7.13196 159.976C7.38173 159.965 7.6207 159.872 7.81089 159.709C8.50655 159.211 9.16306 158.66 9.77462 158.062C11.2671 156.451 12.6276 154.801 14.1579 153.201C15.8182 151.506 17.598 149.928 19.3228 148.292C20.3417 147.211 21.7358 146.559 23.2201 146.471C24.6068 146.402 25.9784 146.155 27.302 145.736C29.6894 144.989 32.0123 144.039 34.3595 143.218C36.2764 142.494 38.1143 141.576 39.8444 140.478C41.3151 139.597 42.8162 138.766 44.3467 137.984C46.5332 136.871 48.7636 135.853 50.9459 134.791C51.8495 134.325 52.7203 133.8 53.5528 133.218C54.7582 132.382 55.8711 131.407 57.1152 130.614C58.8836 129.501 60.5253 128.199 62.0119 126.731C62.3889 126.361 62.7244 125.951 63.0126 125.509C63.4672 124.751 64.0708 124.092 64.7866 123.573C65.5023 123.054 66.3157 122.684 67.1777 122.487C67.9794 122.369 68.7517 122.101 69.4544 121.697C70.2304 121.367 71.0559 121.168 71.8973 121.109C73.4512 120.764 75.0037 120.387 76.5613 120.063C77.7518 119.806 78.9697 119.628 80.163 119.362C82.0462 118.938 83.8889 118.339 85.7861 118.042C88.5085 117.516 91.1589 116.67 93.6832 115.523C93.9588 115.42 94.1494 115.117 94.483 114.816C94.0789 114.411 93.8112 113.925 93.407 113.766C92.5124 113.347 91.5574 113.069 90.5768 112.943C87.312 112.699 84.0426 112.576 80.7787 112.435C79.2248 112.512 77.6667 112.469 76.1194 112.306C73.8493 111.977 71.5371 112.082 69.3062 112.615C67.8635 112.861 66.4236 113.168 64.9837 113.403C63.1673 113.703 61.3373 113.907 59.5218 114.238C56.9638 114.808 54.4844 115.687 52.1386 116.855C51.7046 117.046 51.2664 117.215 50.6474 117.444C50.8081 117.102 50.7898 116.954 50.909 116.896C53.1417 115.204 55.2712 113.268 57.9151 111.991C60.2581 110.94 62.7846 110.359 65.3514 110.279C66.8226 110.216 68.2994 110.206 69.7669 110.122C72.2972 109.903 74.8402 109.874 77.3747 110.034C79.0865 110.276 80.8292 110.171 82.4994 109.725C85.2405 108.886 87.9577 107.989 90.6922 107.138C92.5563 106.508 94.4928 106.116 96.4555 105.972C97.6427 105.926 98.8195 105.732 99.959 105.396C104.15 104.11 108.322 102.716 112.471 101.366C113.513 101.012 114.533 100.595 115.526 100.118C115.696 100.075 115.852 99.9878 115.977 99.8651C116.102 99.7418 116.192 99.5873 116.237 99.4178C116.282 99.2483 116.281 99.07 116.234 98.901C116.187 98.732 116.095 98.5784 115.968 98.457ZM88.2838 99.9141C88.6753 99.5882 89.4265 99.7147 90.0143 99.6302C88.8103 100.943 87.3783 102.026 85.7875 102.828L85.6091 102.633C86.4477 101.676 87.341 100.769 88.2838 99.9141ZM84.3715 101.506C85.019 100.795 85.6717 100.064 86.8925 100.195C85.8086 101.28 84.7831 102.342 83.6996 103.356C83.5315 103.467 83.3422 103.543 83.1437 103.579C82.9451 103.614 82.7414 103.608 82.5447 103.562C83.1502 102.889 83.7515 102.195 84.3715 101.506ZM83.3212 101.283C82.5957 102.232 81.8042 103.129 80.953 103.968C80.4961 104.377 79.6986 104.411 79.0562 104.613C79.4528 103.76 80.0462 103.013 80.7876 102.435C81.529 101.856 82.3976 101.461 83.3212 101.283ZM97.8524 84.9466L98.0552 85.1282C97.5763 85.6842 97.1386 86.2725 96.6288 86.7585C96.1191 87.244 95.9537 88.1263 94.6895 88.1473C95.9094 87.0502 96.6821 85.8024 97.8524 84.9466ZM94.7512 89.2696C96.8293 88.3887 98.8396 87.3569 100.767 86.1828C101.772 85.6469 102.76 85.0652 103.755 84.4957C104.09 84.2963 104.41 84.0727 105.001 83.7333C104.548 83.6012 104.274 83.5218 104.135 83.5428C103.305 83.8906 102.501 84.2996 101.732 84.766C100.649 85.4975 99.4652 86.0694 98.2187 86.4639C98.8476 85.6754 99.4666 84.8845 100.112 84.111C100.289 83.9434 100.5 83.8164 100.732 83.7389C102.596 82.8944 104.38 81.8837 106.062 80.7189C107.977 79.5579 109.943 78.4631 111.907 77.3063C112.966 76.6938 114.028 76.1032 115.1 75.515C115.343 75.3815 115.604 75.2937 116.087 75.0762C115.5 76.254 114.655 77.2839 113.613 78.0887C111.951 79.6503 110.194 81.1844 108.449 82.6092C107.551 83.371 106.572 83.9243 105.624 84.5792C105.443 84.6721 105.266 84.7744 105.094 84.885C103.178 86.3728 101.261 87.8602 99.3811 89.3583C98.0501 90.4409 96.5859 91.3484 95.0236 92.0585C92.497 93.2149 90.0675 94.5636 87.5676 95.769C87.0111 95.9949 86.4295 96.1523 85.8352 96.2367C85.069 96.3376 84.3098 96.4818 83.5599 96.669C82.0434 97.1686 80.5587 97.7694 79.059 98.3147C78.4979 98.5196 77.9265 98.6909 77.3696 98.8459L77.2079 98.5229C77.9218 97.9328 78.5904 97.289 79.3533 96.7437C81.38 95.1541 83.6833 93.952 86.1468 93.1985C88.608 92.4096 90.9748 91.3526 93.2048 90.0469C93.6986 89.7467 94.2158 89.4867 94.7512 89.2696ZM94.498 86.9769C93.3589 88.0773 92.852 89.9236 90.8524 90.0067C91.9246 88.8564 92.6815 87.2766 94.498 86.9769ZM90.0353 89.1249C89.5578 89.8144 89.1663 90.3853 88.7683 90.9446C88.6594 91.1071 88.5599 91.3438 88.4001 91.3998C87.1298 91.9852 85.7969 92.424 84.4275 92.7084C86.1309 91.0058 87.7381 89.6328 90.0353 89.1249ZM84.1608 75.1462L84.4154 75.22C84.279 76.9188 84.1542 78.6107 83.9613 80.2927C83.9029 81.0882 83.7921 81.8795 83.6296 82.6605C83.5361 83.3169 83.3072 83.9467 82.9577 84.5101C81.9962 85.7837 80.9301 86.9751 79.7715 88.0721C79.8565 87.6207 79.9854 87.1786 80.1555 86.7524C80.6096 85.8728 80.9072 84.9219 81.0362 83.9411C81.2805 82.5396 81.6533 81.1549 81.957 79.761C82.0374 79.4916 82.0841 79.2129 82.0962 78.9323C82.1285 77.275 83.2764 76.3203 84.1472 75.1934L84.1608 75.1462ZM84.3677 73.1001C84.3196 74.1084 83.5586 74.3675 83.0554 74.8657C83.3007 74.1561 83.759 73.5394 84.3677 73.1001ZM84.8289 70.5348C84.8821 71.44 84.4224 71.9297 83.4399 72.1757L84.8289 70.5348ZM77.6471 85.6338C78.0391 83.3043 78.453 80.9705 79.0081 78.6784C79.7869 75.7592 80.8021 72.9082 82.0439 70.1538C82.4919 68.8462 82.8568 67.511 83.1367 66.1567C83.6062 64.5452 84.0757 62.9332 84.6083 61.3496C84.6836 61.1606 84.7406 60.965 84.7789 60.7652C84.9008 59.2568 85.8693 58.2503 86.8341 57.2218C87.3414 56.6742 87.81 56.0846 88.2945 55.5099L88.5398 55.5813C88.3272 57.0836 88.1245 58.5892 87.8806 60.0929C87.6937 61.633 87.419 63.161 87.0588 64.6698C86.7304 66.3089 86.0422 67.8546 85.0447 69.1968C84.9784 69.3009 84.8957 69.3943 84.8004 69.4732C82.9442 70.6104 82.3966 72.4549 82.0439 74.4385C81.8388 75.565 81.4608 76.6513 81.2085 77.7638C80.9558 78.8768 80.7848 79.9211 80.5741 80.9948C80.3639 82.0686 80.2036 83.0751 79.9448 84.104C79.6948 84.962 79.3697 85.7977 79.1356 86.6702C78.7955 87.8392 78.5773 89.0436 78.2718 90.2332C78.1961 90.5824 78.048 90.9119 77.8368 91.2005C76.6543 92.5538 75.4307 93.875 74.216 95.1985C74.1487 95.269 74.0665 95.3231 73.9749 95.3568C73.8834 95.3904 73.7857 95.403 73.689 95.3932C73.8367 95.0902 74.0039 94.7975 74.1899 94.516C76.0315 91.8718 77.2164 88.827 77.6471 85.6338ZM58.2706 95.7349C59.4872 94.2989 60.6781 92.8456 61.9199 91.4278C62.6281 90.6113 63.3901 89.8924 64.1297 89.1464C65.5481 87.7897 66.9637 86.4429 68.3793 85.096C68.7764 84.667 69.2296 84.2931 69.7263 83.9845C69.5908 84.2898 69.4361 84.5867 69.2628 84.8724C66.3162 89.404 63.3369 93.9053 60.3819 98.3936C59.1891 100.204 58.1122 102.11 56.8849 103.9C55.3361 106.159 53.6855 108.348 52.0578 110.564C51.1804 111.75 50.2703 112.907 49.3766 114.079C49.2444 114.29 49.0757 114.476 48.8786 114.629C47.4069 115.571 46.6 117.146 45.3835 118.336C44.1669 119.527 43.0596 120.728 41.8781 121.939C41.5272 122.288 41.1002 122.553 40.6302 122.71C41.1479 121.867 41.7244 121.061 42.356 120.298C43.1802 119.449 43.9253 118.526 44.5817 117.541C45.2984 116.451 46.2062 115.477 46.9995 114.44C47.939 113.251 48.8856 112.075 49.8256 110.886C50.8071 109.501 51.8761 108.179 53.0249 106.929C53.458 106.346 53.821 105.713 54.1055 105.045C54.8825 103.747 55.637 102.423 56.4527 101.167C57.5679 99.4463 58.7373 97.6802 59.931 95.9721C60.4786 95.1808 61.1383 94.4623 61.7465 93.7088L61.3971 93.4334L57.8697 97.6732C57.7637 97.3432 57.745 96.9912 57.8151 96.6513C57.8856 96.3114 58.0426 95.9959 58.2706 95.7349ZM45.3115 119.778L46.9621 118.151C46.5001 119.316 46.2847 119.529 45.3059 119.796L45.3115 119.778ZM56.6013 97.6009C56.3444 98.8347 56.6392 100.035 55.4637 100.91C55.708 99.7544 55.2876 98.5275 56.5962 97.62L56.6013 97.6009ZM54.6713 99.8002C54.8461 100.781 54.1854 101.469 54.064 102.272C54.0009 103.174 53.6776 104.039 53.1338 104.762C53.1216 103.68 53.2039 102.599 53.3795 101.531C53.7047 100.882 54.142 100.296 54.6713 99.8002ZM37.6756 122.772C39.5243 120.64 41.4884 118.604 43.2446 116.405C44.0837 115.247 44.7906 113.998 45.3522 112.683C46.6 110.379 48.0404 108.185 49.6574 106.123C50.318 105.191 51.0552 104.311 51.7761 103.416C51.9709 103.215 52.1821 103.03 52.4078 102.864C52.3325 104.14 52.2825 105.261 52.2041 106.373C52.1372 106.565 52.027 106.74 51.8817 106.883C50.0465 109.284 48.2436 111.714 46.3734 114.094C45.197 115.603 43.9281 117.044 42.7172 118.532C41.9687 119.45 41.2436 120.394 40.5209 121.329C39.0487 123.293 37.2678 125.006 35.2472 126.4C35.3238 126.08 35.4415 125.77 35.5971 125.48C36.2726 124.531 36.9146 123.593 37.6864 122.734L37.6756 122.772ZM29.6847 119.782C29.4876 118.703 30.2337 117.897 31.8446 117.251C31.7978 118.71 30.4958 118.965 29.6955 119.745L29.6847 119.782ZM32.8785 114.719C32.7523 115.153 32.6257 115.587 32.4912 116.049L30.8765 116.428L30.7574 116.24L32.6187 114.593L32.8785 114.719ZM6.57301 158.408L5.99761 156.871C6.71331 156.24 7.36734 156.349 8.23964 156.797L6.57301 158.408ZM64.7109 115.604C66.0648 114.359 67.8248 113.646 69.6646 113.599C70.1916 113.538 70.7144 113.444 71.2302 113.318C72.5224 113.077 73.8465 113.058 75.1457 113.261C76.7225 113.433 78.3091 113.537 79.8822 113.616C83.2371 113.692 86.5949 113.687 89.9535 113.784C90.4875 113.894 91.001 114.088 91.4743 114.36L91.4317 114.715C91.1813 114.819 90.9239 114.904 90.6613 114.972C86.8747 115.711 83.075 116.426 79.3113 117.192C78.6357 117.333 77.9919 117.647 77.3336 117.834C76.1091 118.173 74.893 118.484 73.6619 118.811C72.6766 119.066 71.6516 119.248 70.6906 119.562C66.9936 120.772 63.1771 121.578 59.3068 121.967C58.0921 122.106 56.8868 122.315 55.6964 122.594C53.352 123.159 51.0487 123.9 48.6856 124.389C46.3225 124.877 44.0987 125.1 41.5543 125.474C41.8342 125.146 41.9743 124.84 42.207 124.744C44.536 123.775 46.9551 122.812 49.3696 121.97C50.5904 121.538 51.906 121.379 53.1735 121.032L60.9028 119.087C61.4971 118.943 62.1025 118.833 62.7038 118.701C64.9464 118.215 67.1828 117.727 69.4128 117.238C69.7141 117.153 70.0103 117.051 70.3 116.933L70.25 116.684L62.7412 117.659C63.5023 116.838 64.1101 116.227 64.7109 115.604ZM39.6743 133.087C37.8635 134.104 35.9031 134.863 34.0226 135.768C32.6724 136.398 31.3129 137.097 29.9879 137.816C28.9919 138.354 28.0266 138.963 27.0479 139.548C26.9086 139.64 26.7797 139.766 26.647 139.871C26.5881 139.721 26.5419 139.564 26.4928 139.417C28.6774 137.042 31.0321 134.829 33.5381 132.795C33.7087 132.685 33.8731 132.565 34.031 132.438C35.4709 130.986 37.1958 129.848 39.0978 129.095C42.15 127.718 45.3064 126.585 48.5375 125.706C50.3792 125.357 52.2396 125.117 54.1093 124.985C55.6529 124.779 57.1858 124.54 58.7242 124.282C59.4634 124.17 60.2104 124.029 60.9518 123.907L61.014 124.151L56.8601 125.765L46.7874 129.675C44.3374 130.639 41.9598 131.78 39.6743 133.087ZM38.5848 136.196C38.6166 135.734 38.6362 135.352 38.675 134.831L41.8986 133.11C41.4398 135.001 39.8589 135.37 38.5848 136.196ZM37.6135 135.596C36.7464 136.499 36.1213 137.698 34.7174 137.985C35.6672 137.218 36.1049 135.75 37.6135 135.596ZM58.3832 116.637C58.5794 116.489 58.8714 116.401 58.9761 116.216C59.5404 115.122 60.5972 115.113 61.6101 114.938C62.6235 114.762 63.4644 114.72 64.396 114.613L64.5166 114.832C62.8019 116.01 61.3438 117.539 59.3867 118.391C60.1156 117.222 61.4214 116.57 62.1609 115.435C62.1147 115.362 62.0633 115.292 62.0068 115.226C61.8358 115.261 61.6708 115.32 61.5162 115.401C60.3038 116.296 59.0887 117.2 57.8926 118.11C57.6291 118.303 57.396 118.535 57.2007 118.798C56.8517 119.259 56.4116 119.295 55.7669 119.26C56.4892 118.248 57.3731 117.362 58.3832 116.637ZM53.9892 118.723C54.5204 118.265 55.01 117.76 55.4515 117.216C56.1262 116.164 57.1741 116.009 58.3313 115.937L53.2417 120.06L53.0282 119.844C53.3244 119.46 53.6486 119.084 53.9892 118.723ZM54.7484 117.205L52.3269 119.231C52.0134 119.498 51.7168 119.78 51.4108 119.987C51.2127 120.188 50.9753 120.345 50.7132 120.449C47.2831 121.391 44.001 122.808 40.9633 124.658C40.5802 124.884 40.2761 125.225 39.9252 125.481C39.1992 126.006 38.4638 126.528 37.7247 127.029C36.9851 127.53 36.3979 127.615 36.268 128.517C36.1797 128.819 35.6915 129.055 35.399 129.287L34.1726 130.301C33.149 131.179 32.1875 132.126 31.0984 132.914C29.9491 133.836 28.8961 134.873 27.9561 136.008C26.2195 137.952 24.3264 139.751 22.2965 141.386C22.0629 141.558 21.855 141.763 21.6793 141.994C21.5789 142.129 21.5475 142.447 21.5971 142.522C21.7578 142.691 21.9736 142.798 22.2058 142.822C22.3754 142.871 22.5763 142.674 22.7683 142.577C23.8149 142.046 24.8245 141.444 25.7897 140.777C27.2726 139.828 28.8279 138.999 30.4416 138.295C31.8245 137.624 33.2644 137.071 34.9495 136.345C34.8472 136.603 34.7169 136.85 34.5613 137.08C33.9507 137.611 33.3877 138.192 32.878 138.82C32.3646 139.565 31.6311 140.131 30.7794 140.439C28.89 141.198 26.9904 141.923 25.0945 142.671C24.9581 142.747 24.8296 142.836 24.71 142.937C25.3804 143.234 25.8813 142.92 26.3816 142.748C28.4322 142.067 30.4752 141.342 32.5127 140.636C32.5785 140.655 32.6921 140.617 32.7463 140.571C34.1619 139.224 36.0091 138.749 37.6429 137.813C38.8609 137.145 40.1088 136.373 41.3782 135.74C42.6471 135.107 43.7123 134.752 44.892 134.216C46.4393 133.47 47.9535 132.663 49.4518 131.841C49.9181 131.547 50.3577 131.213 50.7656 130.843C50.1106 130.458 49.7564 130.794 49.3817 130.992L42.8569 134.422C42.7106 134.502 42.5578 134.57 42.2981 134.689C42.5125 133.953 42.6662 133.425 42.7966 132.697C48.9524 129.819 55.2516 127.259 61.6694 125.026C60.992 125.969 60.0688 126.708 59.0004 127.164C57.4553 127.929 56.0467 128.942 54.8316 130.164C53.6981 131.102 52.4853 131.94 51.2061 132.668C50.0447 133.353 48.8169 133.844 47.6124 134.466C45.7156 135.427 43.8552 136.44 41.9393 137.396C39.1067 138.76 36.2951 140.192 33.3835 141.37C31.0041 142.464 28.4784 143.208 25.885 143.575C25.3127 143.649 24.7502 143.787 24.2096 143.988C22.3623 144.532 20.4613 144.874 18.5401 145.008C18.1893 145.264 17.8385 145.519 17.4158 145.846L17.6124 146.752C14.7962 149.675 12.0043 152.585 9.11068 155.599L7.46923 155.121C7.63677 154.876 7.82098 154.642 8.02062 154.423C9.89123 152.778 11.8236 151.203 13.623 149.488C14.5308 148.487 15.383 147.438 16.1758 146.344C16.432 145.944 16.7814 145.612 17.1941 145.376C17.6067 145.14 18.0704 145.007 18.5456 144.989C18.4331 144.966 18.3226 144.934 18.2155 144.893C18.1084 144.804 18.0062 144.709 17.9092 144.61C18.2099 144.104 18.5594 143.571 18.8616 143.026C19.1382 142.54 19.384 142.038 19.5965 141.521C20.038 140.392 20.4637 139.248 20.8608 138.096C21.064 137.398 21.2696 136.691 21.4728 135.993C21.5718 135.782 21.6924 135.58 21.8321 135.392L21.854 135.317C21.3742 134.155 21.9274 133.028 22.1558 131.928C22.4847 130.378 22.9795 128.855 23.4902 127.347C24.2895 124.604 25.0884 121.861 26.1018 119.19C26.6811 117.526 27.4534 115.935 28.4032 114.451C31.1213 110.354 33.9862 106.35 36.8707 102.21C36.9959 103.014 36.8805 103.838 36.539 104.578C35.6303 107.381 34.6926 110.073 33.7694 112.821C33.6152 113.349 33.419 113.742 32.7304 113.859C32.4239 113.892 32.1468 114.21 31.8558 114.402L31.6539 114.251C31.9483 113.662 32.2711 113.081 32.543 112.465C32.8145 111.848 33.0158 111.263 33.262 110.629C32.6925 110.299 32.4402 110.604 32.2599 111.012C31.6184 112.441 30.9447 113.84 30.3603 115.286C29.1633 118.199 28.0584 121.15 26.8362 124.046C26.041 125.932 25.1038 127.745 24.2643 129.607C23.3159 131.427 22.5268 133.325 21.9054 135.281L21.8919 135.328L23.0851 134.745C23.5056 132.909 24.2335 131.157 25.2393 129.563C26.5624 127.118 27.679 124.566 28.5765 121.935C28.9036 120.813 29.744 120.597 30.8522 120.235C30.6116 121.009 30.3313 121.77 30.0136 122.516C29.4983 123.583 28.8498 124.581 28.3439 125.65C27.5529 127.312 26.8628 129.013 26.0812 130.677C25.6556 131.576 25.1076 132.439 24.6254 133.321C24.2741 133.966 23.9415 134.615 23.5995 135.262C22.922 136.568 22.2007 137.852 21.5676 139.181C21.2228 139.908 21.3948 140.091 22.0741 140.217C23.4336 138.782 24.6983 137.392 26.034 136.073C27.6304 134.492 29.3021 132.933 30.9457 131.366C31.4769 130.734 32.1842 130.274 32.978 130.045C33.1135 130.008 33.2391 129.941 33.3466 129.851C33.4541 129.76 33.5409 129.648 33.6012 129.521C34.3202 127.685 35.776 126.411 37.3579 125.02C37.4467 125.946 36.5506 126.176 36.5235 127.007C41.9724 122.691 48.1427 119.373 54.7484 117.205ZM57.7618 109.39C57.7151 109.551 57.7679 109.791 57.6273 109.852C56.9956 110.383 56.3299 110.873 55.6347 111.318C53.33 112.782 51.187 114.486 49.242 116.402C48.7632 116.823 48.2432 117.196 47.69 117.514C50.1185 114.656 52.8773 112.094 55.9089 109.884C56.4985 110.179 56.8045 109.726 57.1624 109.411L56.2191 109.136L57.9361 108.02C58.1856 107.886 58.4252 107.733 58.6518 107.564C61.3625 105.284 64.1624 103.225 66.9637 101.126C67.4622 100.75 68.1406 100.599 68.6685 100.262C69.1997 99.8949 69.7085 99.4967 70.1925 99.0695C69.6898 99.9547 68.9862 100.71 68.1383 101.274C67.2842 101.846 66.4783 102.487 65.728 103.19C66.1765 103.688 66.611 103.672 66.9268 103.396C67.686 102.654 68.634 102.134 69.6674 101.892C69.7828 101.849 69.8809 101.77 69.9477 101.667C70.478 101.107 70.9484 100.493 71.3507 99.8356C72.1197 98.3212 73.5143 97.3973 74.6094 96.2027C75.7045 95.0075 77.022 94.1028 77.8508 92.6976C78.0494 92.3666 78.5282 92.199 78.8422 91.9633C79.023 91.3582 79.272 90.7756 79.5836 90.2262C80.4559 89.0586 81.4333 87.9522 82.3821 86.8373C82.4466 86.7687 82.526 86.715 82.6139 86.6805C82.7017 86.6459 82.7961 86.6315 82.8905 86.6375C83.5039 86.8159 83.7823 86.4573 83.8921 86.0087C84.4546 83.6572 86.1431 82.0419 87.6895 80.3851C90.3016 77.5663 93.0356 74.8544 95.7286 72.1099C95.9486 71.8671 96.1887 71.6426 96.4457 71.439C99.0293 69.3714 101.49 67.1539 103.813 64.7987C105.096 63.5401 106.563 62.4841 108.164 61.6671C107.782 62.3127 107.428 62.9663 107.029 63.597C106.63 64.2273 106.274 64.5736 105.996 65.1063C104.872 67.0596 103.549 68.8915 102.049 70.574C100.774 71.9077 99.6572 73.3844 98.721 74.974C98.3435 75.6056 97.8823 76.1831 97.3507 76.6919C95.4767 78.8053 93.5888 80.8945 91.7051 83.005C89.6443 85.4462 87.4195 87.7439 85.0461 89.8821C82.9124 91.7261 80.7269 93.5034 78.5184 95.2536C77.891 95.7564 76.9295 95.896 76.4352 96.4678C75.989 97.113 75.4905 97.7204 74.9444 98.2839C73.3386 99.6162 71.8053 101.052 70.0972 102.242C67.8084 103.846 65.6051 105.649 62.8402 106.43C62.6772 106.458 62.5249 106.531 62.4006 106.639C61.1537 107.986 59.5423 108.942 57.7618 109.39ZM112.932 99.3632C110.475 100.244 108.005 101.1 105.532 101.966C102.758 102.833 99.9142 103.463 97.0325 103.85C96.0318 104.019 95.0413 104.293 94.0443 104.483C90.9762 105.218 87.9549 106.136 84.9966 107.23C82.7363 107.961 80.3844 108.372 78.0101 108.45C76.5847 108.495 75.1513 108.252 73.7269 108.155C71.4787 108.022 69.2226 108.134 66.9988 108.488C65.1744 108.745 63.3668 109.119 61.6036 109.445C61.3784 109.481 61.1485 109.496 60.6533 109.546C60.8696 109.32 61.099 109.107 61.3405 108.908C61.5466 108.763 61.8246 108.722 61.9862 108.554C63.6139 106.9 65.8481 106.712 67.9042 106.083C70.3289 105.346 72.7457 104.567 75.163 103.787C76.701 103.283 78.226 102.756 80.005 102.128C79.8397 102.398 79.6462 102.65 79.4281 102.88C78.8623 103.278 78.3274 103.717 77.8275 104.194C76.936 105.112 75.7391 105.673 74.4618 105.772C72.3005 106.165 70.1724 106.446 68.0275 106.783C67.8977 106.807 67.7757 106.945 67.4846 107.137C67.7304 107.248 67.9911 107.323 68.2583 107.362C69.8809 107.2 71.5095 107.019 73.1382 106.838C73.8563 106.761 74.5842 106.686 75.3163 106.633C77.2818 106.489 78.9968 105.413 80.8923 105.054C82.4466 104.709 83.9818 104.281 85.4913 103.775C85.7679 103.718 86.0482 103.684 86.33 103.671C86.565 103.637 86.8654 103.694 87.0158 103.564C88.0217 102.711 89.3144 102.699 90.4614 102.521C91.8298 102.285 93.1861 101.984 94.5545 101.748C95.2651 101.628 95.979 101.6 96.719 101.519C96.719 100.711 96.6802 100.598 95.8701 100.71C94.583 100.877 93.2982 101.178 92.0176 101.429L89.292 101.864C89.3971 101.547 89.5466 101.246 89.7363 100.971C90.4562 100.054 91.4967 99.443 92.6488 99.2614C94.6498 99.0663 96.6457 98.8903 98.6527 98.8501C99.9389 98.8254 101.25 99.0331 102.553 99.0541C103.486 99.0747 104.42 99.0285 105.346 98.9155C106.523 98.7773 107.678 98.571 108.861 98.3735C109.311 98.3403 109.763 98.3389 110.213 98.3679C111.148 98.388 112.082 98.4141 113.014 98.4463C113.273 98.4743 113.53 98.5215 113.781 98.5878L113.814 98.7918C113.536 99.0061 113.241 99.197 112.932 99.3632ZM86.5014 64.9681C86.4991 65.2226 86.5799 65.4714 86.4879 65.5774C85.966 66.2435 85.4217 66.8831 84.8961 67.5278C84.6424 67.8014 84.3986 68.3233 83.9309 67.891C83.4632 67.4587 83.7823 67.1016 84.0916 66.8131C84.7966 66.1488 85.3236 65.2184 86.5014 64.9681ZM44.4117 93.5342C46.2123 92.6523 47.9157 91.5851 49.4938 90.3494C50.1839 89.7733 50.8632 89.1627 51.5766 88.6445C53.5019 87.271 55.3146 85.7468 56.998 84.0863C59.8955 81.4159 62.4188 78.366 64.4993 75.0206C64.7319 74.642 64.8856 74.2209 64.952 73.7821C64.9445 73.438 64.8735 73.0986 64.7422 72.7803C64.41 72.8676 64.0148 72.855 63.7639 73.0478C62.0259 74.3419 60.2557 75.6065 58.6317 77.036C57.8595 77.7643 56.9989 78.3931 56.0706 78.9085C54.4256 79.7082 53.0768 80.9313 51.2454 81.421C51.1346 81.4505 51.0426 81.5564 50.9422 81.6195C49.5541 82.555 48.1932 83.5396 46.7556 84.3995C44.7887 85.5657 42.7522 86.6198 40.7507 87.7654C39.786 88.3028 38.8049 88.8252 37.899 89.4414C36.7506 90.2952 35.5102 91.0184 34.2011 91.5968C33.2555 91.9885 32.3356 92.4381 31.4451 92.9427C29.9403 93.7522 28.4462 94.5958 26.9493 95.4487C26.0191 95.9571 25.1155 96.5131 24.2433 97.1158C22.8211 98.1335 21.4606 99.2208 20.0614 100.266C20.0614 100.266 19.9198 100.225 19.7596 100.178C19.8367 99.9519 19.9343 99.7339 20.0516 99.5266C21.3854 97.5117 22.7384 95.5024 24.0681 93.537C25.6037 91.101 27.8243 89.1716 30.4523 87.9909C32.2468 87.2043 33.9764 86.2552 35.7956 85.455C37.6149 84.6553 39.6869 84.041 41.5725 83.1885C43.4577 82.3361 45.5068 81.204 47.4606 80.1877C48.4361 79.6839 49.3836 79.1008 50.3899 78.6671C52.7675 77.6368 55.0516 76.4025 57.2157 74.9777C57.8562 74.5221 58.4565 74.0127 59.0102 73.4544C59.7245 72.7933 60.3613 72.0478 61.0784 71.3774C62.8968 69.6669 64.731 67.9713 66.5629 66.2851C67.1067 65.7888 67.6823 65.3225 68.1939 64.7963C69.3833 63.5573 70.5504 62.2917 71.7147 61.035C72.8789 59.7787 74.0076 58.5733 75.1219 57.3124C75.5059 56.8722 75.954 56.3885 75.7101 55.7144C74.6015 55.2695 74.5949 55.2573 73.7867 55.8199C73.3139 56.1425 72.8775 56.5164 72.4612 56.8553C71.1774 57.7503 69.9543 58.6826 68.669 59.5462C67.6337 60.2759 66.5498 60.9346 65.4243 61.5163C62.8851 62.7511 60.2777 63.8332 57.7413 65.0587C54.7624 66.5031 51.8205 68.0301 48.8753 69.5352C47.4573 70.2579 46.0324 70.9685 44.6654 71.7976C42.5284 73.0917 40.4307 74.438 38.3722 75.8367C36.8151 76.8969 35.3509 78.0252 33.8414 79.2017C33.1345 79.732 32.4444 80.3086 31.7507 80.8636L31.5357 80.6886C31.8067 80.2152 32.1029 79.7596 32.3482 79.2684C33.818 76.3315 35.7125 73.6267 37.9714 71.2416C38.3036 70.8788 38.6156 70.4983 38.9072 70.1025C40.3578 68.2136 41.7706 66.3136 43.2283 64.4369C44.5944 62.6974 45.9931 60.9874 47.4008 59.2801C47.9058 58.6704 48.2609 57.874 49.2238 57.7657C49.3845 57.7405 49.5247 57.5052 49.6681 57.3633C50.289 56.6028 50.9795 55.8834 51.7294 55.171C52.262 54.5996 52.8539 54.086 53.4954 53.6397C55.9902 52.0637 58.8088 51.0698 61.7409 50.7313C63.1888 50.539 64.6235 50.179 66.0634 49.9433C66.8091 49.7262 67.5907 49.658 68.363 49.743C69.687 49.975 71.0349 50.0908 72.3823 50.2066C73.9834 50.1996 75.5732 50.4717 77.0804 51.0109C77.2229 51.0884 77.3808 51.1342 77.5425 51.1454C79.4682 51.1739 81.402 51.2453 83.3119 51.1874C86.1211 51.0637 88.9388 50.8401 91.7508 50.6356C93.9892 50.4689 96.2322 50.2519 98.4668 50.0633C98.9162 50.0306 99.3671 50.0287 99.8156 49.9648C101.764 49.7033 103.693 49.3341 105.647 49.1968C106.754 49.1198 107.919 48.7024 109.014 49.3686C109.175 49.4153 109.422 49.3747 109.623 49.3513C110.632 49.2253 111.65 49.1025 112.661 48.9363C113.021 48.9251 113.372 48.8149 113.674 48.6175C114.041 48.2935 114.511 48.1114 115.001 48.1035C115.27 48.0591 115.505 47.8107 115.764 47.6609C115.622 47.3841 115.441 47.1282 115.228 46.9018C115.01 46.7912 114.773 46.7225 114.53 46.6987C112.955 46.2403 111.389 45.7851 109.813 45.3267C109.038 44.963 108.243 44.6432 107.432 44.3683C105.836 44.0265 104.203 43.8949 102.573 43.9775C98.97 44.1292 95.3646 43.7688 91.8634 42.9075C91.6653 42.8501 91.4673 42.7922 91.2855 42.6783C89.5877 42.1129 87.9044 41.429 86.1683 40.9953C81.8108 40.014 77.307 39.8628 72.8929 40.5495L72.5243 40.5854C69.7954 40.8856 67.1062 41.4743 64.5021 42.3422C64.2437 42.4201 63.991 42.4799 63.5382 42.5933C63.6527 42.3599 63.7831 42.1349 63.9293 41.9197C65.2075 40.4818 66.4792 39.0318 67.7804 37.6205C69.082 36.2097 70.6751 34.7098 71.9501 33.1076C73.4129 31.1944 74.5594 29.0596 75.3476 26.7846C75.5027 26.3207 75.7143 25.8774 75.9773 25.4648C77.178 23.6974 78.3624 21.9151 79.6462 20.2128C81.0474 18.3011 82.1495 16.1875 82.9147 13.9446C83.0484 13.4721 83.2296 13.0143 83.4562 12.5785C84.8644 10.1775 86.4935 7.91288 88.3226 5.81387C89.5223 4.43486 90.538 2.87958 91.6565 1.39493C91.7322 1.30399 91.7882 1.19848 91.8214 1.0849C91.8546 0.971363 91.8644 0.852178 91.8494 0.734767C91.8349 0.617356 91.7962 0.504239 91.7359 0.402375C91.6756 0.30051 91.5948 0.212137 91.499 0.142718C91.1038 -0.186966 90.7464 0.128198 90.4156 0.349061C89.7237 0.792001 89.0416 1.2377 88.3258 1.62256C86.6355 2.54201 84.8555 3.31267 83.2539 4.3499C81.373 5.57181 79.6346 7.00889 77.8438 8.37959C76.282 9.50117 74.821 10.756 73.4764 12.1299C72.1982 13.5674 71.0755 15.1364 70.128 16.8104C68.1411 20.118 66.0686 23.37 64.005 26.6245C63.3018 27.7393 62.5057 28.7855 61.7078 29.9442C61.7475 29.2809 61.7895 28.6796 61.8288 28.0881C61.839 25.7959 62.1591 23.5157 62.78 21.3093C63.1271 20.1695 63.3649 18.9993 63.4911 17.8146C63.5097 17.6223 63.4864 17.4283 63.4228 17.2458C63.3598 17.0632 63.2575 16.8965 63.1238 16.7569C62.7487 16.4638 62.3614 16.8111 62.0778 17.1171C61.8428 17.3506 61.6339 17.6087 61.4541 17.8868C60.3361 19.9338 59.183 21.9604 58.1267 24.0765C57.5404 25.2455 57.2049 26.5386 56.6695 27.7426C55.8659 29.554 54.9937 31.2841 54.1037 33.0394C54.0626 33.1808 53.9579 33.2934 53.7893 33.5921L53.5659 32.883C53.2978 31.5184 52.8866 30.1856 52.34 28.9069C52.2162 28.6077 52.1531 28.2869 52.1541 27.963C52.1045 27.3967 52.1625 26.8103 52.0667 26.2608C51.7845 24.0645 51.728 21.845 51.8985 19.6372C51.9541 18.0174 51.9775 16.3915 51.9686 14.7597C51.9999 11.8082 52.4643 8.87719 53.3463 6.06017C53.6211 5.11757 53.807 4.05714 54.7587 3.49548C54.4508 2.44476 54.1957 2.19668 53.7094 2.56651C52.3765 3.5263 51.2351 4.72734 50.3446 6.10737C49.3205 7.92983 48.615 9.91335 48.2576 11.9728C47.9825 13.2586 47.4307 14.4693 46.6407 15.5209C45.3545 17.1757 44.5486 19.1522 44.3112 21.2341C44.1239 23.6336 43.9365 26.0331 43.9393 28.4471C43.9066 30.4213 44.079 32.3938 44.1538 34.4913C43.0073 33.0534 41.9393 31.8018 40.9306 30.4862C38.9852 27.9261 36.2474 26.4345 33.4868 24.9875C31.147 23.8917 28.926 22.5604 26.8568 21.0142C25.5449 19.968 24.1377 19.0372 22.7552 18.0931C22.4833 17.9016 21.9134 17.7154 21.8115 17.8187C21.5489 18.1503 21.3864 18.55 21.3429 18.9708C21.3242 19.2978 21.3794 19.6249 21.5046 19.9277C21.8082 20.8212 22.325 21.6276 23.0094 22.2776C24.2596 23.5717 25.5598 24.8701 26.7661 26.2435C28.8391 28.6679 31.1559 30.8732 33.6797 32.8251C36.0456 34.6122 38.0746 36.8054 39.6724 39.3021C41.1338 41.7161 42.3285 44.2819 43.2353 46.9541C43.8034 48.2253 44.1902 49.5698 44.3841 50.9489C44.4229 51.553 44.6509 52.1407 44.7397 52.7495C44.7976 53.1052 44.7784 53.4693 44.6845 53.8171C43.5273 57.438 41.1338 60.2796 38.639 63.3986C38.6325 62.8239 38.6208 62.5139 38.6371 62.2119C38.7404 60.3809 38.8656 58.5462 38.9506 56.7102C39.0469 54.6929 39.1053 52.665 39.173 50.7112C39.1931 50.257 39.2721 49.8098 39.2487 49.363C39.2137 48.5348 38.8581 48.35 38.1517 48.7374C37.9205 48.8644 37.6518 48.9088 37.4173 49.0451C37.1832 49.1814 36.8071 49.3485 36.6955 49.5918C36.2698 50.4904 35.9036 51.468 35.5518 52.4287C35.2 53.39 35.0519 54.1444 34.6823 54.9572C33.1237 58.4814 31.5325 61.9757 29.9482 65.4821C29.8524 65.8122 29.5824 66.0713 29.2638 66.6021L29.2203 65.8738C29.1077 63.2744 29.7665 60.767 29.9912 58.2045C30.2024 56.536 30.2958 54.8545 30.2696 53.1729C30.1851 51.7887 30.2066 50.4003 30.3336 49.0194C30.5434 47.5969 30.4682 46.1465 30.1131 44.7529C29.6997 43.4673 29.3082 42.1774 28.8797 40.9076C28.1831 38.803 27.4837 36.7078 26.7502 34.6234C26.1387 32.7042 25.0146 30.9881 23.4995 29.6595C23.1771 29.4134 22.9192 29.0927 22.7482 28.7253C22.5623 28.3117 22.2698 27.955 21.9008 27.6913C21.5317 27.428 21.0995 27.2669 20.6477 27.2244C19.8456 26.9915 19.2882 27.6063 19.5255 28.4424C19.7203 29.0624 19.982 29.6599 20.3062 30.2234C20.8935 31.1067 21.3004 32.0973 21.5036 33.1384C21.6218 34.0314 21.7405 34.925 21.7466 35.8162C21.8209 36.7247 21.8321 37.6364 21.7807 38.5463C21.5485 40.9939 21.2285 43.4266 21.0089 45.8678C20.7888 48.3089 20.6809 50.5063 20.4735 52.8694C20.1184 56.585 20.4113 60.3338 21.3387 63.9495C21.6443 65.1838 21.8853 66.4298 22.203 67.6571C22.3857 68.3644 22.7011 69.039 22.9295 69.7295C23.4967 71.045 23.7803 72.4651 23.7621 73.8979C23.6668 74.8367 23.6583 75.7825 23.7373 76.7227C23.8891 77.9001 23.8522 79.0943 23.628 80.2595C23.5028 81.3445 23.2762 82.415 22.9519 83.4579C22.1147 85.5937 21.4069 87.778 20.8318 89.9988C20.6043 90.6024 20.3095 91.1785 19.953 91.7163C19.7582 92.0688 19.4653 92.3722 19.2419 92.7163C18.1362 94.4399 17.0493 96.1686 15.953 97.8945C15.8508 98.0098 15.7407 98.1181 15.6234 98.218C15.5376 97.93 15.4763 97.6349 15.4402 97.3366C15.345 95.5911 15.2119 93.8344 15.2004 92.0828C15.1799 89.1319 15.2499 86.187 15.2671 83.2473C15.2726 82.6339 15.2251 82.0214 15.125 81.4164C14.7362 78.9925 14.1867 76.5934 13.9559 74.1542C13.8501 72.4273 13.4869 70.7262 12.8782 69.1062C11.5513 65.8986 10.1081 62.738 8.71081 59.5607C8.43456 58.9281 8.22198 58.2531 7.88485 57.6541C6.89748 55.9147 5.82638 54.1817 4.83747 52.4834C4.20297 51.4297 3.54142 50.3989 2.87706 49.3775C2.57301 48.9106 2.09703 48.8233 1.89801 49.2253C1.41002 50.1982 0.516788 50.9811 0.579532 52.2061C0.538886 52.7775 0.462125 53.3461 0.349764 53.9082C0.110513 55.7148 -0.00628612 57.536 0.000207916 59.3586C0.201149 61.4267 0.539961 63.4794 1.01431 65.5022C1.39773 67.3826 1.98117 69.2089 2.34965 71.1057C2.90318 74.3339 3.39065 77.5435 3.77796 80.8156C3.92854 82.9075 4.19666 84.9891 4.58112 87.0512C4.90372 88.4027 5.05065 89.7953 5.35438 91.1412C5.59274 92.5954 5.98747 94.0197 6.53176 95.3894C7.63812 97.8576 8.50749 100.425 9.12816 103.057C9.93785 106.046 9.63983 109.228 8.28884 112.016C8.07168 112.456 7.88149 112.91 7.71932 113.373C6.74475 116.403 5.79573 119.45 4.81172 122.477C4.14831 124.543 3.42154 126.581 2.73924 128.643C2.58203 129.131 2.60291 129.659 2.79825 130.133C2.99354 130.607 3.35057 130.997 3.80609 131.233C5.86259 131.832 8.33411 130.935 8.6504 128.654C8.7835 127.671 8.98295 126.635 9.18361 125.63C9.32919 124.656 9.55746 123.696 9.8659 122.76C10.5072 121.086 11.306 119.468 12.02 117.824C12.3313 117.107 12.6115 116.391 12.9133 115.671C13.9621 113.195 14.7282 110.565 16.9748 108.754C17.9555 107.719 19.0284 106.775 20.1805 105.934C22.5992 104.576 25.1024 103.375 27.6753 102.337C30.2827 101.255 32.85 100.076 35.377 98.8002C37.8051 97.7106 40.134 96.4141 42.3387 94.9249C42.9951 94.4077 43.6913 93.9436 44.4215 93.5365L44.4117 93.5342ZM39.2707 89.6151L39.3683 89.4904C40.7895 88.687 42.221 87.9172 43.61 87.0838C46.2562 85.4812 49.0659 84.1614 51.6093 82.386C53.0352 81.3898 54.6461 80.6722 56.1617 79.8244L56.3495 80.0938C55.2207 80.9822 54.1083 81.886 52.9824 82.7651C51.8565 83.6441 51.0066 84.4191 49.9774 85.1422C48.7043 85.9994 47.4508 86.7902 46.1833 87.6282C44.9162 88.4657 43.8487 89.2495 42.6732 90.053C42.1738 90.3984 41.6534 90.7789 41.0876 90.0516C40.6704 90.6052 39.7472 90.6841 39.9925 91.5637C39.486 91.8251 39.0852 92.3937 38.2648 92.1551C38.6526 91.7364 38.973 91.3386 39.3094 91.0273C39.4131 90.94 39.4982 90.8316 39.558 90.7098C39.6178 90.588 39.6519 90.4549 39.658 90.3191C39.6636 90.1832 39.6411 90.0478 39.5921 89.9213C39.543 89.7948 39.4678 89.6795 39.372 89.5833L39.2716 89.6463C38.6726 90.4026 38.0765 91.1496 37.471 91.8937C37.4519 91.9595 37.2538 91.9016 37.1388 91.9096L37.0641 91.9899C36.8193 92.4096 36.5632 92.8666 36.3357 93.2606L36.0858 93.0655C36.4142 92.7107 36.7361 92.3442 37.0641 91.9899C37.0641 91.9899 37.0916 91.8956 37.1029 91.8578C37.3182 90.5912 38.3526 90.1664 39.28 89.6179L39.2707 89.6151ZM34.8846 92.3069C35.1341 92.0114 35.599 91.8909 35.9615 91.7L36.1577 91.9409L33.6713 94.7148L33.3457 94.4973C33.861 93.7475 34.3291 92.9838 34.894 92.3097L34.8846 92.3069ZM33.2891 92.8652C32.7271 94.2111 31.8105 95.3792 30.6369 96.2451C30.8663 95.9132 31.0896 95.5692 31.3381 95.2428C31.5867 94.916 31.9044 94.5281 31.4858 93.9973L33.2891 92.8652ZM53.4594 68.2001C56.8569 66.7954 60.1057 65.0209 63.4738 63.5769C65.4907 62.6904 67.4361 61.6498 69.2922 60.4636C70.0327 59.9939 70.72 59.4267 71.4927 58.9869C70.6793 60.2386 69.5674 61.2679 68.2565 61.9822C67.0385 62.6507 65.7168 63.2884 64.461 63.9457C63.7359 64.3281 63.0267 64.7249 62.324 65.1343C59.3381 66.8831 56.3565 68.6538 53.38 70.4059C53.1903 70.4927 52.9945 70.5656 52.7946 70.6244C52.9235 70.1814 53.0058 69.8985 53.1515 69.3989C51.4771 70.0875 50.9473 71.9068 49.1878 72.6425C50.3848 70.7108 51.3785 69.0567 53.4594 68.2001ZM45.2307 72.4222C45.7021 72.1864 46.1912 71.9866 46.6935 71.8251C46.6935 71.8251 46.7131 71.7593 46.7238 71.7215C47.5312 71.0917 48.4529 70.6235 49.4378 70.3433C48.5903 72.2042 47.1378 73.7242 45.3166 74.656C45.7787 73.9824 46.2123 73.3722 46.6393 72.7499C46.8593 72.4152 47.1322 72.0758 46.7154 71.7499L46.6454 71.7803C45.575 73.136 44.5173 74.4847 43.4184 75.832C43.0433 76.3259 42.5186 76.6859 41.922 76.8586C42.1252 76.198 42.4966 75.6014 42.9998 75.1271C43.2713 74.8278 43.7249 74.4996 43.7156 74.1799C43.7992 73.1206 44.543 72.8153 45.2307 72.4222ZM42.5845 77.9921C44.2342 77.071 45.7497 75.9781 47.3181 74.9515C48.0736 74.466 48.6781 73.6192 49.7999 74.0888C49.9414 74.1299 50.3072 73.8577 50.4511 73.6444C50.8908 72.9922 51.4888 72.4628 52.1891 72.1048C54.2153 70.9456 56.2416 69.7864 58.2314 68.5759C60.2211 67.3649 62.1698 66.0503 64.2568 64.858C65.2599 64.2599 66.3592 63.823 67.5767 63.2263C67.4323 63.5116 67.4477 63.6694 67.3249 63.7053C64.8656 65.3313 63.0458 67.6445 60.9332 69.6272C58.8368 71.7583 56.4887 73.6267 53.9406 75.1906C52.8932 75.7653 51.7411 76.2074 50.695 76.7419C48.1366 78.0425 45.6156 79.3543 43.0288 80.647C41.4557 81.3753 39.8196 82.0041 38.1844 82.7347C36.0961 83.6511 34.0212 84.5914 31.8511 85.4018C33.4349 84.1451 35.0967 82.9719 36.5824 81.6657C38.3587 79.9939 40.5293 79.112 42.5471 77.9814L42.5845 77.9921ZM28.6186 84.871C29.7212 83.7907 30.9891 82.8813 32.1884 81.8907C34.2688 80.1153 36.4413 78.4501 38.6965 76.902C39.9612 76.0738 41.2203 75.2639 42.4822 74.445L42.5812 74.5963C41.7566 75.7064 40.9128 76.8105 40.0962 77.9636C39.9621 78.1125 39.7953 78.2288 39.6084 78.3025C37.7182 79.0308 36.3399 80.4603 34.7982 81.6783C33.0635 83.2856 31.2246 84.7762 29.2927 86.1404C28.2065 86.8472 27.2436 87.5894 26.2233 88.3868C24.7095 89.5245 23.5672 91.0856 22.9417 92.8722C22.8057 93.1799 22.6413 93.4744 22.4502 93.7517C21.0757 96.0817 19.6914 98.4094 18.3668 100.744C17.5237 102.226 16.4867 103.588 15.2831 104.796C15.28 104.562 15.3033 104.329 15.3527 104.101C16.0726 102.367 16.7924 100.634 17.5499 98.9113C17.827 98.2764 18.2213 97.6956 18.555 97.0771C19.3326 95.6364 20.0824 94.1878 20.8411 92.7415C21.1841 92.1257 21.3691 91.3512 22.3035 91.2345C22.5357 91.2103 22.7571 90.9063 22.951 90.6967C24.8408 88.7416 26.6605 86.7449 28.5812 84.8598L28.6186 84.871ZM73.7222 43.991C74.5061 43.1965 75.3186 42.4103 76.1212 41.6214C76.5553 41.1853 77.0477 41.2876 77.6555 41.4131C76.2838 42.6092 74.9453 43.6923 73.59 44.8318L73.3774 44.6474C73.4643 44.4149 73.5802 44.1946 73.7222 43.991ZM64.6259 44.0242C65.5696 43.6647 66.5601 43.4621 67.4949 43.2025L67.857 42.9089L69.9407 42.605L70.022 42.5364L70.0785 42.5532C71.7833 41.9565 73.568 41.6209 75.3728 41.5569C74.9659 41.9706 74.7281 42.2591 74.4449 42.4939C73.2139 43.3039 72.059 44.224 70.9938 45.2426C70.9111 45.3514 70.6387 45.3029 70.3201 45.343C70.8686 44.0914 72.3024 43.7721 72.6808 42.5429C70.9041 43.2329 69.7155 44.7478 68.1616 45.7277L67.9612 45.5363C68.3588 45.1203 68.7265 44.7366 69.1348 44.2828C69.5436 43.8286 69.8902 43.5513 70.2416 43.1526C70.5934 42.7539 70.3289 42.6769 70.1047 42.499L70.029 42.4771C69.4016 43.0513 68.7643 43.6227 68.1298 44.1848C67.4954 44.7464 66.8661 45.3612 66.2279 45.9014C66.0924 46.0153 65.891 46.0386 65.5663 45.9238C66.1387 45.364 66.6759 44.7842 67.2683 44.2613C67.4917 44.119 67.6678 43.9149 67.7762 43.6741C67.8846 43.4332 67.9201 43.1657 67.8785 42.9047C67.8481 43.0083 67.7411 43.1307 67.6519 43.1559L67.4949 43.2025C66.7498 43.7936 66.0074 44.3748 65.2757 44.9906C64.8053 45.3752 64.3876 45.8262 63.8984 46.2053C63.6817 46.3084 63.4504 46.3794 63.2131 46.4149L63.0925 46.1959C63.4443 45.7973 63.8106 45.3822 64.154 45.0116C64.1246 44.9439 64.0886 44.8785 64.047 44.8169C63.8041 44.8524 63.5667 44.921 63.3429 45.0214C62.8094 45.3776 62.3137 45.7445 61.7769 46.1815C61.4242 46.4168 61.0252 46.5732 60.6066 46.6404C60.188 46.7071 59.7596 46.6833 59.3512 46.5699C59.5264 46.3551 59.5881 46.1787 59.7138 46.1334C61.3055 45.4102 62.9692 44.6876 64.6203 44.0433L64.6259 44.0242ZM72.8481 14.2886C74.9621 11.7885 77.4453 9.62489 80.212 7.87213C81.5015 6.9588 82.8124 5.97003 84.0884 5.1038C85.6693 4.10159 87.3218 3.2426 88.9902 2.32712L89.2238 2.57907C88.7505 3.35016 88.2277 4.08954 87.6582 4.79242C84.9942 7.74547 82.6751 10.992 80.746 14.4693C80.426 15.0408 80.2555 15.6967 79.9046 16.2695C79.0907 17.5871 78.2694 18.8615 77.3332 20.1434C75.7036 22.3553 74.3001 24.7253 73.1443 27.2174C72.5687 28.2944 71.9244 29.3331 71.2147 30.327C71.0344 30.5992 70.8354 30.8592 70.62 31.1048C69.7141 32.2117 68.7736 33.298 67.8991 34.4035C67.0245 35.509 66.0672 36.6518 65.2706 37.8418C64.3054 39.3212 63.1252 40.6494 61.769 41.7824C60.8855 42.4967 60.1352 43.3519 59.304 44.133C59.0733 44.3262 58.827 44.5013 58.5687 44.6549C58.5392 44.3519 58.5743 44.0461 58.6705 43.7572C58.7672 43.4682 58.9233 43.2025 59.1288 42.9775C60.8453 40.2456 62.651 37.5603 64.2816 34.7728C65.4509 32.7612 66.3213 30.5805 67.4491 28.5362C68.0971 27.3649 68.9741 26.3215 69.737 25.2141C70.3939 24.334 71.0022 23.4186 71.5591 22.4721C72.8457 20.1762 74.3777 18.0266 76.1278 16.0606C77.1145 14.957 78.0891 13.86 79.1132 12.8389C80.1373 11.8176 80.9754 10.9776 81.8626 10.0394C82.2397 9.65822 82.5994 9.23115 82.9521 8.86337C83.7081 8.06069 84.4668 7.17709 85.2549 6.33276C85.468 6.06139 85.6637 5.7768 85.8408 5.48064C85.5549 5.41472 85.2563 5.43376 84.9812 5.53544C84.706 5.63712 84.4668 5.817 84.2925 6.05289C82.8003 7.66378 81.3076 9.27466 79.8149 10.8855C78.1283 12.7773 76.5286 14.7559 74.8322 16.6449C71.8254 19.9421 69.6655 23.8436 67.0632 27.4018C66.3624 28.5087 65.7593 29.6744 65.2603 30.8854C64.5203 32.3373 63.8153 33.8088 63.0281 35.2466C62.1077 36.9319 61.1046 38.5827 60.13 40.2423C60.0231 40.3968 59.9053 40.5439 59.7773 40.6816L59.6199 40.5537C59.9983 39.705 60.3179 38.831 60.5762 37.9384C60.7972 36.9445 60.9308 35.9329 60.9757 34.9156C61.0481 33.8951 61.3373 32.9021 61.8241 32.0025C64.4236 27.2566 67.2623 22.646 70.3303 18.1883C71.0723 16.8704 71.8403 15.4986 72.8481 14.2886ZM53.6967 47.5736C53.7958 47.2342 54.612 47.0321 55.1296 46.835C55.7384 46.6152 56.3593 46.4308 56.9895 46.2818C57.4815 46.1791 57.9791 46.1016 58.479 46.0503C58.1739 46.6222 57.752 47.1236 57.2409 47.5227C56.7303 47.9219 56.1411 48.2094 55.5123 48.3672L55.075 47.8313C54.2985 47.8612 53.9392 48.462 53.4421 48.8695C52.9446 49.2771 52.703 49.8611 51.7925 49.7906C52.0148 49.518 52.1681 49.3784 52.2797 49.2066C52.6834 48.6287 53.4431 48.4097 53.644 47.5787L53.6967 47.5736ZM57.3661 28.3033C58.1744 26.442 58.8653 24.5265 59.6101 22.6368C60.167 21.0133 61.0733 19.5317 62.2661 18.2968C62.2866 18.5243 62.2852 18.7532 62.2614 18.9804C61.933 20.4595 61.5788 21.921 61.2504 23.4001C61.0948 23.9899 60.9878 24.5916 60.9308 25.1988C60.6781 28.7827 60.0758 32.3335 59.1321 35.8003C59.0625 35.9497 59.0163 36.1084 58.9948 36.2718C59.106 38.5948 58.1459 40.626 57.3591 42.7287C57.1447 43.4532 56.7877 44.1283 56.3102 44.7142C56.0397 44.9387 55.7407 45.1269 55.4207 45.2735L55.2707 45.0867C55.3833 44.7002 55.5496 44.3393 55.716 43.9789C56.3817 42.2212 56.7298 40.3595 56.7447 38.4804C56.8214 37.48 57.1811 36.4908 57.3222 35.4786C57.6474 33.3396 58.123 31.2262 58.7453 29.1543C58.7644 29.088 58.7056 29.0096 58.6322 28.8042C58.4869 28.9746 58.3524 29.1543 58.23 29.3415C56.9643 31.5096 56.8569 34.0548 56.1841 36.3642C55.8384 37.7489 55.6286 39.1639 55.5576 40.5892C55.5683 41.4454 55.3235 42.2857 54.8545 43.0023C54.8867 41.9075 54.9596 40.8142 54.9208 39.719C54.9101 38.8717 54.8129 38.0281 54.6307 37.2008C54.2962 36.009 54.3915 34.7373 54.8998 33.6085C55.6613 31.8359 56.5864 30.1011 57.3661 28.3033ZM51.3379 30.4148C51.8929 33.0403 52.4236 35.6799 53.0072 38.3138C53.6991 40.7484 53.5963 43.3403 52.7142 45.7132L51.023 46.5302C51.116 45.3664 51.1487 44.1983 51.1216 43.0308C51.0248 41.5714 50.7726 40.1177 50.5735 38.6588C50.3731 37.0057 50.1423 35.3503 49.8816 33.6925C49.8223 33.3307 49.8377 32.9605 49.9269 32.6052C50.0166 32.2495 50.1783 31.9162 50.4021 31.6253C50.6726 31.1879 50.9085 30.7299 51.1075 30.2561C51.2211 30.2888 51.3341 30.3219 51.3379 30.4148ZM51.0809 27.7837C51.143 28.2725 51.1912 28.6338 51.2 28.7795L49.4331 31.3331C48.9897 30.3252 49.7489 29.9321 50.0012 29.3822C50.1867 28.7416 50.5838 28.1833 51.1281 27.7977L51.0809 27.7837ZM50.8394 25.0653C50.9417 25.6268 51.0646 26.1533 51.1533 26.7618C49.7055 26.9546 49.9148 28.5899 48.773 29.1371C49.2215 27.7295 49.8064 26.3688 50.5193 25.0745L50.8394 25.0653ZM45.9417 30.2155C45.7535 28.2613 45.8619 26.2901 46.2636 24.3684C46.501 23.3433 46.5089 22.2618 46.6612 21.212C46.7734 20.196 46.9439 19.1873 47.1728 18.191C47.3606 17.4455 47.6615 16.733 48.0647 16.0782C49.484 13.6816 50.4647 11.0516 50.9613 8.31129C51.1122 7.39772 51.5271 6.54812 52.1545 5.86685L52.3765 5.98258C52.3241 6.38327 52.233 6.77799 52.105 7.16122C51.1407 9.4881 51.1468 11.9951 51.0136 14.4206C50.88 16.846 50.8198 19.4767 50.7492 22.0023C50.7296 22.7021 50.7842 23.3928 50.8039 24.0631C49.5859 24.7314 49.3799 26.0007 48.5702 27.0232C48.3333 26.6063 48.2203 26.3281 48.48 25.8924C49.0094 25.0239 49.4443 24.1279 49.9171 23.2429C49.9863 23.0451 50.0451 22.8437 50.0928 22.6396C49.904 22.5847 49.7345 22.5353 49.6761 22.6308C48.445 24.011 47.2574 25.3834 47.5896 27.4737C47.7933 28.9293 48.1254 30.3639 48.5819 31.7607C48.9528 33.0016 49.2089 34.2742 49.3471 35.5617C49.6616 37.9949 49.9737 40.4374 50.176 42.8683C50.2222 43.6731 50.2259 44.4798 50.1886 45.2851L49.9531 45.3906C49.7756 45.2263 49.4878 45.0914 49.4331 44.8916C49.2215 44.0989 49.0528 43.2954 48.9271 42.4845C48.6136 40.9253 48.118 39.4085 47.4499 37.965C47.0588 36.931 46.771 35.861 46.5898 34.77C46.2795 33.2789 46.0595 31.7705 45.9305 30.2533L45.9417 30.2155ZM37.7691 30.9059C37.2042 30.2099 37.7462 29.5801 37.7289 28.7267C38.5283 29.4601 38.511 29.6595 37.7639 30.9251L37.7691 30.9059ZM46.3678 51.27C46.3772 50.2967 46.4384 49.3247 46.551 48.3583C46.4304 48.3845 46.1767 48.413 45.7717 48.469C45.2255 47.2874 44.6626 45.9887 44.1342 44.7104C43.5394 43.239 43.0302 41.7208 42.3588 40.2675C41.3436 38.2979 39.9691 36.5356 38.3059 35.0702C35.6938 32.4801 33.0098 29.9615 30.3028 27.4154C29.8543 26.9882 29.3376 26.6539 28.8564 26.2686C26.6124 24.3605 24.6021 22.1935 22.8678 19.8131C22.7884 19.7111 22.7328 19.5923 22.7062 19.4658C22.6791 19.3393 22.6814 19.2083 22.7123 19.0827C23.4275 19.6486 24.1699 20.1918 24.8903 20.7388C27.6197 22.8491 30.5663 24.6625 33.6806 26.1482L34.3403 26.4831C35.4803 27.1012 35.4303 27.097 35.1864 28.3551C35.0855 28.878 34.7258 29.5507 35.6153 30.116C35.8456 29.3243 36.0489 28.6263 36.2442 27.9574C36.7693 27.8747 37.0678 28.1151 36.8795 28.4798C36.1316 29.9592 36.966 30.9587 37.9125 31.9601C39.38 33.5459 40.6947 35.2672 41.8384 37.1C41.9444 37.2246 42.043 37.3558 42.1336 37.4926C43.7422 40.7516 45.6474 43.8725 46.7486 47.3626C46.942 47.9937 47.0967 48.6366 47.2116 49.2864C47.2933 49.7089 47.4732 49.8634 47.9484 49.603C47.7437 47.2235 47.0182 44.9177 45.8226 42.8496C45.0653 41.4435 44.379 40.0065 43.5586 38.6429C42.5999 37.086 41.5221 35.5865 40.4905 34.0697C40.192 33.6272 39.8588 33.2089 39.494 32.8186C39.1459 32.4965 38.9259 32.0595 38.8754 31.588C38.8245 31.1165 38.9459 30.6426 39.2179 30.2538C39.9714 30.9419 40.6886 31.6697 41.3665 32.433C42.2813 33.5781 43.1147 34.7919 43.9356 36.0127C44.2524 36.4828 44.5103 36.9907 44.7032 37.5239C44.9349 38.1336 45.4652 38.4207 45.8338 38.8754C46.4505 39.6896 46.9472 40.5882 47.3078 41.5434C47.9769 43.2516 48.5595 44.9751 49.107 46.7496C49.178 47.1922 49.1878 47.6427 49.1369 48.0876C48.6534 48.3766 48.0652 48.6044 48.3151 49.3621C48.5651 50.1198 48.8552 50.1431 49.4518 49.8868C49.734 49.7271 50.0008 49.5413 50.2479 49.3312C50.8894 48.8373 51.5958 48.434 52.347 48.1319C51.9083 48.4592 51.5308 48.8621 51.2332 49.3214C50.809 50.2691 50.0778 51.0474 49.1575 51.5291C48.7809 51.7677 48.5165 52.0791 49.0715 52.5268C49.9634 52.0296 50.8632 51.5039 51.7901 51.0273C52.8184 50.4699 53.8738 49.9648 54.953 49.5138C56.5737 48.8415 58.2295 48.2584 59.9133 47.7659C61.3359 47.4116 62.78 47.1483 64.2362 46.9784C66.6521 46.6586 69.0965 46.3472 71.5166 45.9775C73.1578 45.7184 74.7776 45.3206 76.4324 45.0144C77.2014 44.8701 77.976 44.8089 78.7352 44.6619C80.5778 44.308 82.0752 45.245 83.6319 45.9429C84.3028 46.2403 84.9172 46.695 85.7025 46.1773L86.3986 47.3C86.6084 47.2482 86.8014 47.2533 86.9097 47.1623C87.1532 46.9079 87.4694 46.7347 87.8156 46.667C88.1614 46.5993 88.5197 46.6399 88.8416 46.7832C88.9122 46.8196 88.9888 46.8421 89.0677 46.8491C92.1722 46.7295 95.2777 47.2748 98.392 46.8411C100.003 46.6147 101.649 46.5512 103.265 46.3771C103.803 46.2916 104.334 46.1698 104.855 46.0115C104.877 45.9364 104.902 45.8514 104.851 45.7445C104.653 45.6871 104.464 45.4579 104.278 45.4653C101.713 45.6292 99.1517 45.498 96.5901 46.0718C95.9818 46.1642 95.3632 46.1703 94.7535 46.0895C93.1571 45.9728 91.5654 45.8509 89.9788 45.7235C89.7484 45.7076 89.5354 45.5947 89.1457 45.5629L90.7141 44.1479C90.6674 44.0629 90.6328 43.971 90.5885 43.8762C90.3455 43.8734 90.103 43.9098 89.8713 43.9845C89.2191 44.3267 88.6234 44.7567 87.9619 45.0961C87.5657 45.2618 87.1569 45.3958 86.7397 45.4971C87.0583 44.4037 88.4006 44.5382 88.502 43.3818C88.245 43.3617 87.9866 43.3907 87.7404 43.4673C87.0247 43.8519 86.3328 44.295 85.6208 44.7011C85.1283 44.9873 84.6219 45.3206 83.9716 44.6717L85.6254 43.4551C85.3759 42.943 85.0597 43.0452 84.7578 43.203C84.2084 43.4696 83.6847 43.7861 83.1927 44.1484C82.8461 44.4261 82.5555 44.5461 82.2013 44.3202C80.789 43.4084 79.3108 43.7044 77.7947 44.0611C77.1196 44.2021 76.4572 44.3673 75.7942 44.5018L75.6914 44.2571L78.8025 41.1638C79.835 41.1298 80.8684 41.1606 81.8967 41.2563C84.5177 41.528 87.0873 42.1657 89.5317 43.1498C91.0725 43.8038 92.6698 44.3164 94.3041 44.681C94.377 44.7118 94.4526 44.7338 94.5307 44.7469C97.1955 44.837 99.8506 44.9957 102.494 45.0181C104.54 45.02 106.474 44.9177 108.402 45.8159C109.536 46.3505 110.752 46.7043 111.946 47.3481C111.626 47.4335 111.298 47.4886 110.967 47.5129C108.556 47.5876 106.153 47.8318 103.776 48.2435C101.647 48.5241 99.4572 48.6646 97.2946 48.8532C97.0498 48.8845 96.8003 48.863 96.5602 48.9158C94.5012 49.3555 92.3862 49.4685 90.2922 49.25C88.7809 49.2958 87.2732 49.4274 85.7773 49.6445C83.0857 49.7514 80.3844 49.855 77.698 49.7691C76.4833 49.5992 75.2817 49.3457 74.1025 49.0096C73.1288 48.8387 72.1141 48.8098 71.1844 48.7337L67.9051 48.434C65.1211 48.2734 62.3282 48.5222 59.6161 49.1725C57.7758 49.5558 55.9874 50.1548 54.2873 50.9559C53.2735 51.3672 52.34 51.954 51.5308 52.6902C51.1477 53.0422 50.8632 53.488 50.7039 53.9833C50.6011 54.4156 50.3731 54.8082 50.0479 55.1117C47.6008 57.3609 45.3872 59.852 43.4413 62.5457C42.5242 63.6894 41.5267 64.7665 40.4564 65.7678C40.0728 66.1927 39.7196 66.6432 39.3982 67.1165C38.1573 69.0021 36.7188 70.75 35.1061 72.3302C35.2261 70.7294 35.9185 69.2248 37.0571 68.0918C37.379 67.8663 37.6794 67.6114 37.9546 67.3304C38.2125 67.0068 38.3722 66.6338 38.9193 66.793C39.3155 66.9083 39.5743 66.687 39.7411 66.2552C39.9859 65.695 40.2793 65.1577 40.6185 64.6493C41.4973 63.1769 42.3859 61.7072 43.2558 60.232C43.3189 60.0154 43.3362 59.7442 43.4591 59.5345C43.6305 58.86 44.0066 58.2549 44.5364 57.803C44.8532 57.4898 45.0751 57.0934 45.1765 56.6597C45.305 56.0813 45.4647 55.5099 45.6544 54.9483C46.1968 53.8083 46.4403 52.5487 46.3622 51.2892L46.3678 51.27ZM29.1535 54.5454C28.9367 57.1513 28.6611 59.7498 28.3971 62.3421C28.3284 62.5774 28.2598 62.8132 28.2883 63.0672L27.8337 70.6342C27.8327 70.7556 27.8042 70.8751 27.7496 70.9834C27.6949 71.0917 27.616 71.1855 27.5188 71.2584C27.3931 69.6165 27.2894 67.9709 27.1572 66.3168C27.0792 65.4252 26.9796 64.5372 26.8493 63.6507C26.661 62.3996 26.4419 61.1494 26.2321 59.9024C26.1887 59.6629 26.2013 59.416 26.2695 59.1821C26.3377 58.9482 26.4592 58.7335 26.625 58.5546C27.0366 58.0196 27.3712 57.4319 27.8094 56.7723C26.8656 56.4977 26.697 57.6042 25.8373 57.5687C25.8397 57.1401 25.6776 56.6429 25.8518 56.3255C26.7657 54.6995 27.7557 53.1267 28.8428 51.3265C29.1647 52.3671 29.2703 53.4623 29.1535 54.5454ZM28.997 48.0582L29.3011 48.208C28.9456 50.5175 27.1604 52.0436 25.9775 54.1024C25.7696 53.8867 25.6477 53.6019 25.6351 53.3027C25.622 53.0034 25.7196 52.7098 25.9088 52.4768C26.9488 51.0142 27.979 49.5381 28.9998 48.0488L28.997 48.0582ZM24.1092 84.1217C24.211 83.6848 24.3367 83.2534 24.4857 82.8304C24.9146 81.38 25.1618 79.8823 25.2216 78.3716C25.3748 76.8371 25.3725 75.2919 25.2146 73.7578C24.9903 72.2103 24.7119 70.6361 24.4063 69.1566C23.7457 66.2958 22.9431 63.4654 22.3067 60.591C21.5896 57.3936 21.4625 54.0926 21.9316 50.8499C22.1783 49.1935 22.1666 47.5134 22.3609 45.8621C22.5576 43.7824 22.8202 41.7217 23.0262 39.6447C23.4159 36.4184 23.1393 33.1472 22.2142 30.032C22.1801 29.8159 22.1689 29.5964 22.1797 29.378C23.4383 30.3719 24.4479 31.6459 25.1277 33.0982C25.9126 35.0753 26.5568 37.1131 27.195 39.1392C27.8327 41.1652 28.384 43.1358 28.9587 45.1329C29.0928 45.5629 29.1867 46.0045 29.2395 46.4518C29.2586 46.6913 29.1895 46.9293 29.0447 47.1212C27.8991 48.4545 26.7049 49.7435 25.5416 51.1025C25.4257 50.9227 25.3716 50.7103 25.3874 50.497C25.4033 50.2841 25.4884 50.0819 25.6299 49.9213C26.149 49.1931 26.6386 48.4256 27.1067 47.6618C27.2497 47.3159 27.3548 46.9555 27.4197 46.5872C26.2868 46.9634 26.191 48.1011 25.1879 48.3817L24.8796 45.2249C24.1755 45.5003 24.2844 46.0741 24.3073 46.4182C24.3283 47.6105 24.4236 48.7934 24.5096 49.9736C24.6156 51.4362 24.8338 52.9007 24.8277 54.361C24.852 56.6112 25.0968 58.8534 25.5584 61.056C26.1214 64.2875 26.2784 67.4723 26.5456 70.6991C26.6409 71.954 26.4751 73.2247 26.462 74.4992C26.4405 75.311 26.4597 76.1243 26.4255 76.9426C26.4148 77.3474 26.3597 77.7493 26.2606 78.1419C25.9453 79.014 25.6855 79.9047 25.4837 80.8095C25.2543 82.429 24.7035 83.9863 23.863 85.3897C23.9555 84.9662 24.0195 84.5353 24.112 84.1124L24.1092 84.1217ZM29.617 77.2984C30.0445 76.2877 30.5542 75.311 30.9845 74.291C31.6479 72.7149 32.2739 71.1281 32.9285 69.5497C33.0677 69.2141 33.2307 68.8891 33.4162 68.5768C34.424 66.6936 35.0117 64.6147 35.1402 62.4831C34.9841 62.612 34.8519 62.7674 34.7505 62.9425C34.302 64.1311 33.8942 65.3211 33.4737 66.518C33.3475 66.9517 33.2209 67.385 33.0317 67.7902C31.7549 70.4862 30.4187 73.2471 29.1596 75.9893C28.8265 76.7101 28.5569 77.4604 28.2588 78.2017C28.1 78.7484 27.9407 79.295 27.7178 79.8132L27.3973 79.7199C27.4324 79.4272 27.5258 79.1443 27.6725 78.8884C27.8192 78.6326 28.0159 78.4085 28.2509 78.2302L28.27 78.1639C28.2219 78.0476 28.1079 77.9123 28.142 77.8301C29.254 74.8918 30.4196 71.9792 31.4844 69.0273C32.1202 67.3 32.5678 65.5181 33.1564 63.7772C33.6989 62.197 34.3263 60.641 34.9182 59.0649C35.2588 58.1415 35.5882 57.3273 35.8961 56.4455C36.4151 54.9805 36.8894 53.4927 37.4051 52.0375C37.5257 51.7453 37.7411 51.5021 38.0162 51.3461C37.9877 52.4624 37.9807 53.5753 37.9307 54.6957C37.8041 57.3787 37.6775 60.0616 37.4981 62.7497C37.4537 64.6049 36.8683 66.4069 35.8139 67.9349C34.758 69.3457 34.4001 71.031 33.7269 72.6038C33.6143 72.9903 33.4171 73.3521 33.2289 73.7168C32.4435 75.2881 31.668 76.8619 30.8382 78.4099C30.3192 79.3838 29.7113 80.3114 29.1073 81.3319C29.7824 82.0704 29.2937 82.6951 28.7279 83.2665C27.5954 84.379 26.4279 85.4709 25.1356 86.7108C25.3393 85.456 25.8696 84.2772 26.6736 83.2931C27.359 82.4262 27.9313 81.4757 28.3775 80.4654C28.8671 79.4524 29.1815 78.3371 29.6198 77.2886L29.617 77.2984ZM11.5219 68.8448C11.5851 69.1333 11.5955 69.4307 11.5526 69.7229C11.0407 71.0147 10.2576 72.1813 9.25617 73.1449C9.48715 71.474 10.7465 70.3476 11.2251 68.8098L11.5219 68.8448ZM10.7921 68.2234C10.1324 69.2589 9.45664 70.2789 8.78084 71.299C8.74515 71.4218 8.52234 71.4488 8.31252 71.5721C8.26917 71.3345 8.16886 71.1519 8.21792 71.0534C8.94852 69.5992 9.68305 68.1669 10.487 66.6012C10.9715 67.1511 11.1675 67.6375 10.8003 68.1954L10.7921 68.2234ZM8.38321 93.249C7.63817 90.5375 7.26213 87.7188 6.71041 84.9406C6.65071 84.3323 6.54951 83.7291 6.40762 83.1344C5.50701 80.5004 5.63675 77.7363 5.34251 75.023C5.04472 72.6804 4.52889 70.37 3.80174 68.123C3.25283 66.1432 2.6281 64.2128 2.0819 62.224C1.91772 61.5238 1.81737 60.81 1.78205 60.0915C1.66959 58.5458 1.66249 56.9893 1.49739 55.4483C1.48393 53.7887 1.77663 52.1407 2.36091 50.5871C6.11936 55.2489 7.94582 60.6064 10.2461 65.6721L7.64266 69.7617C7.7132 68.8887 8.00385 68.0484 8.48744 67.3182C8.8042 66.582 9.1304 65.8486 9.48252 65.0615C9.01822 64.7935 8.80411 64.9663 8.5984 65.3565C8.21497 66.1441 7.75992 66.8948 7.23905 67.5993C7.20971 66.7468 7.47503 65.9107 7.99035 65.2305C8.25665 64.8785 8.4431 64.5545 7.919 64.1059C7.48274 64.7254 7.09122 65.2963 6.52573 66.1133C6.00691 64.5923 5.62152 63.3865 5.16768 62.0989C4.65293 62.2152 4.58714 62.6867 4.71436 63.1633C4.91717 63.9075 5.22132 64.6194 5.46734 65.3556C5.80905 66.3957 6.13581 67.4522 6.47752 68.4923C6.81918 69.5324 7.10856 70.5058 7.51273 71.4722C7.91685 72.4385 8.60055 73.6393 9.06331 74.7555C9.29569 75.3204 9.4323 75.9198 9.46748 76.5295C9.65342 78.7717 9.78667 81.0191 9.92272 83.2571C10.0852 84.8425 10.0054 86.4429 9.68594 88.0045C9.49883 89.2066 9.53345 90.433 9.78812 91.6229C10.0974 93.7578 10.494 95.9795 10.8948 98.1517C11.1411 98.9827 11.2347 99.852 11.1709 100.717C10.1528 98.0994 9.06055 95.7368 8.39148 93.2209L8.38321 93.249ZM6.64771 129.453C6.44262 129.75 6.13978 129.967 5.79158 130.066C5.44338 130.164 5.07168 130.138 4.74076 129.992C4.61971 129.915 4.51693 129.813 4.43961 129.692C4.36228 129.572 4.31234 129.435 4.29323 129.293C4.27412 129.151 4.28636 129.007 4.32902 128.87C4.37172 128.734 4.44381 128.608 4.54029 128.502C4.74581 128.244 5.04009 128.072 5.36578 128.019C5.69141 127.967 6.02508 128.037 6.30157 128.217C6.81544 128.56 6.94537 129.028 6.65594 129.424L6.64771 129.453ZM10.7436 117.218C9.9044 119.08 9.02467 120.941 8.30533 122.849C7.78417 124.251 7.46783 125.723 7.08511 127.248L5.14073 126.898C5.17861 126.608 5.24145 126.321 5.32849 126.042C5.78494 124.897 6.29526 123.777 6.75167 122.632C7.80113 120.013 8.85064 117.394 9.85292 114.761C10.088 114.164 10.0766 113.466 10.2983 112.845C10.7104 111.677 11.2167 110.536 11.6598 109.366C11.8153 108.998 11.9054 108.605 11.926 108.206C11.9354 107.401 11.8477 106.578 11.826 105.774C11.7156 104.799 11.7947 103.812 12.0591 102.866C12.2255 102.235 12.2781 101.578 12.2145 100.928C12.1984 99.985 12.131 99.0439 12.0125 98.1083C11.8511 96.9062 11.6033 95.7195 11.3798 94.5197L10.6968 90.9978L12.6732 88.1473C11.7463 87.8163 11.6321 88.8056 11.0738 89.0012C10.7604 87.969 10.7257 87.8775 11.7311 86.5339C12.2554 85.8579 12.526 84.8939 13.5897 84.5792L13.4026 83.6764C12.1105 83.7912 12.1706 85.2711 11.1372 85.7272C11.0501 85.5302 11.0145 85.3145 11.034 85.0998C11.0535 84.8855 11.1273 84.6796 11.2486 84.5017C11.818 83.7062 12.4264 82.9528 12.958 82.146C13.1226 81.9341 13.2248 81.6806 13.2532 81.414C13.2552 81.0084 13.226 80.6036 13.1661 80.2026C12.4906 81.1512 11.8152 82.0998 11.1492 83.0517L10.8437 82.8706C10.4242 81.1844 11.9411 80.3679 12.6719 79.1592C12.6049 78.7918 12.3407 78.7152 12.063 78.9309C11.5291 79.3581 11.0381 79.8497 10.3723 80.4841C10.2626 78.9286 10.2143 77.5136 10.0732 76.0309C11.0638 75.3012 11.7607 74.242 12.0382 73.044C11.1882 72.4493 11.2203 73.6038 10.6599 73.6659C10.8478 72.6883 11.2763 71.7728 11.9066 71.0016C12.5758 71.5852 12.476 72.3839 12.5294 73.044C12.6552 75.1187 12.9478 77.1803 13.4045 79.2087C13.4277 79.4855 13.4187 79.7642 13.3774 80.0392C13.9295 80.9411 14.1984 81.9883 14.1493 83.0447C14.1756 83.9784 14.1493 84.913 14.0707 85.8439L13.9487 89.2136C14.1205 92.1365 14.295 95.0505 14.3048 97.9673C14.2146 99.0681 14.0042 100.155 13.6773 101.21C13.142 103.263 12.8342 105.368 12.7595 107.488C12.7562 107.885 12.9647 108.293 12.9143 108.678C12.7482 109.775 13.0578 111.03 12.6362 111.951C11.868 113.639 11.5134 115.489 10.7518 117.19L10.7436 117.218ZM21.4635 102.514C19.7829 103.681 18.1612 104.927 16.5152 106.187C16.1345 106.475 15.7873 106.824 15.2369 107.308C15.2778 107.039 15.3545 106.775 15.4648 106.526C16.4004 104.939 17.6548 103.563 19.149 102.485C20.0245 101.854 20.8552 101.162 21.6344 100.416C24.4474 98.2362 27.4001 96.2433 30.4743 94.4497C30.6135 94.3661 30.7583 94.2924 30.9069 94.2279L31.1209 94.3717C31.0158 94.6079 30.8915 94.8353 30.749 95.051C29.9482 95.9734 29.1853 96.9071 28.3144 97.7885C28.0378 98.0766 27.7272 98.3296 27.3889 98.542C25.4066 99.8674 23.4191 101.14 21.4719 102.485L21.4635 102.514ZM27.6146 100.438C26.7545 100.755 25.8729 101.012 24.9763 101.204L24.8693 100.938C25.2146 100.773 25.5365 100.58 25.8855 100.436C26.2345 100.292 26.4975 100.338 26.69 100.169C29.4829 97.6069 32.9827 96.1303 36.2269 94.3026C37.7915 93.4282 39.4697 92.7611 41.0161 91.9124C42.563 91.0637 44.0613 90.1701 45.5759 89.292C46.2422 88.9027 46.9266 88.5189 47.5634 88.0908C47.8474 87.8513 48.1067 87.5843 48.3375 87.2934C48.5595 86.9877 48.8309 86.7211 49.1406 86.5045C50.2259 85.8831 51.2038 85.09 52.0349 84.1558C52.8399 83.5354 53.6879 82.9724 54.5723 82.471C55.2553 82.02 55.8991 81.513 56.4976 80.9551C56.7793 80.591 56.9405 80.148 56.9587 79.6881C58.9943 78.0173 61.0271 76.3553 63.0566 74.7032L63.2191 74.8834C62.302 75.854 61.3849 76.8245 60.4608 77.7825L54.3307 84.1796C52.8871 85.6268 51.2879 86.9106 49.5625 88.0073C46.4575 90.0595 43.3717 92.1169 40.2237 94.1051C36.1764 96.4991 31.9656 98.606 27.6225 100.409L27.6146 100.438ZM76.0063 95.9034C76.1208 95.7326 76.2502 95.5715 76.3918 95.4226C77.3173 94.6691 78.2876 93.8675 79.2043 93.0398C79.8018 92.4983 80.3246 91.8629 80.8862 91.2695L82.0028 90.1421C82.2298 89.9517 82.4462 89.7481 82.6508 89.5334C85.6862 85.9275 89.0822 82.6306 91.7803 78.7428C92.4194 77.9459 93.1081 77.1901 93.8415 76.4791C95.3342 74.8685 96.6821 73.2971 98.1271 71.7439C98.678 71.1566 99.3105 70.6519 100.006 70.2458L100.314 70.56C100.14 70.806 99.994 71.06 99.8067 71.2817C98.6027 72.629 97.3964 73.9824 96.1887 75.3418C95.4426 76.1471 94.6176 77.0117 93.8803 77.8913C92.9585 78.9832 92.1269 80.1522 91.2066 81.2035C89.9811 82.6367 88.7164 84.0274 87.4447 85.406C85.738 87.2612 83.922 89.0338 82.2887 90.9516C80.7175 92.7774 78.8983 94.3755 76.8846 95.6985C76.758 95.7872 76.6146 95.8483 76.4632 95.8782C76.3119 95.9081 76.1558 95.9062 76.0049 95.8721L76.0063 95.9034ZM13.6615 88.6188L13.9758 89.1907C13.878 89.3158 13.7708 89.4377 13.4857 89.7845C13.4924 89.2341 13.4844 88.9456 13.4886 88.6501L13.6615 88.6188Z" fill="#212121"/>
</g>
</svg>
