<svg width="11" height="18" viewBox="0 0 11 18" fill="none" xmlns="http://www.w3.org/2000/svg">
<g id="Group 9">
<path id="Vector" d="M3.0941 2.93174C3.14895 4.70877 3.20309 6.48582 3.26225 8.26271C3.28803 9.03643 3.31923 9.81006 3.35923 10.5832C3.37959 10.9775 3.60693 11.2208 3.98705 11.2981C4.40776 11.3837 4.83174 11.4593 5.25766 11.5117C5.89801 11.5905 6.21428 11.3942 6.42906 10.7649C6.54881 10.414 6.632 10.047 6.69513 9.68086C7.09475 7.36446 7.48766 5.04689 7.87328 2.72812C7.93423 2.36166 7.97061 1.98763 7.97695 1.61637C7.98663 1.05018 7.78777 0.84425 7.22379 0.784114C7.05337 0.765941 6.87747 0.749784 6.70901 0.77125C6.22583 0.832827 5.74516 0.914136 5.2635 0.987706C5.26167 0.975692 5.25983 0.96365 5.25799 0.951637C4.77611 1.02524 4.28954 1.07703 3.81351 1.17819C3.26168 1.29543 3.09655 1.51439 3.08064 2.07149C3.07246 2.35791 3.08522 2.6451 3.0941 2.93174ZM4.26207 2.37754C4.81007 2.06871 5.91552 1.85112 6.75936 1.89713C6.76885 2.02873 6.80545 2.1701 6.78465 2.30243C6.367 4.96151 5.96484 7.62354 5.39485 10.3683C5.04302 10.3056 4.79865 10.262 4.57123 10.2214C4.40534 9.47373 4.21594 4.54109 4.26207 2.37754Z" fill="#1E6621"/>
<path id="Vector_2" d="M5.18123 17.1402C6.28243 16.956 7.0161 15.9269 6.84126 14.8117C6.73027 13.868 5.83303 12.9513 4.54163 13.1059C3.44425 13.2374 2.68087 14.2888 2.83517 15.4006C2.99502 16.5524 4.04429 17.3304 5.18123 17.1402ZM4.71175 14.2418C5.1811 14.1691 5.63746 14.4863 5.73034 14.9499C5.82985 15.4465 5.48332 15.9276 4.97072 16.0044C4.49204 16.0761 4.0449 15.7685 3.94955 15.302C3.85099 14.8198 4.21079 14.3195 4.71175 14.2418Z" fill="#1E6621"/>
</g>
</svg>
