<svg width="116" height="120" viewBox="0 0 116 120" fill="none" xmlns="http://www.w3.org/2000/svg">
<g id="Group" opacity="0.1">
<path id="Vector" fill-rule="evenodd" clip-rule="evenodd" d="M107.262 83.4785C106.68 84.5837 106.023 85.6474 105.295 86.6621C104.62 87.6417 103.735 88.493 103.13 89.5192C102.025 91.4399 100.631 93.1784 98.9974 94.6736C97.2747 96.2246 95.8662 98.0905 93.7594 99.2449C92.2479 100.098 90.8678 101.167 89.6621 102.417C86.8925 104.959 83.8287 107.159 80.5363 108.971C77.8748 110.596 75.1015 112.03 72.2369 113.262C68.1746 115.011 64.0191 116.527 59.8752 118.078C59.0137 118.317 58.1264 118.45 57.2329 118.475C55.8128 118.615 54.3811 118.696 52.961 118.836C52.0764 118.93 51.2034 119.128 50.3071 119.186C46.9199 119.443 43.521 119.594 40.1337 119.898C37.0202 120.135 33.889 119.958 30.8217 119.373C29.9427 119.206 29.0506 119.121 28.1561 119.116C24.3369 119.14 20.5535 118.377 17.0398 116.877C15.5499 116.271 13.9785 115.886 12.3838 115.408C11.6254 115.244 10.8818 115.018 10.1606 114.732C7.83257 113.565 5.50456 112.493 3.35115 111.14C2.24302 110.643 1.30425 109.832 0.650665 108.807C0.107658 107.549 -0.100815 106.171 0.0453873 104.808C0.0279236 104.295 0.123138 103.785 0.32428 103.313C0.525421 102.842 0.827599 102.42 1.20939 102.079C1.90942 101.337 2.56999 100.558 3.18819 99.7464C4.49188 98.1837 5.6908 96.5278 7.11089 95.0818C10.162 92.1277 12.9361 88.8994 15.3986 85.4377C16.6441 83.5835 17.9361 81.636 19.3679 79.7701C21.6959 76.6565 24.1403 73.6245 26.4916 70.5108C26.8298 69.8792 27.0804 69.2045 27.2365 68.5051C27.8767 68.5051 28.4005 68.0619 29.0058 67.3389C30.9025 65.2181 32.6673 62.9826 34.2904 60.6452C37.0724 56.5286 40.1104 52.622 43.0786 48.6104C43.812 47.5959 44.4172 46.4997 45.1738 45.4968C48.2198 41.5475 50.9188 37.3414 53.2404 32.9256C54.0086 31.4446 54.9631 30.0569 55.871 28.6458C56.9187 26.9782 58.0128 25.3339 59.0837 23.678C60.0603 22.0268 61.1209 20.4271 62.2614 18.8851C64.5573 15.951 66.6054 12.8305 68.3841 9.55582C70.2232 6.33723 71.8761 2.93205 75.5194 1.25278C75.63 1.21562 75.7272 1.14667 75.7988 1.05453C76.4041 -0.309871 77.5681 0.00499162 78.5924 0.0982842C79.7304 0.20499 80.8494 0.459802 81.9215 0.856286C86.0248 2.23738 89.8601 4.31634 93.2589 7.00194C95.9943 9.2293 98.5202 11.6666 101.104 14.1155C102.836 15.4792 104.399 17.0451 105.76 18.7801C108.044 22.2294 110.064 25.847 111.802 29.602C113.805 33.5602 115.105 37.8379 115.643 42.2432C115.868 44.6377 115.98 47.0323 115.98 49.4267C116.045 51.0995 115.951 52.7745 115.701 54.4295C115.2 57.4266 114.467 60.4003 113.85 63.3973C113.606 64.5634 113.489 65.8812 113.175 67.094C112.698 68.8899 112.011 70.5925 111.569 72.4233C110.596 76.2729 109.149 79.9866 107.262 83.4785Z" fill="white"/>
<path id="Vector_2" fill-rule="evenodd" clip-rule="evenodd" d="M107.262 83.4785C106.68 84.5837 106.023 85.6474 105.295 86.6621C104.62 87.6417 103.735 88.493 103.13 89.5192C102.025 91.4399 100.631 93.1784 98.9974 94.6736C97.2747 96.2246 95.8662 98.0905 93.7594 99.2449C92.2479 100.098 90.8678 101.167 89.6621 102.417C86.8925 104.959 83.8287 107.159 80.5363 108.971C77.8748 110.596 75.1015 112.03 72.2369 113.262C68.1746 115.011 64.0191 116.527 59.8752 118.078C59.0137 118.317 58.1264 118.45 57.2329 118.475C55.8128 118.615 54.3811 118.696 52.961 118.836C52.0764 118.93 51.2034 119.128 50.3071 119.186C46.9199 119.443 43.521 119.594 40.1337 119.898C37.0202 120.135 33.889 119.958 30.8217 119.373C29.9427 119.206 29.0506 119.121 28.1561 119.116C24.3369 119.14 20.5535 118.377 17.0398 116.877C15.5499 116.271 13.9785 115.886 12.3838 115.408C11.6254 115.244 10.8818 115.018 10.1606 114.732C7.83257 113.565 5.50456 112.493 3.35115 111.14C2.24302 110.643 1.30425 109.832 0.650665 108.807C0.107658 107.549 -0.100815 106.171 0.0453873 104.808C0.0279236 104.295 0.123138 103.785 0.32428 103.313C0.525421 102.842 0.827599 102.42 1.20939 102.079C1.90942 101.337 2.56999 100.558 3.18819 99.7464C4.49188 98.1837 5.6908 96.5278 7.11089 95.0818C10.162 92.1277 12.9361 88.8994 15.3986 85.4377C16.6441 83.5835 17.9361 81.636 19.3679 79.7701C21.6959 76.6565 24.1403 73.6245 26.4916 70.5108C26.8298 69.8792 27.0804 69.2045 27.2365 68.5051C27.8767 68.5051 28.4005 68.0619 29.0058 67.3389C30.9025 65.2181 32.6673 62.9826 34.2904 60.6452C37.0724 56.5286 40.1104 52.622 43.0786 48.6104C43.812 47.5959 44.4172 46.4997 45.1738 45.4968C48.2198 41.5475 50.9188 37.3414 53.2404 32.9256C54.0086 31.4446 54.9631 30.0569 55.871 28.6458C56.9187 26.9782 58.0128 25.3339 59.0837 23.678C60.0603 22.0268 61.1209 20.4271 62.2614 18.8851C64.5573 15.951 66.6054 12.8305 68.3841 9.55582C70.2232 6.33723 71.8761 2.93205 75.5194 1.25278C75.63 1.21562 75.7272 1.14667 75.7988 1.05453C76.4041 -0.309871 77.5681 0.00499162 78.5924 0.0982842C79.7304 0.20499 80.8494 0.459802 81.9215 0.856286C86.0248 2.23738 89.8601 4.31634 93.2589 7.00194C95.9943 9.2293 98.5202 11.6666 101.104 14.1155C102.836 15.4792 104.399 17.0451 105.76 18.7801C108.044 22.2294 110.064 25.847 111.802 29.602C113.805 33.5602 115.105 37.8379 115.643 42.2432C115.868 44.6377 115.98 47.0323 115.98 49.4267C116.045 51.0995 115.951 52.7745 115.701 54.4295C115.2 57.4266 114.467 60.4003 113.85 63.3973C113.606 64.5634 113.489 65.8812 113.175 67.094C112.698 68.8899 112.011 70.5925 111.569 72.4233C110.596 76.2729 109.149 79.9866 107.262 83.4785ZM95.7149 24.6459C96.0098 25.6152 96.2086 26.6112 96.3086 27.6196C96.3449 28.1528 96.5286 28.6652 96.839 29.0997C97.1493 29.5343 97.5743 29.8738 98.0662 30.0802C98.5318 30.3251 98.9741 30.6166 99.4979 30.9315C100.045 29.2522 99.0789 27.9344 98.7995 26.5234C98.4387 24.9565 97.9561 23.4202 97.3562 21.9287C96.7742 20.3661 96.1922 18.7684 94.4927 18.0338C94.25 17.9612 94.0003 17.9144 93.7478 17.8938C94.4578 20.2961 95.1213 22.4652 95.7149 24.6459ZM92.5256 18.4419C92.06 17.1708 91.5711 15.8181 89.7901 15.3983C89.9997 16.0163 90.1393 16.5644 90.3372 16.9959C91.3732 19.6081 92.4324 22.2086 93.4568 24.8208C93.674 25.3087 93.8115 25.8285 93.8642 26.3601C93.8642 27.2931 94.4578 27.5263 95.5403 27.7828C95.1678 26.6167 94.8652 25.6721 94.5626 24.7392C93.8642 22.6284 93.2822 20.506 92.5256 18.4419ZM95.1329 29.9985L95.6218 31.7128C96.1922 30.5933 96.1922 30.5933 95.1329 29.9985ZM78.8369 97.5307C79.561 97.3258 80.2234 96.9451 80.7656 96.4223C81.3077 95.8995 81.7128 95.2507 81.9448 94.5337C82.1659 94.5337 82.4569 94.6969 82.5966 94.6037C83.7856 93.8914 84.7905 92.9086 85.5299 91.7349C84.8548 91.4667 84.5754 91.8399 84.2611 92.1664L81.9331 94.4987L78.8369 97.5307ZM77.3004 100.784L77.6961 101.647C77.9173 101.647 78.0453 101.741 78.1385 101.647C81.2813 100.108 83.8537 97.7523 86.6008 95.6415C86.7222 95.4917 86.8082 95.3164 86.8525 95.1285C86.8969 94.9408 86.8984 94.7455 86.8569 94.557C86.6607 93.9456 86.4034 93.3556 86.0886 92.7961L77.3004 100.784ZM76.1364 101.367L67.3365 107.455L69.6645 108.003C71.5851 106.673 73.6105 105.321 75.5776 103.886C76.7184 103.117 76.7649 102.708 76.1596 101.367H76.1364ZM87.1362 92.5046C90.9192 89.5075 93.4102 85.6709 96.2853 82.0675L95.3657 79.98C92.4674 83.7934 89.9065 87.5251 86.2399 90.4755L87.1362 92.5046ZM102.524 51.0127C102.292 54.0914 102.094 56.9135 101.849 59.7355C101.88 60.9216 101.711 62.1044 101.349 63.234C100.569 64.9249 101.605 65.5663 102.606 66.5692C102.855 66.154 103.047 65.7067 103.176 65.2398C103.63 61.6247 104.061 58.0096 104.445 54.3829C104.509 53.6916 104.359 52.9973 104.015 52.3944C103.672 51.7913 103.151 51.309 102.524 51.0127ZM105.399 51.794C105.271 49.2052 105.202 47.1294 105.05 44.9603C104.899 42.7913 104.655 40.5756 104.445 38.3832C104.439 37.5747 104.179 36.7886 103.703 36.1357C103.227 35.4829 102.558 34.9963 101.791 34.7448C101.966 36.7972 102.105 38.6748 102.303 40.5756C102.728 43.1608 102.892 45.7824 102.792 48.4005C102.751 48.8182 102.872 49.2359 103.13 49.5667C103.723 50.208 104.422 50.8261 105.399 51.794ZM100.336 65.9745C99.7657 67.5371 99.2884 68.9482 98.7297 70.3243C97.9615 72.2018 97.2514 74.1143 96.3202 75.9101C95.389 77.706 96.1107 79.1754 97.0768 80.9946C97.8702 79.9586 98.5639 78.8497 99.1487 77.6827C100.185 74.8839 101.081 72.0268 101.954 69.1698C102.292 68.0736 102.012 67.7704 100.336 65.9745ZM93.8642 78.5107C92.607 80.7031 91.3499 82.8721 90.0928 85.0412L90.3256 85.2044C90.6399 84.7613 90.9425 84.2948 91.2917 83.8633C92.2113 82.6972 93.1541 81.531 94.0853 80.3649C94.7604 79.4903 94.7372 79.3736 93.8642 78.5107ZM97.5541 67.7004C97.1355 70.4348 96.2827 73.0843 95.0282 75.5486C94.8303 75.9685 94.3181 76.4466 94.9234 77.0763C95.5869 75.6303 96.3086 74.2775 96.8557 72.8548C97.717 70.6158 98.4387 68.3301 99.2535 66.0678C99.4186 65.7135 99.4578 65.3133 99.3645 64.9337C99.2714 64.554 99.0515 64.2177 98.7413 63.9804C98.206 65.1744 97.7964 66.4212 97.5191 67.7004H97.5541ZM100.394 63.5139C100.627 61.5314 100.883 59.8405 101.011 58.1379C101.186 55.8756 101.244 53.6016 101.407 51.3392C101.476 50.4999 101.31 49.658 100.928 48.908C100.545 48.1581 99.9613 47.53 99.2419 47.0944C99.2419 48.692 99.3001 50.0914 99.2419 51.4792C99.1604 54.9776 99.0556 58.3828 98.9509 61.8346C98.9276 62.5227 98.9043 62.5227 100.359 63.5139H100.394ZM99.8006 46.0215C100.464 46.6746 101.093 47.351 101.744 48.0157L102.012 47.8174C102.012 46.6513 102.012 45.4851 101.838 44.319C101.488 41.3569 101 38.4182 100.674 35.4562C100.578 34.5287 100.239 33.643 99.6911 32.8893C99.1432 32.1356 98.4059 31.5406 97.5541 31.1647C97.7403 32.3309 97.9149 33.3687 98.0662 34.3716C98.3921 36.4824 98.753 38.5931 99.0207 40.7155C99.0825 41.4311 99.0275 42.1519 98.8577 42.8496C98.702 43.4071 98.7044 43.9971 98.8647 44.5532C99.0251 45.1095 99.3372 45.6099 99.7657 45.9982L99.8006 46.0215ZM96.425 32.2492L95.9826 32.3892C96.2736 33.2055 96.5647 34.0218 96.844 34.8264C96.969 34.3868 96.993 33.9244 96.9144 33.474C96.8357 33.0238 96.6566 32.5971 96.3901 32.2259L96.425 32.2492ZM99.1953 24.0861C99.6842 26.1852 100.196 28.2726 100.697 30.3717C100.804 31.1478 101.127 31.8779 101.629 32.4783C102.132 33.0785 102.793 33.5247 103.537 33.7652C103.281 32.4941 103.118 31.3396 102.815 30.2668C102.187 28.0161 101.512 25.7887 100.825 23.5614C100.653 23.06 100.37 22.6043 99.9974 22.2286C99.6244 21.8528 99.171 21.5669 98.6715 21.3923C98.8228 22.3136 98.9625 23.1765 99.1604 24.0278L99.1953 24.0861ZM103.851 30.8032C103.914 31.5664 104.019 32.3257 104.166 33.0772C104.414 34.0367 104.807 34.9528 105.33 35.7943C106.159 36.8898 107.044 37.9408 107.984 38.943C108.344 37.9401 107.856 34.7565 106.82 31.3513C106.149 28.7561 104.708 26.426 102.687 24.6692C103.071 26.8266 103.467 28.7508 103.816 30.7449L103.851 30.8032ZM106.924 40.1325C106.7 39.4528 106.353 38.8203 105.9 38.2666L105.481 38.4065C105.504 39.1879 105.504 39.9925 105.504 40.8205C105.729 43.9303 105.958 47.0399 106.191 50.1497C106.191 50.3946 106.354 50.6745 106.261 50.8611C105.26 53.0885 107.064 54.208 108.042 55.6423L108.426 55.549C108.467 54.9823 108.467 54.4132 108.426 53.8465C107.984 49.2168 107.483 44.6571 106.889 40.1091L106.924 40.1325ZM105.411 54.8843C105.306 56.0505 105.202 57.2167 105.108 58.3828C105.02 61.3148 104.554 64.223 103.723 67.0357C103.665 67.2523 103.65 67.4782 103.68 67.7006C103.71 67.9229 103.784 68.137 103.898 68.3301C104.445 69.1115 104.852 70.2076 106.296 69.9044C106.633 67.5721 106.994 65.2398 107.332 62.9075C107.38 62.016 107.481 61.1281 107.634 60.2487C108.263 57.9747 107.215 56.3537 105.411 54.8843ZM98.4271 81.1928C98.1035 81.6034 97.9352 82.1155 97.9523 82.6384C97.9693 83.1613 98.1705 83.6614 98.5202 84.0499C99.5199 83.1257 100.283 81.9737 100.743 80.6914C101.605 78.5107 102.606 76.3999 103.537 74.2542C103.805 73.6478 103.979 73.0064 104.27 72.4233C104.829 71.2572 104.48 70.4875 103.293 69.7995C102.904 70.494 102.573 71.2195 102.303 71.9685C101.469 75.2244 100.147 78.3347 98.3805 81.1928H98.4271ZM97.5308 87.8399C97.0768 88.3064 96.6694 88.6796 96.3086 89.0877C94.5626 91.1285 92.8166 93.1809 91.0589 95.2101C90.7622 95.5084 90.3993 95.7321 89.9997 95.8631C89.4293 96.0847 89.0801 95.8631 89.0568 95.2101C92.1402 93.0462 94.6949 90.2118 96.5297 86.9187C96.6177 86.7632 96.7232 86.6185 96.844 86.4872C97.9149 85.321 97.9149 85.0528 96.6461 83.5601L87.9161 93.5191C88.2537 94.8835 88.5679 96.1313 88.9055 97.5307C89.2517 97.3918 89.58 97.2116 89.8833 96.9943C92.2113 94.8719 94.4462 92.7611 96.6578 90.5687C97.0872 90.278 97.4038 89.8481 97.5542 89.3513C97.7047 88.8544 97.68 88.3207 97.4842 87.8399H97.5308ZM79.2792 106.359C81.6072 105.017 83.8304 103.805 85.9722 102.405C86.4896 102.162 86.9254 101.774 87.2271 101.287C87.5287 100.801 87.6832 100.237 87.6717 99.6648C87.495 99.8538 87.3043 100.029 87.1013 100.19C84.7733 101.752 82.4453 103.292 80.1173 104.854C79.64 105.169 78.9416 105.379 79.2792 106.359ZM78.9882 104.213C80.5524 103.596 82.0311 102.781 83.3881 101.787C84.5521 101.157 85.46 100.294 86.4844 99.5948C88.0674 98.4286 88.0791 98.4986 87.3341 96.3412L81.4093 100.889C80.6527 101.472 79.8845 102.055 79.0813 102.58C78.2781 103.105 78.4877 103.525 78.9882 104.213ZM67.1968 112.084C70.4112 110.763 73.4618 109.072 76.2877 107.047C76.8464 106.638 77.4517 106.219 77.184 105.286C77.1025 104.959 77.5099 104.504 77.8707 103.723C76.8115 104.306 76.0782 104.656 75.4147 105.087C73.4126 106.382 71.4338 107.711 69.455 109.029C68.8814 109.346 68.3827 109.782 67.9929 110.31C67.6032 110.837 67.3317 111.442 67.1968 112.084ZM56.7208 115.093C59.1652 114.417 61.5863 113.682 64.0307 113.064C64.4992 112.959 64.9358 112.743 65.3044 112.435C65.6729 112.126 65.9625 111.734 66.1492 111.291C65.78 111.309 65.4134 111.364 65.055 111.455C62.727 112.341 60.399 113.227 58.071 114.16C57.5939 114.424 57.1453 114.737 56.7324 115.093H56.6742C55.8478 114.662 55.8361 114.662 54.9049 115.268L56.7208 115.093ZM64.0074 111C63.0297 110.697 63.0297 110.697 61.9006 111.641L64.0074 111ZM59.9334 112.574L59.7472 112.154L56.162 113.507C57.5705 113.729 58.7112 113.017 59.9218 112.574H59.9334ZM52.6817 115.991L53.578 115.688L53.4034 115.315L52.5769 115.723L52.6817 115.991ZM56.1737 112.597L64.9619 109.099C65.3268 108.946 65.6302 108.675 65.8233 108.329C65.5248 108.312 65.2256 108.312 64.927 108.329C62.0054 108.493 59.4329 109.764 56.779 110.813C55.6335 111.203 54.4678 111.53 53.287 111.793C52.9261 111.909 52.5769 112.084 51.8902 112.376C53.5896 112.807 54.8467 113.122 56.1853 112.597H56.1737ZM52.4954 114.37C51.3314 113.892 47.013 115.046 43.9516 116.702C45.4593 117.046 47.0282 117.014 48.5201 116.607C50.012 116.2 51.3812 115.432 52.5071 114.37H52.4954ZM43.2765 115.536L50.796 113.227C50.9473 113.227 51.0521 113.006 51.1917 112.889C51.0753 112.154 50.7145 112.061 50.0277 112.236C48.1421 112.772 46.2215 113.204 44.3241 113.705C43.2998 113.974 42.2871 114.288 41.1115 114.627C41.3233 114.995 41.6558 115.279 42.0525 115.43C42.4491 115.58 42.8858 115.589 43.2882 115.455L43.2765 115.536ZM38.6205 116.924C38.6829 116.561 38.8133 116.212 39.0046 115.898C39.2025 115.699 39.6215 115.699 40.2385 115.536C39.7263 115.256 39.4353 114.953 39.1676 114.976C36.6883 115.175 34.1973 115.42 31.7063 115.676C31.5666 115.676 31.4269 115.828 31.101 116.003C32.6026 116.924 35.338 117.227 38.6089 116.866L38.6205 116.924ZM30.0302 116.562C28.0863 114.976 25.8164 115.898 23.5583 115.688C24.4429 116.364 26.7593 116.714 30.0185 116.504L30.0302 116.562ZM7.91406 109.565C10.1086 110.347 12.3924 110.848 14.7118 111.058C15.6013 111.143 16.4839 111.287 17.3541 111.49C19.2165 112.073 21.1371 111.653 23.0228 111.828C24.2665 111.79 25.5108 111.88 26.736 112.096C27.5096 112.253 28.31 112.212 29.064 111.979C30.8449 111.564 32.6724 111.383 34.4999 111.443C37.5934 111.493 40.6781 111.1 43.6606 110.277C47.0945 109.495 50.5283 108.772 53.9504 107.944C56.2785 107.408 58.6065 106.883 60.9345 106.184C62.2283 105.701 63.4882 105.132 64.7058 104.481C64.6476 103.991 64.5894 103.583 64.5429 103.152C64.3539 103.123 64.1616 103.123 63.9725 103.152C63.0539 103.42 62.1521 103.743 61.272 104.119C58.2734 105.459 55.1557 106.513 51.96 107.268C50.3304 107.723 48.6077 107.886 46.9315 108.189C45.6395 108.411 44.3358 108.598 43.067 108.889C37.3411 110.19 31.4329 110.482 25.6069 109.752C23.2789 109.464 20.9083 109.192 18.4949 108.936C17.1562 108.796 15.806 108.644 14.4558 108.563C11.2828 108.21 8.15919 107.502 5.14372 106.452C4.24744 106.207 3.31623 105.717 2.47815 106.697C4.1173 107.918 5.93525 108.878 7.8675 109.542L7.91406 109.565ZM5.3998 99.6181C4.84108 100.388 4.34056 101.181 3.93316 101.776L4.77124 103.56C5.05061 104.119 5.41144 104.399 6.00508 103.921C6.35429 103.653 6.71513 103.408 7.07597 103.152C7.25057 103.63 7.41353 104.096 7.59977 104.563C7.65157 104.671 7.70989 104.776 7.77438 104.877C7.89322 104.966 8.02859 105.029 8.17247 105.063C8.31645 105.098 8.4658 105.103 8.61153 105.078C8.75738 105.053 8.89659 104.998 9.02079 104.918C9.14499 104.837 9.25161 104.732 9.33414 104.609C9.41201 104.474 9.5305 104.366 9.67286 104.301C9.81522 104.237 9.97423 104.219 10.1273 104.25C10.2805 104.281 10.42 104.359 10.5263 104.474C10.6326 104.589 10.7001 104.734 10.7193 104.889C10.7606 105.177 10.8983 105.442 11.1098 105.641C11.3213 105.841 11.5941 105.962 11.8833 105.985L13.7574 104.889C13.932 105.332 14.1066 105.775 14.3859 106.452L15.3521 106.72C15.3899 106.47 15.4728 106.229 15.5965 106.009C15.8176 105.764 16.1785 105.379 16.3647 105.437C16.551 105.496 17.1679 105.904 17.1912 106.184C17.2494 107.012 17.5055 107.431 18.0525 107.35L19.7287 105.822L20.8927 107.641L21.8123 107.805C23.8958 106.848 23.8958 106.848 23.9191 107.991C24.3079 108.045 24.7037 108.022 25.0831 107.921C26.7244 107.047 26.7127 107.023 28.0979 107.466C28.4355 106.883 28.8894 106.207 29.7042 106.463C30.0185 106.568 30.1931 107.117 30.5539 107.63C31.4386 107.548 32.6724 108.026 33.4989 106.72C33.6153 106.545 34.174 106.498 34.4534 106.603C34.9154 106.833 35.3523 107.111 35.757 107.431C36.0131 106.872 36.2459 106.359 36.4555 105.927C37.7126 105.624 38.12 106.498 38.6787 107.431L40.3199 106.184C41.9961 106.697 41.9961 106.697 42.904 105.472C43.9051 106.533 44.8596 106.195 45.8606 105.612C46.2493 105.404 46.6915 105.319 47.1294 105.367C48.0373 105.472 48.887 105.542 49.5272 104.691C49.7303 104.511 49.9897 104.408 50.2605 104.399C50.9473 104.318 51.6457 104.294 52.2976 104.248C52.3674 103.711 52.4256 103.338 52.4954 102.743C53.252 103.222 53.834 103.571 54.5441 104.003L55.8594 103.478L54.6954 101.146C55.8159 101.497 56.8398 102.104 57.6869 102.918L59.3631 102.324L58.4551 100.516L58.6996 100.294L60.8995 101.764L62.436 101.239L61.8773 99.8514C62.2032 99.7814 62.5175 99.6298 62.6106 99.7231C63.9492 101.006 64.9386 100.131 66.0328 99.3033C65.8931 98.6735 65.7651 98.0788 65.5788 97.2158C65.9304 97.3571 66.2726 97.5207 66.6032 97.7056C66.8631 97.9221 67.1081 98.1559 67.3365 98.4053L68.873 97.6123C69.2338 96.6677 67.9651 96.0497 68.873 95.1634C69.3735 95.5133 69.8857 95.8514 70.5142 96.3296L71.9227 95.5133C71.5153 94.7552 71.1777 94.0905 70.7587 93.4025C71.8528 92.5979 72.0274 94.0439 72.8655 94.0556C74.53 93.5774 73.2147 92.2014 73.5057 91.1635L75.3099 91.8982C75.7639 90.1373 77.6379 89.8457 78.5808 88.5863C79.2443 87.7466 79.8263 87.1636 79.0347 86.149C78.9649 86.0557 79.0347 85.8225 79.1395 85.496L80.804 85.8108C82.3871 84.8662 81.1532 83.5718 81.1183 82.3124L83.0971 83.2336C85.1108 81.9625 83.3881 80.5165 83.2252 79.1637C84.296 78.569 84.4939 79.9334 85.5532 79.9334C85.9571 79.3411 86.2417 78.6757 86.3913 77.9743C86.3913 77.3095 85.8092 76.6565 85.3087 75.6419L87.2177 76.0384C88.6029 74.0443 88.6029 74.0443 87.2177 71.712C88.0209 70.4642 88.6029 72.0385 89.3129 71.8869C90.8028 70.7207 88.8589 70.1143 88.9171 68.9365H90.5118C91.2219 67.9336 91.5361 66.9307 90.2325 65.9628C90.861 65.7762 91.4663 65.7762 91.7457 65.473C92.0045 65.0638 92.1823 64.6085 92.2695 64.132C92.1647 63.0708 90.7097 62.9658 90.9774 61.683L92.7002 61.8113C93.2356 60.1204 90.6515 60.3303 90.8494 58.651L92.7002 58.9892C93.189 57.998 92.5488 57.4266 91.8737 56.9134C91.4159 56.6253 90.973 56.3139 90.5467 55.9805C90.3605 55.7939 90.4187 55.3625 90.3721 55.0359C90.6515 55.0359 90.9658 54.8377 91.1986 54.9193C91.7134 55.1567 92.2113 55.4295 92.6885 55.7356C92.8308 55.1077 92.763 54.4503 92.496 53.8645C92.2289 53.2788 91.7772 52.7971 91.2102 52.4937C90.4303 51.9223 90.4187 51.934 90.3023 50.8728L92.1647 51.3042C92.7816 49.2751 90.1975 49.2401 89.9764 47.5959L91.5362 47.2227C91.9785 45.2752 89.5573 45.2169 89.2081 43.7942C89.988 43.2811 89.988 43.2811 92.0716 44.249C91.7806 42.698 89.86 42.628 89.4526 41.0654L91.2568 40.8905C90.6515 39.2695 89.2663 38.5581 87.9277 37.7418C88.2886 36.7972 88.9404 36.9605 89.5573 37.2054C90.1743 37.4503 90.6631 37.7418 91.187 37.0071C90.3489 35.3979 88.4166 34.8264 87.2643 33.5087L87.5785 33.0072L89.9065 33.4504C89.9065 31.328 87.1828 31.4562 86.787 29.4971L88.533 29.6604C88.7309 27.5963 86.4495 27.433 85.3436 25.6021L86.9965 25.4389C86.9965 25.3106 87.0664 25.1473 86.9965 25.089C86.6756 24.796 86.4251 24.4339 86.2638 24.0299C86.1026 23.626 86.0347 23.1906 86.0653 22.7567C86.0653 21.9754 85.3553 21.1474 84.9013 20.3544C83.1166 16.8948 81.3356 13.3925 79.5585 9.84736C78.93 8.6812 78.2781 7.41009 77.4983 5.91741C77.2655 7.79492 78.2549 9.03105 78.6623 10.4071C79.5469 13.6957 80.9088 16.8676 81.5723 20.1912C82.6548 25.5788 84.5056 30.8032 84.8548 36.3658C85.2215 39.6771 85.2683 43.0161 84.9944 46.3364C84.74 48.8936 84.6428 51.464 84.7034 54.033C84.5524 57.4446 83.9495 60.8211 82.9109 64.0737C82.3987 65.9278 81.8633 67.7704 81.2231 69.5663C80.5829 71.3621 79.8379 73.0647 79.1744 74.7557C78.9183 75.4437 78.7787 76.1784 78.5226 77.088C76.7416 77.5544 76.6369 79.6768 75.6126 81.0762C74.9956 81.9159 74.6348 82.9771 73.948 83.7467C72.1206 85.9613 70.0067 87.9221 67.6624 89.5775C67.1037 89.939 66.4984 90.1723 66.4984 90.9769C65.3344 91.4317 65.1947 93.3092 63.5535 93.146C63.259 93.184 62.9872 93.3243 62.7852 93.5424C59.9274 95.8022 56.7344 97.6004 53.3219 98.8718C51.6573 99.5482 50.0277 100.306 48.3632 100.948C47.4882 101.141 46.6254 101.387 45.7791 101.682C44.2068 102.307 42.5522 102.7 40.867 102.848C37.9872 103.363 35.0596 103.558 32.137 103.431C29.1008 103.443 26.0661 103.292 23.0461 102.977C20.1012 102.603 17.0864 102.51 14.2579 101.297C12.1278 100.388 9.88123 99.7464 7.69289 98.9651C6.47069 98.4986 6.10985 98.5802 5.3998 99.6181ZM8.18178 96.9709L7.79765 96.8777L7.5183 97.7523C7.65984 97.7871 7.80383 97.8106 7.94897 97.8222C8.03244 97.5428 8.09855 97.2585 8.14686 96.9709H8.18178ZM20.9858 80.843C20.4155 81.6243 20.8112 82.0092 21.6609 82.1957C21.6609 81.6476 21.6609 81.1928 21.6609 80.5281C21.3001 80.6797 21.0324 80.7031 20.9276 80.843H20.9858ZM30.9963 68.2951C30.9963 68.2951 30.9963 68.575 30.9963 68.8782C31.232 68.8127 31.4559 68.7104 31.6597 68.575C31.6597 68.575 31.5899 68.2718 31.5434 68.1086C31.3341 68.1428 31.1305 68.2056 30.9381 68.2951H30.9963ZM55.8827 32.6574C53.8922 35.6427 51.9251 38.6514 50.0627 41.6951C49.1198 43.2111 48.2934 44.8204 47.4436 46.3597C45.5696 49.8582 42.7876 52.6103 40.3549 55.619C38.6903 57.6598 37.1189 59.7705 35.5475 61.8696C34.7444 62.9308 34.011 64.027 33.2195 65.1115C32.8989 65.4704 32.6817 65.9098 32.591 66.3826C32.5913 66.6211 32.6424 66.8568 32.7408 67.0739C32.8391 67.2911 32.9825 67.4848 33.1613 67.6421C33.2951 67.7058 33.442 67.737 33.59 67.7333C33.7381 67.7294 33.8831 67.6908 34.0135 67.6204C34.1439 67.55 34.2558 67.4498 34.3403 67.3279C34.4248 67.2062 34.4796 67.066 34.4999 66.9191C34.5951 66.5217 34.7196 66.1318 34.8724 65.7529L36.3623 66.2544L37.9919 64.5984C38.3425 64.6507 38.6969 64.6741 39.0512 64.6684C40.2152 64.5868 40.4363 64.1903 40.285 62.9425C40.2759 62.7095 40.3075 62.4766 40.3782 62.2545C40.3782 62.1495 40.5411 62.0912 40.739 61.9046C41.0416 62.0445 41.3908 62.2428 41.7517 62.3711C42.4384 62.5926 43.0204 62.1728 42.7993 61.5431C42.5781 60.9134 42.4152 60.3769 43.0437 60.1787C43.4744 60.0271 44.0564 60.342 44.8014 60.5052C45.1045 60.3627 45.3412 60.1088 45.4626 59.7962C45.5839 59.4835 45.5807 59.1361 45.4532 58.8259C45.2437 58.1029 45.7093 57.7997 46.5357 57.9397C47.6997 58.1379 47.9907 57.7997 47.6997 56.6102C47.4087 55.4208 47.5601 55.3275 48.7823 55.4441C49.2452 55.436 49.7057 55.3774 50.1558 55.2692C49.7795 54.7542 49.4411 54.2124 49.1431 53.6482C49.0944 53.489 49.0837 53.3205 49.1121 53.1564C49.1404 52.9924 49.2069 52.8373 49.3061 52.7036C49.469 52.5637 49.9463 52.7036 50.2256 52.7736C50.5718 53.0085 50.9729 53.1492 51.3896 53.1817C51.1476 52.8095 50.9336 52.4198 50.7494 52.0156C50.4701 51.3276 50.8658 50.8494 51.6108 50.9311C52.0997 51.001 52.6002 51.5375 53.0309 50.6045C52.835 50.3766 52.667 50.1261 52.5304 49.8582C52.4028 49.4793 52.313 49.0887 52.2626 48.692C52.6448 48.595 53.034 48.5287 53.4266 48.4938C53.6245 48.4938 53.834 48.6571 53.997 48.7387C55.161 47.8757 54.8351 46.9545 53.997 45.7883L56.0922 45.4734C56.3134 44.9837 56.5927 44.4006 56.8488 43.8408C56.8488 43.0362 55.4171 42.7446 56.0922 41.8234C56.3366 41.4852 56.9652 41.4385 57.5821 41.1937C58.6647 39.3628 58.6647 39.3628 57.2795 37.8468C57.5123 36.5523 58.5366 37.4153 59.0604 37.0071C59.526 35.6777 57.7218 35.3745 57.8266 33.9635L59.6075 33.497C60.4921 32.2492 58.4435 31.6312 58.6879 30.4184C59.2583 29.8936 60.5271 30.1035 60.4223 28.9373C60.4223 28.5175 59.9334 28.1327 59.5144 27.503C58.1758 29.4271 56.9769 30.9781 55.8827 32.6574ZM61.1324 25.4272C60.9345 25.7537 60.6784 26.1969 60.7599 26.5001C60.9519 26.9788 61.2192 27.4237 61.5514 27.8178L61.9588 27.7129C62.0743 27.2189 62.1443 26.7153 62.1683 26.2085C62.129 25.882 61.9815 25.5781 61.7493 25.3456C61.6525 25.2981 61.5456 25.2754 61.4379 25.2795C61.3302 25.2835 61.2252 25.3142 61.1324 25.3689V25.4272ZM62.5524 29.9286C62.2731 31.2463 61.889 32.4591 63.2159 33.6836C62.8127 33.6888 62.4264 33.8469 62.1348 34.126C61.8432 34.4052 61.668 34.7846 61.6445 35.1879C61.4234 36.4241 61.0625 37.6369 60.9228 38.8847C60.9461 39.4561 61.0641 40.0197 61.272 40.5523C60.7224 41.5616 60.2477 42.6101 59.8519 43.6892C58.7231 47.3089 56.931 50.6862 54.5674 53.6482C53.2171 55.4674 52.0648 57.4615 50.5865 59.1875C48.4048 61.9617 45.7532 64.3301 42.7527 66.1844C40.5495 67.388 38.2843 68.474 35.9666 69.438C34.3783 70.1815 32.5861 70.3665 30.8799 69.9628C30.4157 69.8432 29.9249 69.8813 29.4846 70.0713C29.0443 70.2613 28.6794 70.5922 28.4471 71.0123C26.3868 73.7994 24.28 76.5399 22.0451 79.4786L23.663 79.6185C22.7551 82.1724 22.953 82.8138 24.9085 83.187C24.9085 82.1724 24.9085 81.1928 24.8503 80.1783C26.0143 79.6768 26.5149 80.4465 27.1085 81.0412C25.8514 83.2336 26.1307 84.0732 28.1445 84.2482C28.0513 83.2569 27.9699 82.2657 27.8884 81.2978C29.2619 80.9713 29.3667 81.0063 29.4947 81.9275C29.4904 82.4638 29.5411 82.9992 29.646 83.5252C29.7857 83.9217 30.228 84.2132 30.81 84.8662C31.2873 83.5601 31.6248 82.6622 31.974 81.5427C32.8238 81.0995 33.2312 81.8226 33.592 82.7088L35.1983 82.3357C35.1983 81.8109 35.1983 81.3328 35.1401 80.8663C35.1198 80.7458 35.1274 80.6222 35.1627 80.5053C35.1979 80.3882 35.2595 80.281 35.3429 80.1918C35.4262 80.1026 35.5291 80.0339 35.6433 79.9911C35.7576 79.9483 35.8802 79.9326 36.0015 79.9451C36.5253 79.9451 36.9327 80.1899 36.8047 80.8547C36.8175 81.0571 36.8567 81.2571 36.9211 81.4494L37.957 80.8663C38.2247 80.1083 37.2237 79.3387 38.1782 78.8139C39.1327 78.2891 39.2258 79.3736 39.6797 79.6185C41.4956 79.222 39.9242 77.0763 41.612 76.5865L42.5199 77.7527C42.8691 77.5194 43.486 77.3329 43.5792 76.9947C43.6732 76.6589 43.8742 76.3632 44.1516 76.1527C44.4291 75.9421 44.7676 75.8283 45.1156 75.8285C45.5087 75.7143 45.8683 75.5063 46.1632 75.2221C46.2447 74.1959 46.0469 73.0647 46.4193 72.8315C46.7918 72.5983 47.9325 72.7499 49.0965 72.7499C49.3257 72.3896 49.4984 71.9963 49.6087 71.5837C49.7717 70.6158 50.0277 70.0094 51.215 70.231C51.8902 70.3476 52.2743 70.0094 52.2394 69.1814C52.2394 67.5371 52.3441 67.4438 53.8806 67.9453C54.9282 67.1523 54.1483 66.3477 53.7642 65.4964L54.9282 64.4935L55.6964 65.7296C55.8614 65.7339 56.0247 65.6964 56.1712 65.6204C56.3178 65.5445 56.4428 65.4327 56.5346 65.2953C56.6264 65.1579 56.682 64.9996 56.6962 64.8349C56.7104 64.6703 56.6828 64.5047 56.616 64.3535C56.2552 63.6538 55.9758 63.0591 56.8605 62.3827C57.2329 62.6393 57.652 62.9075 58.1525 63.2224C58.3271 62.9075 58.6647 62.581 58.6297 62.3244C58.572 61.9741 58.6172 61.6145 58.7598 61.2895C58.9024 60.9643 59.1363 60.6878 59.4329 60.4936C60.108 59.9221 59.98 59.2458 59.4329 58.5811C59.1112 58.1509 58.8195 57.6989 58.5599 57.2283C58.3038 56.7152 58.4319 56.2954 59.1303 56.0622L60.5969 57.6131C61.2487 56.7269 61.7609 56.0272 61.435 54.931C61.1091 53.8348 61.1789 53.7648 62.4011 53.3217C62.5798 53.2012 62.7311 53.0446 62.8454 52.8618C62.9597 52.6789 63.0345 52.4741 63.0646 52.2605C63.1228 51.9689 62.8085 51.6191 62.6805 51.2809C62.2731 50.2897 62.5408 49.9632 63.6932 50.0098H64.2402C64.3556 49.7911 64.4567 49.5651 64.5429 49.3334C64.6593 48.9952 64.7408 48.6454 64.8688 48.1673C64.5794 47.896 64.3287 47.5859 64.1238 47.246C63.9615 46.9025 63.9405 46.5086 64.0656 46.1498C64.3916 45.6017 64.764 46.0332 65.1016 46.2664C65.2217 46.3145 65.3466 46.3496 65.4741 46.3714C65.9746 45.8583 66.3122 45.3218 65.6836 44.6921C65.2413 44.249 64.9736 43.7126 65.4857 43.3161C65.8 43.0712 66.4169 43.2111 67.1153 43.1761C67.6275 42.4997 67.5926 41.8001 66.6614 41.112C66.5034 40.9646 66.3813 40.7828 66.3046 40.5806C66.2279 40.3784 66.1987 40.1613 66.219 39.9459C66.4053 39.3628 66.9524 39.3278 67.5577 39.5377C68.1629 39.7476 68.2095 39.6893 69.2338 39.0013L66.7312 37.0888C67.5693 35.0247 68.5587 37.392 69.4783 36.7506C69.5884 36.5662 69.6554 36.3592 69.6743 36.1452C69.6931 35.9313 69.6635 35.7156 69.5872 35.5148C69.5111 35.3139 69.3905 35.133 69.2345 34.9855C69.0785 34.838 68.8914 34.7278 68.6867 34.6632C68.5354 34.5815 68.3143 34.5116 68.2444 34.3833C68.0698 34.0334 67.7905 33.602 67.8836 33.3221C68.0698 32.7507 68.5703 32.774 69.0476 33.0539C69.2804 33.1938 69.5481 33.2871 69.8391 33.427C70.6073 31.3746 68.1979 31.5729 67.9534 29.9286L68.5936 28.9607L70.1417 30.1268C70.4327 29.4971 70.619 29.0306 69.9439 28.6808C69.4666 28.4359 68.9777 28.2143 68.5005 27.9578C67.6857 27.503 67.6857 27.503 67.3365 26.3135C68.7799 24.9141 69.1756 27.4097 70.3745 27.1065C70.5841 26.0453 70.4677 25.1823 69.2105 24.7042C68.5968 24.4315 68.0458 24.0345 67.5926 23.538C67.3714 23.3281 67.4413 22.815 67.3831 22.4418C67.7555 22.4418 68.1746 22.2319 68.5471 22.3486C69.048 22.5765 69.5206 22.8622 69.9555 23.1998C70.5491 22.1853 70.3862 21.5906 69.4084 21.1357C68.7049 20.7979 68.0476 20.3706 67.4529 19.8646C67.1968 19.6547 67.1735 19.1766 67.0455 18.8151C67.4296 18.7568 67.8603 18.5585 68.2095 18.6868C68.8793 19.0178 69.5181 19.4081 70.1185 19.853C70.1185 19.0833 70.1185 18.5352 70.1185 18.1154L66.8709 15.958L62.4942 22.955C63.9376 25.2756 63.0413 27.6312 62.5524 29.9286ZM69.9671 16.2379C69.9671 15.2933 69.9671 14.7802 69.8973 14.1621C69.1174 14.0222 68.3725 13.4858 67.5693 14.5586L69.9671 16.2379ZM72.4698 6.90864C71.5036 8.15643 70.7237 9.24096 69.8857 10.2788C71.911 13.719 71.5036 17.4973 71.7481 21.2057C71.9227 24.4932 71.8878 27.7884 71.6433 31.0714C71.3338 36.7115 70.1559 42.2697 68.1513 47.5492C68.0192 48.0596 67.9181 48.5775 67.8487 49.1002C67.8062 49.4429 67.66 49.7644 67.4296 50.0215C66.9582 50.4272 66.5767 50.9273 66.3102 51.4897C66.0435 52.0521 65.8974 52.6643 65.8815 53.2867C65.8353 53.6419 65.7248 53.9857 65.5556 54.3013C64.0424 57.275 62.5757 60.2953 60.8995 63.2107C60.1774 64.3138 59.3511 65.3448 58.4319 66.2894C57.3959 67.4555 56.2901 68.6217 55.289 69.9278C54.9369 70.511 54.6444 71.1282 54.416 71.7703C53.7932 71.835 53.2011 72.0737 52.7071 72.4593C52.2132 72.8449 51.8373 73.3617 51.6224 73.951C51.4362 74.3825 50.796 74.6041 50.4584 74.9889C47.1876 78.3707 43.195 80.8197 39.3422 83.4085C37.7141 84.5527 35.8768 85.3641 33.9354 85.7962C31.994 86.2284 29.9867 86.2731 28.0281 85.9274C25.0295 85.5201 22.2058 84.2753 19.88 82.3357C17.8779 84.598 16.388 87.1286 14.5489 89.5542C15.1542 90.0207 15.5499 90.2189 15.8293 89.5542C16.1087 88.8895 16.4462 88.2364 17.4007 88.5863C17.4705 89.251 17.5287 89.8807 17.5869 90.4988L17.9361 90.5687C18.2038 89.7991 18.0642 88.7729 19.3679 88.7962C19.88 89.9623 19.4726 92.0031 21.7657 91.5017C22.3826 91.0235 21.7657 89.321 23.5234 89.8457C23.5234 90.5104 23.5234 91.1518 23.5234 91.8982L25.0715 92.1314C25.5604 91.6533 25.0715 90.5921 25.9911 90.5571C27.2831 90.5571 26.6895 91.8982 27.4111 92.5162L29.7391 92.6445C29.7391 92.0614 29.7391 91.5483 29.7391 91.0352C29.7391 90.5221 30.0069 90.0673 30.5772 90.0906C31.1476 90.1139 31.3222 90.5571 31.2291 91.1168C31.2334 91.3921 31.2685 91.6659 31.3338 91.9332L33.0682 91.6999C33.1518 91.5748 33.2147 91.437 33.2544 91.2918C33.3243 90.7087 33.1962 89.9157 33.9761 89.8341C34.9655 89.7408 34.6629 90.7203 34.9073 91.4667L36.502 90.9652C36.9909 90.3822 36.1063 89.216 37.2586 89.181C37.7242 89.181 38.2015 89.7991 38.7951 90.2189C38.844 89.9691 38.8712 89.7155 38.8766 89.4609C38.8766 88.9361 38.8766 88.4813 39.4702 88.2947C40.0639 88.1082 40.3432 88.5163 40.5411 89.0178C40.6483 89.22 40.7689 89.4147 40.9019 89.6008L42.904 88.7729C42.7644 88.3647 42.5316 88.0149 42.5898 87.735C42.675 87.3528 42.9044 87.0185 43.23 86.8021C43.3891 86.7684 43.554 86.7764 43.7091 86.8255C43.8641 86.8745 44.0038 86.9629 44.1146 87.0819C44.4987 88.0732 45.0109 87.5251 45.6278 87.2219C45.7326 86.6155 44.813 85.5659 46.2564 85.2394L47.2691 86.4056C49.0965 85.7642 47.5368 84.3998 48.0839 83.3502L49.1664 83.012C49.3875 83.7817 49.5738 84.4581 49.7833 85.2161L51.5526 84.4581C51.4013 83.9916 51.3082 83.5951 51.1568 83.222C51.0055 82.8488 50.796 82.0558 51.4246 81.8342C52.0531 81.6127 52.5886 81.8342 52.67 82.6389C52.747 82.9153 52.8647 83.1787 53.0192 83.4202C53.6944 82.4056 52.7282 81.566 53.0774 80.7264C54.3578 79.9917 54.3229 81.6127 55.1028 81.8925C55.9176 81.2745 56.5695 80.6564 55.906 79.5602C55.8049 79.4097 55.7673 79.2253 55.8012 79.0471C55.8833 78.7284 56.0623 78.443 56.3134 78.2308C56.4647 78.1375 56.9187 78.3008 57.07 78.4874C57.3364 78.8526 57.5664 79.2433 57.7567 79.6535C58.6763 79.6535 58.7927 79.222 58.525 78.4874C57.9775 77.5352 57.6773 76.4606 57.652 75.3621C58.5017 75.0355 59.0371 75.2454 59.2583 76.1317C59.398 76.6915 59.526 77.2979 59.689 77.9276C60.69 77.4028 61.4001 76.9714 60.9228 75.9218C60.6667 75.3504 60.3175 74.7557 60.9228 74.3125C61.2953 74.0676 61.9937 74.3125 62.7154 74.3125C62.6223 73.7644 62.5175 73.1464 62.4244 72.5283C62.5524 72.365 62.6106 72.2251 62.6921 72.1901C64.636 71.677 64.636 71.6887 63.5884 70.0094C63.4577 69.7716 63.341 69.5263 63.2392 69.2747C64.0424 68.1086 64.6011 69.5079 65.4392 69.2747C65.3111 68.9249 65.1714 68.6333 65.09 68.3418C65.0085 68.0502 64.9619 67.7237 64.8921 67.4089L66.2074 67.2339L66.7429 66.0678L65.5788 64.5868L65.7651 64.2253L67.5809 64.4701C67.9534 63.8521 68.0698 63.304 67.3598 62.7792C66.9291 62.476 66.6497 62.1145 67.1153 61.4964L68.5354 61.8463C69.6063 61.2166 68.5354 60.4352 68.7217 59.6656C69.2804 59.479 70.3513 59.479 70.2931 58.3128C69.8973 57.8697 69.5015 57.4149 69.1291 56.9718L69.3269 56.6102L71.1195 56.7269L71.6433 55.759L70.1883 54.033C70.1883 53.8931 70.3047 53.7648 70.3745 53.6249L71.9809 53.6482C72.7258 52.4821 72.7258 52.4821 71.8412 51.5258C71.4222 51.106 71.4221 51.106 71.6084 50.1031L73.1914 50.4646C73.366 50.0331 73.529 49.6016 73.7036 49.1119L71.3057 46.8612C71.3748 46.7324 71.437 46.6001 71.492 46.4647L73.4708 46.7212C74.2274 45.4851 74.2158 45.4035 73.2846 44.7271C72.8306 44.4122 72.3999 44.0741 71.8296 43.6426C72.2173 43.4449 72.644 43.336 73.0789 43.3239C73.5137 43.3119 73.9458 43.3968 74.3438 43.5726L74.9258 42.0799L73.11 40.6222C73.8316 39.6193 74.6348 40.4356 75.438 40.284L76.439 39.1179L73.3311 37.4736C74.3322 36.3891 75.2866 37.3103 76.3459 37.3803C76.4507 36.9372 76.5554 36.5057 76.6602 36.0975C75.9967 35.6194 75.3565 35.1763 74.7279 34.7448L74.8676 34.3483L76.9628 34.1384L74.0295 31.5145C74.984 30.3484 75.7173 31.6545 76.5903 31.6312C76.6837 31.4801 76.7413 31.3098 76.7588 31.133C76.7763 30.9563 76.7534 30.7779 76.6916 30.6114C76.6299 30.4448 76.531 30.2947 76.4025 30.1723C76.274 30.05 76.1193 29.9587 75.9501 29.9053C75.6688 29.8012 75.4086 29.6472 75.1819 29.4504C75.0068 29.1624 74.8698 28.8527 74.7745 28.5292C75.1281 28.4125 75.4899 28.3228 75.857 28.261C76.0803 28.2949 76.2942 28.3743 76.4856 28.4942C77.4401 26.745 75.6708 26.4068 74.8909 25.3922L76.5089 24.7392C77.0559 23.1066 74.9607 23.678 74.7861 22.4652L76.2411 21.7771C76.6485 19.7597 74.7163 20.2495 73.7851 19.6081C74.0528 18.3253 75.1935 18.9434 75.9152 18.5119C75.9152 18.0999 75.8686 17.6451 75.7755 17.1475L73.075 15.8997L75.2401 15.3283C75.4845 14.3837 75.0073 13.9872 74.1576 13.6723C73.5523 13.4508 72.6444 13.4858 72.528 12.2846L74.5766 12.0864C75.0888 10.2322 72.8422 11.0485 72.5512 9.75407L73.7152 9.00773C73.4126 8.44797 72.9936 7.78326 72.4698 6.92031V6.90864ZM75.3332 5.41596C75.0888 4.90285 74.7628 4.43639 74.0994 4.90285C73.4359 5.36932 73.5756 5.81246 74.0994 6.23227C74.8427 6.94033 75.3196 7.88349 75.4496 8.90277C76.7088 13.9561 77.5191 19.1112 77.8707 24.3077C78.261 29.9167 78.0386 35.5516 77.2073 41.112C76.4623 45.2169 75.8686 49.3568 74.8792 53.4266C74.169 55.9577 73.314 58.4458 72.3184 60.8784C72.2294 61.0368 72.1591 61.205 72.1089 61.3798C71.5851 64.7267 69.5481 67.4089 68.2328 70.4059C68 70.9307 67.9069 71.572 67.709 72.0502C67.5843 72.3643 67.4283 72.6652 67.2434 72.9481C66.6032 73.951 65.9862 74.9656 65.2878 75.9218C64.8873 76.43 64.4391 76.8987 63.9492 77.3212C61.6212 79.6535 59.2932 81.9858 56.7906 84.1199C55.4363 85.1951 53.9733 86.1253 52.4256 86.8954C49.1315 88.6912 45.8024 90.4638 42.4501 92.1547C38.9872 93.8512 35.1266 94.565 31.2873 94.2188C27.2482 93.904 23.2207 93.2393 19.2165 92.5979C17.9378 92.2796 16.688 91.8544 15.4801 91.3267C13.8738 90.767 13.8738 90.8603 12.7563 92.1081C11.8135 93.1693 10.6727 94.0555 9.62514 95.0351C9.41364 95.2563 9.21542 95.4899 9.0315 95.7348L10.277 96.5861C10.0566 97.2371 9.9045 97.9094 9.82303 98.5919C9.82303 98.7785 10.5564 98.9534 10.987 99.14C12.0696 96.5511 12.0695 96.5511 13.4664 97.0059C13.187 97.7873 12.9076 98.5919 12.5701 99.5598L14.2812 100.061C15.2589 99.3382 14.4907 97.2975 16.6092 97.729C16.4229 98.6969 16.26 99.5948 16.0621 100.679L17.9943 100.796C18.0656 100.158 18.1863 99.5262 18.3552 98.9068C18.4483 98.6619 18.9605 98.3004 19.1118 98.3703C19.2631 98.4403 19.7985 98.9068 19.7985 99.1983C19.7566 99.832 19.6394 100.458 19.4493 101.064L21.0789 101.297C21.1333 100.805 21.2426 100.32 21.4049 99.8514C21.5329 99.5948 22.0102 99.2683 22.1964 99.3382C22.5357 99.5048 22.8011 99.7915 22.9414 100.143C23.0461 100.434 22.9414 100.819 22.8366 101.437L25.5487 101.309C25.6522 100.764 25.7922 100.226 25.9678 99.6998C26.0499 99.5873 26.1545 99.4931 26.2746 99.4228C26.3947 99.3526 26.528 99.3079 26.6662 99.2916C26.8058 99.2916 27.0852 99.5482 27.1318 99.7464C27.2598 100.304 27.3532 100.868 27.4111 101.437H29.9021C30.1698 100.749 30.3793 100.271 30.5889 99.6414C30.9434 99.5597 31.3153 99.6076 31.6376 99.7766C31.9599 99.9456 32.2114 100.224 32.3465 100.563C32.8121 101.356 33.6153 101.321 33.9296 100.563C34.1507 99.9913 34.2089 99.2216 34.9888 99.3966C35.5554 99.6497 36.0425 100.053 36.3972 100.563C37.2004 100.773 37.9454 100.808 38.2597 99.6764C38.411 99.14 39.0512 99.1633 39.4237 99.5482C39.7962 99.933 39.7961 100.376 40.4945 100.26C41.1929 100.143 41.4723 99.6881 41.7284 99.0934C41.7982 98.9418 41.9612 98.8368 42.1474 98.6619C43.0786 99.0001 44.0098 99.828 44.9061 99.0817C45.1738 98.1954 45.2088 97.2625 45.558 97.1225C46.5357 96.7377 46.5474 97.8572 46.9199 98.2887C48.3167 98.6152 47.8511 97.1809 48.3632 96.7377L50.796 96.796C51.0288 95.9681 51.0055 95.1168 51.378 94.8719C52.2743 94.3004 52.4256 95.4783 52.8679 95.8048C54.16 95.8048 54.0319 94.5337 54.8351 94.0322L57.1631 94.452C57.4308 93.5424 56.5695 92.6445 57.5821 92.1197C58.1292 92.3763 58.8625 92.971 59.1652 92.7961C59.4678 92.6212 59.7355 91.7582 60.0265 91.1168L61.9122 91.3267C62.0054 90.3122 60.9228 89.0877 62.6921 88.7029L63.8561 90.1606C64.6011 88.8778 62.8202 88.4347 63.4254 87.1869C63.849 87.4369 64.24 87.7385 64.5894 88.0848C65.2413 88.8895 65.7534 88.6562 66.5101 87.8982L65.1016 85.461C66.3471 85.1345 66.7079 86.3006 67.6042 86.8837L69.1407 85.4843C68.5587 84.7146 68.0582 84.0732 67.4762 83.3269C68.8613 82.7788 69.3968 84.0966 70.3396 84.3998C70.5097 84.3412 70.6626 84.2416 70.7851 84.1097C70.9074 83.978 70.9955 83.8179 71.0416 83.6439C71.0876 83.4698 71.0902 83.287 71.049 83.1118C71.0078 82.9365 70.9241 82.774 70.8052 82.6389C70.4327 82.0325 69.9206 81.4727 69.5015 80.9363C69.2822 80.6052 69.0877 80.2583 68.9195 79.8984C70.8052 79.8984 71.2476 81.4377 72.4116 82.2307C73.1332 81.9975 73.3893 81.5427 72.8888 80.7963C72.5768 80.4239 72.2854 80.0346 72.0158 79.6302C71.9061 79.2833 71.8512 78.9213 71.8528 78.5573C72.2276 78.556 72.5992 78.6273 72.947 78.7672C73.3742 79.1146 73.7642 79.5054 74.111 79.9334C75.0538 79.0471 75.1702 79.6652 72.7608 75.8985C73.6221 75.3854 73.6221 75.3854 75.438 76.948C77.2771 75.2688 75.0306 74.3242 74.6581 72.9364C75.9268 72.3067 76.2178 73.7644 77.184 73.9977C77.9988 72.3417 76.148 71.6653 75.8454 70.4059C76.2062 69.8578 76.7067 69.8695 77.2422 70.3476C77.5448 70.6275 77.7893 70.9773 78.1035 71.2572C78.6041 71.7003 78.9649 71.4438 79.2675 70.814C78.9765 70.3359 78.639 69.7878 78.2898 69.2514C77.9406 68.715 77.6496 68.3651 77.3353 67.9103C78.6506 67.059 78.9765 68.6567 79.8612 68.575C80.4548 67.922 79.9427 67.4089 79.6284 66.9774C79.1858 66.4131 78.7739 65.8252 78.3945 65.2165C78.2432 64.9366 78.3945 64.5051 78.3945 63.7705L80.7575 65.543C81.6654 64.75 81.1416 64.027 80.6643 63.3273C80.1871 62.6276 79.5003 61.718 78.9067 60.8551C80.6061 59.8755 80.676 61.9279 81.6887 61.9396C82.6199 60.2487 82.6199 60.0504 81.5373 58.791C80.9903 58.1496 80.3733 57.6248 79.803 56.9718C79.4538 56.5986 78.9416 56.2138 79.5935 55.549C80.8389 55.8056 81.5606 56.9251 82.6082 57.6131C82.7582 57.4615 82.873 57.2789 82.9447 57.078C83.0165 56.8771 83.0432 56.6628 83.0233 56.4504C83.0033 56.238 82.9371 56.0325 82.829 55.8485C82.7211 55.6646 82.5742 55.5066 82.3987 55.3858C81.3977 54.3712 80.385 53.345 79.4072 52.3071C79.2202 51.996 79.0716 51.6631 78.9649 51.3159C81.0718 51.106 81.5024 53.345 83.1786 53.6482C83.3866 53.2813 83.4553 52.8514 83.3718 52.4379C83.2885 52.0242 83.0586 51.6548 82.7246 51.3975C81.8978 50.5532 81.1205 49.6616 80.3966 48.727C80.2235 48.4007 80.0981 48.0512 80.0241 47.6891C81.6654 47.5142 82.2358 48.8553 83.3299 49.5433C83.8304 48.5288 83.8886 47.7591 82.9109 47.0244C82.1139 46.3365 81.3633 45.5964 80.6643 44.8087C81.0834 43.7592 81.5723 44.2257 82.0728 44.5755C82.5733 44.9254 83.0506 45.1936 83.8421 45.7417C83.3881 43.561 81.5141 42.6164 80.8157 40.8671C82.3871 40.4007 82.5966 42.1382 83.749 42.2782C83.9328 41.8803 83.9527 41.426 83.8045 41.0135C83.6564 40.601 83.352 40.2635 82.9574 40.0741C82.3151 39.5814 81.7225 39.0268 81.1881 38.4182C82.4802 36.8439 82.7945 38.7214 83.5744 38.838C84.2611 37.4503 82.7712 36.9955 82.4104 36.0159L83.5162 35.771C83.3416 33.8585 80.6643 33.7069 80.4665 31.4213L82.9342 32.9139C83.3183 30.5816 80.8855 29.8703 80.4199 27.9578L81.9564 27.9928C82.2008 26.0569 80.1522 25.6604 79.3025 23.9462L80.7924 23.7246C81.0718 22.5002 80.3966 21.6489 79.3839 20.8559C80.5479 19.2582 79.7099 18.1037 78.7088 17.1592C78.8178 16.452 78.8178 15.7322 78.7088 15.0251C78.0221 12.6928 77.2189 10.3605 76.3808 8.02816C76.0811 7.13832 75.7314 6.26618 75.3332 5.41596ZM79.4771 4.24981C79.1224 3.81114 78.7331 3.40168 78.3131 3.02534L77.9871 3.24691C78.3247 3.8883 78.6739 4.51802 78.9765 5.18273C79.2792 5.84744 79.4538 6.53547 79.7681 7.17686C82.3289 12.1797 84.9362 17.1592 87.4738 22.1736C88.62 24.5844 89.5095 27.1095 90.1277 29.707C90.1277 29.9402 90.1277 30.2434 90.279 30.395C91.7573 32.0043 91.1171 34.1967 91.8621 36.0276C92.5297 37.9825 93.0931 39.9718 93.5499 41.9866L92.642 41.4735C92.642 41.5668 92.4906 41.7068 92.5139 41.7534C93.0116 42.4937 93.2378 43.3838 93.1541 44.2723C93.1541 44.2723 93.1541 44.4122 93.1541 44.4472C94.3181 45.8699 93.7361 47.6425 94.0388 49.2285C95.2961 54.9884 95.3239 60.9495 94.1202 66.7208C93.598 69.2358 92.8178 71.6899 91.7922 74.0443L91.6293 73.9743L91.7224 74.2076C91.4081 74.8489 91.0706 75.4903 90.6981 76.1201C88.9521 78.9771 87.0315 81.7409 85.2389 84.5747C83.8696 86.7674 82.1694 88.7344 80.1987 90.4055C79.6342 91.0196 79.1056 91.6659 78.6157 92.3413C76.1331 95.1787 73.2371 97.6241 70.0253 99.5948C68.4307 100.528 66.9524 101.659 65.3693 102.778L65.8815 104.026C66.0989 104.024 66.3148 103.988 66.5217 103.921C69.5597 102.51 72.5512 101.041 74.6697 98.2421C74.7745 98.1021 74.856 97.9155 74.9956 97.8339C78.2781 96.1546 80.7575 93.5191 83.2368 90.837C83.7665 90.0484 84.2077 89.2036 84.5521 88.3181C85.7161 88.4114 85.9838 86.9653 86.7987 86.1723C87.5078 85.4416 88.1254 84.6271 88.6378 83.7467C90.0695 81.3444 91.443 78.8955 92.7584 76.6215L91.7457 74.1143L91.8155 73.951L93.3986 74.5457C93.5155 74.4296 93.6138 74.2958 93.6896 74.1493C94.8621 71.2655 95.645 68.2379 96.0176 65.1465C96.3979 61.8191 96.716 58.4916 96.9721 55.1642C96.9691 54.1659 96.9031 53.1688 96.7742 52.1789C96.7043 51.0127 96.7742 49.8465 96.6345 48.762C96.2853 45.5667 96.0176 42.3481 95.4705 39.1879C95.0006 37.2695 94.4057 35.3841 93.6896 33.5437C93.1425 31.8294 92.6769 30.0452 92.0716 28.4126C91.315 26.2785 90.3139 24.2261 89.6854 22.057C88.8195 19.5768 87.7001 17.193 86.3447 14.9435C85.2428 12.6303 83.8924 10.4444 82.3172 8.42465C81.2231 7.15354 80.4432 5.63753 79.4771 4.27313V4.24981ZM83.0506 4.24981L82.6432 4.47138C83.9159 6.3761 85.1536 8.27305 86.3563 10.1622C85.8209 7.84157 85.0876 5.66086 83.0506 4.27313V4.24981ZM88.8706 12.9726C89.2056 13.4435 89.6423 13.8328 90.1481 14.1114C90.6538 14.39 91.2159 14.5509 91.7922 14.5819C90.1393 11.8182 89.4642 8.75117 86.7055 6.94363C87.2998 9.00012 88.011 11.0209 88.8357 12.996L88.8706 12.9726ZM94.4927 11.9231C93.3287 11.1301 92.2462 10.3955 90.7912 9.41588C90.9079 9.96914 91.0596 10.5144 91.2451 11.0485C91.7573 12.2146 92.4092 13.2759 92.8166 14.4653C92.9933 15.0061 93.2815 15.5034 93.6626 15.9254C94.0435 16.3473 94.5088 16.6842 95.0282 16.9143L97.6937 18.1504C96.9022 16.2496 96.2737 14.6519 95.552 13.1126C95.2883 12.6398 94.9126 12.2394 94.4578 11.9464L94.4927 11.9231ZM97.6588 14.7569C98.1562 16.3827 98.7351 17.9823 99.3932 19.5498C99.6842 20.1445 100.557 20.4827 101.291 21.0541C101.139 19.813 100.736 18.6159 100.106 17.5369C99.475 16.4578 98.6304 15.5197 97.6239 14.7802L97.6588 14.7569ZM101.698 18.6635C101.649 20.0708 102.131 21.4449 103.048 22.5118C104.957 24.7858 106.983 26.9549 108.763 29.3338C108.92 29.4867 109.101 29.6128 109.299 29.707C107.397 25.6273 104.828 21.8947 101.698 18.6635ZM109.101 32.9839C108.798 32.3658 108.729 31.6195 108.484 30.9548C108.307 30.6248 108.088 30.319 107.832 30.0452L107.634 30.2434C108.112 33.3571 108.519 36.4824 109.089 39.5727C109.406 40.5193 109.836 41.4237 110.37 42.2665C110.595 42.0179 110.757 41.7184 110.842 41.3935C110.927 41.0688 110.933 40.7281 110.859 40.4007C110.681 37.8489 110.087 35.3435 109.101 32.9839ZM113.373 44.5872C112.947 43.1515 112.8 41.6469 112.942 40.1558C112.942 38.0409 112.34 35.97 111.208 34.185C111.336 35.3512 111.417 36.2258 111.499 37.0421C111.743 39.2928 111.999 41.5435 112.232 43.8058C112.216 44.0987 112.235 44.3924 112.29 44.6805C112.57 45.4035 112.931 46.0798 113.257 46.7795L113.652 46.6513C113.614 45.9568 113.521 45.2666 113.373 44.5872ZM113.582 47.3976C113.07 47.5609 112.814 47.5725 112.756 47.6775C112.392 50.2992 112.427 52.9612 112.861 55.5724C113.082 52.9252 113.745 50.313 113.582 47.3976ZM111.429 58.6977C111.429 55.2575 111.825 51.8057 110.847 48.3888C110.614 47.6075 111.161 46.6513 111.324 45.4851L108.635 41.7651C108.635 42.4531 108.566 42.733 108.635 43.0012C108.876 46.6629 109.132 50.313 109.404 53.9514C109.467 54.3649 109.467 54.7857 109.404 55.1992C108.822 57.1117 109.671 58.6977 110.963 60.3186C111.188 59.8006 111.344 59.2558 111.429 58.6977ZM112.733 58.8259H112.302C112.081 59.9921 110.975 61.0766 112.302 62.3944L112.733 58.8259ZM108.996 69.7062C109.322 68.6217 109.636 67.5255 109.904 66.4176C110.37 64.5051 110.789 62.5693 109.392 60.8201C109.246 60.648 109.082 60.4917 108.903 60.3536C108.768 60.6838 108.655 61.0228 108.566 61.3682C107.96 64.8666 107.693 68.4934 106.563 71.9336C106.387 72.3695 106.352 72.8503 106.465 73.3071C106.578 73.7637 106.833 74.1728 107.192 74.4758C108.414 73.0064 108.577 71.3038 108.996 69.7062ZM100.639 87.4668L100.278 87.2452C100.439 86.8897 100.625 86.5468 100.837 86.219C102.385 84.224 103.625 82.0068 104.515 79.6419C105.109 78.0843 105.607 76.4915 106.005 74.8723C106.11 74.4524 105.772 73.9277 105.632 73.4729C104.655 73.5778 104.468 74.1959 104.259 74.7207C103.316 76.8664 102.431 79.0354 101.453 81.1579C100.755 82.6855 99.9519 84.1549 99.1837 85.6476C98.9178 86.0402 98.7174 86.4734 98.59 86.9303C98.59 87.2569 98.8927 87.6184 99.2302 88.2947C99.0082 88.8874 98.6897 89.4391 98.2874 89.9274C95.4123 92.7728 92.4674 95.5366 89.5573 98.382C89.1762 98.8509 88.8592 99.3686 88.6145 99.9213L89.0452 100.178C92.479 96.7844 95.9012 93.3675 99.3815 90.009C102.407 87.0958 104.821 83.6069 106.482 79.7468C106.702 79.0725 106.734 78.3507 106.575 77.6594C104.899 81.0995 103.56 84.7729 100.639 87.4668ZM108.996 74.3008C108.205 75.3037 106.668 76.0618 107.832 77.9743C108.251 76.5982 108.6 75.4437 108.996 74.3008Z" fill="#212121"/>
</g>
</svg>
