<svg width="17" height="14" viewBox="0 0 17 14" fill="none" xmlns="http://www.w3.org/2000/svg">
<path id="Vector" d="M1.34566 0.805183C1.96978 0.365971 2.71546 -0.0876567 3.38271 0.0145814C4.39041 0.168969 5.24732 0.84768 5.94947 1.63958C6.71111 2.49856 6.8915 3.63605 7.43167 4.62727C7.95754 4.09316 8.49577 3.56137 9.15723 3.11057C10.7594 2.01878 13.3529 1.83967 14.8133 3.4299C16.2894 5.03738 16.5002 6.53194 15.302 8.27862C14.4176 9.5678 13.3911 10.8029 11.8664 11.5262C10.889 11.9898 10.051 12.6797 8.92879 12.9276C7.96603 13.1402 7.02916 13.4443 6.03176 13.4964C5.53164 13.5224 4.98324 13.3646 4.58575 13.8945C4.44205 14.086 4.15116 13.9741 3.89466 13.8921C3.05757 13.6246 2.92212 12.7976 2.50338 12.2118C1.59161 10.9359 1.17248 9.42293 0.699533 7.95851C0.285173 6.67577 -0.051939 5.36585 0.00651932 3.9689C0.0587978 2.71281 0.231343 1.58935 1.34566 0.805183ZM2.56827 6.90754C2.95701 8.08122 3.42764 9.21267 3.92351 10.3408C4.09348 10.7277 4.35319 11.0415 4.56462 11.3925C4.66325 11.5564 4.81828 11.631 5.04774 11.5639C6.15201 11.2415 7.30844 11.1887 8.41143 10.7862C9.61987 10.3453 10.7153 9.75837 11.7536 9.02094C12.6711 8.3694 13.3167 7.48247 13.9206 6.56709C14.3788 5.87254 13.7828 4.56984 12.9393 4.31527C11.5946 3.90954 10.4315 4.31579 9.43497 5.20091C8.79295 5.7712 8.22613 6.43202 7.66859 7.08871C7.44055 7.35744 7.2214 7.53939 6.8901 7.40676C6.57166 7.27928 6.37697 7.02034 6.33358 6.65542C6.14133 5.03918 5.3873 3.67622 4.38655 2.43443C4.0788 2.05252 3.63083 1.90676 3.17012 2.0538C2.63536 2.22454 2.1198 2.47731 2.00043 3.12318C1.95537 3.36719 1.9381 3.61648 1.8996 3.93491C2.10485 4.88776 2.23761 5.90911 2.56827 6.90754Z" fill="#1E6621"/>
</svg>
