<svg width="20" height="22" viewBox="0 0 20 22" fill="none" xmlns="http://www.w3.org/2000/svg">
<g id="Isolation_Mode">
<path id="Vector" d="M11.2782 1.70294C13.9422 1.86163 16.2633 3.44243 17.3822 5.88631L17.5508 6.25282L17.5217 6.25638C18.4783 8.66202 18.1573 11.4384 16.4124 13.4459L16.4114 13.4456C14.6515 15.4644 11.7953 16.481 9.15764 15.8379L9.1527 15.8372C9.08795 15.8205 9.02281 15.7924 8.96352 15.7535C8.76778 15.9019 8.59885 16.0299 8.43219 16.2044C8.20869 16.4393 8.01756 16.7095 7.86482 17.002L7.86419 17.0038C7.54555 17.6059 7.40194 18.2753 7.43914 18.954L7.43616 19.0541C7.40622 19.2773 7.22655 19.4203 7.09149 19.4806C6.93789 19.5492 6.66834 19.5893 6.47119 19.3972L6.46904 19.3944C5.74828 18.6769 5.32244 17.7164 5.20112 16.7258L5.20143 16.7249C5.0776 15.7146 5.26692 14.7 5.84873 13.8303L5.84904 13.8293L5.89162 13.7768C5.93706 13.7293 5.98875 13.6984 6.03294 13.6793C6.09236 13.6536 6.1639 13.6379 6.23819 13.6427C6.30354 13.6469 6.43716 13.6738 6.51962 13.8041C6.60451 13.9385 6.56837 14.075 6.53453 14.1494L6.53514 14.1506C6.04925 15.2299 6.04977 16.4759 6.51848 17.521C6.60861 17.2016 6.73099 16.8905 6.88887 16.5958C7.09012 16.2121 7.35383 15.8521 7.65305 15.5402L7.65491 15.5377L7.88211 15.3147C8.12562 15.0873 8.41768 14.8581 8.74487 14.7287L8.81355 14.7055C8.95819 14.6658 9.11656 14.6786 9.24621 14.7646C9.35116 14.7266 9.47445 14.7084 9.60273 14.738L9.60735 14.7396L9.84703 14.793C12.333 15.2888 15.0109 14.0278 16.2282 11.7872L16.2285 11.7863L16.3255 11.6006C17.2225 9.78374 17.0016 7.55866 15.9908 5.79302L15.77 5.43458C14.5538 3.58428 12.4636 2.60896 10.2856 2.74197L9.84868 2.78358C7.56178 3.07536 5.57654 4.52031 4.72224 6.64474L4.64366 6.85217C3.92256 8.84739 4.13102 11.1093 5.12305 12.9779L5.33116 13.3465L5.33729 13.3558L5.36111 13.4072C5.40567 13.5256 5.38019 13.6427 5.33106 13.7269C5.28147 13.8118 5.20897 13.8671 5.1489 13.8993C5.08709 13.9323 5.00881 13.9577 4.92439 13.9593C4.8421 13.9607 4.70989 13.9373 4.61505 13.8193L4.61137 13.815C2.72297 11.3612 2.62582 7.82508 4.26017 5.21253L4.39775 5.00138C5.85673 2.85191 8.44688 1.62605 11.0191 1.69142L11.2782 1.70294Z" fill="#1E6621" stroke="#1E6621" stroke-width="0.6"/>
<path id="Vector_2" d="M14.3711 6.69673C13.7067 6.24189 12.7763 6.36568 12.1077 6.74792C11.5499 7.06794 11.1796 7.57129 10.8808 8.12883C10.8154 7.46778 10.6333 6.82706 10.1484 6.37313C9.55928 5.81404 8.54981 5.61155 7.8508 6.08332C6.88181 6.73309 7.1678 8.09784 7.47688 9.04116C7.83603 10.1312 8.48899 11.0614 9.36412 11.8073C9.40282 11.8404 9.45366 11.8377 9.5045 11.8349C9.54911 11.88 9.62074 11.9043 9.7344 11.8929C10.7396 11.7546 11.7159 11.4367 12.5914 10.9449C13.4399 10.4739 14.3609 9.84778 14.7871 8.9441C15.1407 8.19551 15.098 7.20272 14.3561 6.71161L14.3711 6.69673ZM12.5517 7.02823C13.085 6.80973 13.6466 6.89034 14.0156 7.21511C13.5847 7.30857 13.1535 7.43193 12.7254 7.54633C12.3632 7.64313 12.0009 7.73993 11.6446 7.84872C11.8736 7.49712 12.1651 7.19666 12.5517 7.02823ZM11.6145 7.87847C11.9917 7.79669 12.3568 7.72083 12.728 7.62706C13.186 7.51281 13.6558 7.42254 14.102 7.28432C14.212 7.40148 14.304 7.54246 14.3539 7.71911C14.1144 7.77767 13.8689 7.85415 13.6264 7.92167C13.318 8.00678 13.0127 8.08295 12.7014 8.14713C12.2344 8.25834 11.7616 8.35757 11.2887 8.45679C11.3764 8.25693 11.491 8.06618 11.6056 7.87543L11.6145 7.87847ZM8.06688 6.50597C8.53856 6.05695 9.34087 6.42879 9.72737 6.84932C9.64952 6.87284 9.55968 6.90228 9.48182 6.92579C9.27225 6.98451 9.06859 7.05522 8.86493 7.12593C8.50557 7.24367 8.14924 7.35246 7.79883 7.47324C7.77973 7.11738 7.82345 6.75286 8.07583 6.509L8.06688 6.50597ZM7.95251 8.40381L8.94607 8.21159C9.14957 8.17078 9.36203 8.133 9.56554 8.09219C9.75705 8.05729 9.97239 8.04046 10.1581 7.96368C10.1941 7.94593 10.2003 7.89812 10.1525 7.8919C9.95222 7.89386 9.74856 7.96457 9.56296 8.01145C9.35642 8.06122 9.15291 8.10203 8.94637 8.1518C8.61114 8.22781 8.28486 8.30686 7.95267 8.37392C7.92338 8.25418 7.87012 8.14628 7.84979 8.02958C7.8237 7.87099 7.80064 7.70346 7.79261 7.52104C8.15789 7.41529 8.51725 7.29755 8.88253 7.19179C9.09514 7.12412 9.30472 7.0654 9.51733 6.99773C9.60717 6.96829 9.69398 6.94781 9.78382 6.91837C10.1788 7.43163 10.2651 8.08979 10.2827 8.74462C10.157 8.76191 10.0373 8.7912 9.91165 8.80849C9.6992 8.84627 9.48977 8.87509 9.27731 8.91287C8.89731 8.9737 8.53219 9.04956 8.15811 9.12238C8.0786 8.88579 8.00213 8.64025 7.9466 8.39182L7.95251 8.40381ZM8.21698 9.30207C8.21698 9.30207 8.19346 9.22421 8.1877 9.18233C8.54068 9.14228 8.90262 9.10527 9.25864 9.05627C9.46806 9.02745 9.67749 8.99863 9.8989 8.96389C10.0335 8.94963 10.1711 8.92642 10.3058 8.91216C10.3016 9.13038 10.3006 9.33965 10.2995 9.54892C10.2963 9.58777 10.3232 9.59688 10.335 9.62086C9.76623 9.76742 9.18849 9.91095 8.61666 10.0665C8.47145 9.81759 8.32623 9.5687 8.21698 9.30207ZM9.71591 11.4175C9.71591 11.4175 9.64398 11.453 9.60801 11.4707C9.50391 11.3655 9.41787 11.2365 9.32576 11.1255C9.66964 11.1123 10.0167 11.0602 10.3547 11.0351C10.7046 11.004 11.0605 10.9849 11.4074 10.9627C10.8562 11.1752 10.2933 11.3337 9.70696 11.4144L9.71591 11.4175ZM9.04079 10.7294C10.4022 10.5121 11.7695 10.3069 13.137 10.0717C12.942 10.2052 12.747 10.3388 12.558 10.4544C12.2582 10.6322 11.9376 10.7532 11.6261 10.8771C11.2045 10.884 10.7888 10.9028 10.373 10.9514C10.0201 10.9915 9.65811 11.0285 9.31393 11.1015C9.07629 10.8013 8.84777 10.4743 8.66112 10.1414C9.29562 10.0072 9.93315 9.86395 10.5617 9.71769C10.5707 9.72072 10.5827 9.71481 10.5947 9.70889C11.6662 9.46325 12.7229 9.20259 13.7738 8.90004C13.8157 8.89427 13.816 8.83448 13.7741 8.84025C12.8165 9.01472 11.8617 9.24003 10.9127 9.47732C11.016 9.17291 11.1372 8.84467 11.2764 8.5225C11.7581 8.45621 12.2428 8.38096 12.7157 8.28174C13.0479 8.21468 13.3741 8.13563 13.7004 8.05658C13.9279 8.00393 14.1674 7.94537 14.392 7.87178C14.4125 7.95858 14.424 8.04235 14.4205 8.14099C14.4165 8.91828 13.8753 9.51344 13.2601 9.97368C11.8448 10.2026 10.4383 10.4645 9.03183 10.7263C9.03183 10.7263 9.02576 10.7442 9.0288 10.7353L9.04079 10.7294Z" fill="#1E6621" stroke="#1E6621" stroke-width="0.2"/>
</g>
</svg>
