<svg width="40" height="40" viewBox="0 0 40 40" fill="none" xmlns="http://www.w3.org/2000/svg">
<g id="Group">
<path id="Vector" d="M20.0001 10C19.3336 24.1145 18.8961 24.2395 9.59961 25C18.8966 25.7605 19.3341 25.8855 20.0001 40C20.6666 25.8855 21.1036 25.7605 30.4006 25C21.1036 24.2395 20.6666 24.1145 20.0001 10Z" fill="#FFE47D"/>
<path id="Vector_2" d="M34.7996 0C34.4666 7.057 34.2476 7.1195 29.5991 7.5C34.2476 7.8805 34.4661 7.943 34.7996 15C35.1326 7.943 35.3516 7.8805 40.0001 7.5C35.3516 7.1195 35.1331 7.057 34.7996 0Z" fill="#FFE47D"/>
<path id="Vector_3" d="M4.3335 7.125C4.056 13.006 3.8735 13.058 0 13.375C3.8735 13.692 4.056 13.744 4.3335 19.625C4.611 13.744 4.79351 13.692 8.66701 13.375C4.79351 13.058 4.611 13.006 4.3335 7.125Z" fill="#FFE47D"/>
</g>
</svg>
