<svg width="40" height="40" viewBox="0 0 40 40" fill="none" xmlns="http://www.w3.org/2000/svg">
<g id="Group">
<path id="Vector" d="M20 6.25C20 6.25 20 20 6.25 20C20 20 20 33.75 20 33.75C20 33.75 20 20 33.75 20C20 20 20 6.25 20 6.25Z" fill="#FFE47D"/>
<path id="Vector_2" d="M4.5 31C4.5 31 4.5 35.5 0 35.5C4.5 35.5 4.5 40 4.5 40C4.5 40 4.5 35.5 9 35.5C4.5 35.5 4.5 31 4.5 31Z" fill="#FFE47D"/>
<path id="Vector_3" d="M35.5 7.0835C35.5 7.0835 35.5 11.5835 31 11.5835C35.5 11.5835 35.5 16.0835 35.5 16.0835C35.5 16.0835 35.5 11.5835 40 11.5835C35.5 11.5835 35.5 7.0835 35.5 7.0835Z" fill="#FFE47D"/>
<path id="Vector_4" d="M7.73242 0C7.73242 0 7.73242 2.5 5.23242 2.5C7.73242 2.5 7.73242 5 7.73242 5C7.73242 5 7.73242 2.5 10.2324 2.5C7.73242 2.5 7.73242 0 7.73242 0Z" fill="#FFE47D"/>
<path id="Vector_5" d="M27.3989 27.855C27.3989 27.855 27.3989 30.355 24.8989 30.355C27.3989 30.355 27.3989 32.855 27.3989 32.855C27.3989 32.855 27.3989 30.355 29.8989 30.355C27.3989 30.355 27.3989 27.855 27.3989 27.855Z" fill="#FFE47D"/>
</g>
</svg>
